<?xml version="1.0" encoding="UTF-8"?><svg id="Layer_2" xmlns="http://www.w3.org/2000/svg" viewBox="0 0 74.58 92.68"><defs><style>.cls-1{fill:#a0a0a0;stroke-width:0px;}</style></defs><g id="Layer_1-2"><path class="cls-1" d="M74.53,53.61l-.27-22.99c.33-6.31-1.4-11.53-5.04-16.71C57.23-3.18,62.34.47,42.96.07c-1.89-.04-3.78-.04-5.67-.01-1.89-.03-3.78-.03-5.67.01C12.24.47,17.35-3.18,5.36,13.91,1.72,19.09-.01,24.31.32,30.62L.05,53.61c0,8.83-.13,17.65.03,26.48.18,9.84,2.78,12.35,12.59,12.43,8.11.07,16.21.12,24.33.16h0c.1,0,.19,0,.29,0,.1,0,.19,0,.29,0h0c8.12-.04,16.22-.09,24.33-.16,9.81-.08,12.41-2.59,12.59-12.43.16-8.83.03-17.65.03-26.48ZM54.83,2.36c4.07-.14,5.28,1.71,5.37,5.3.18,6.82.67,13.64.7,20.46.06,9.65-.15,19.3-.3,28.95-.04,2.87-.8,5.55-4.32,5.48H18.3c-3.52.07-4.28-2.61-4.32-5.48-.15-9.65-.36-19.3-.3-28.95.03-6.82.52-13.64.7-20.46.09-3.59,1.3-5.44,5.37-5.3h35.08ZM2.75,76.74c-.21-1.03-.4-1.79-.4-2.55l1.2-50.91c.02-.7.21-1.38.56-1.98l6.85-11.99c.17-.3.62-.17.62.17v48.96c0,1.83-.45,3.62-1.3,5.24l-6.96,13.15c-.13.26-.52.2-.57-.09ZM3.76,86.52c-.15-1.59-.28-3.18.26-4.49,2.54-6.21,5.55-12.23,8.42-18.3.22-.48.77-.7,1.26-.52h.02c.51.2.78.75.61,1.27-2.71,8.19-5.41,16.39-8.11,24.58-1.32-.16-2.34-1.22-2.46-2.54ZM37.58,90.01H8.29c2.89-8.09,5.54-15.71,8.38-23.26.3-.79,1.73-1.64,2.63-1.65,5.98-.05,11.97-.07,17.99-.07,6.02,0,12.01.02,17.99.07.9.01,2.33.86,2.63,1.65,2.84,7.55,5.49,15.17,8.38,23.26h-28.71ZM70.82,86.52c-.12,1.32-1.14,2.38-2.46,2.54-2.7-8.19-5.4-16.39-8.11-24.58-.17-.52.1-1.07.61-1.26h.02c.49-.19,1.04.03,1.26.51,2.87,6.07,5.88,12.09,8.42,18.3.54,1.31.41,2.9.26,4.49ZM71.83,76.74c-.05.29-.44.35-.57.09l-6.96-13.15c-.85-1.62-1.3-3.41-1.3-5.24V9.48c0-.34.45-.47.62-.17l6.85,11.99c.35.6.54,1.28.56,1.98l1.2,50.91c0,.76-.19,1.52-.4,2.55Z"/><path class="cls-1" d="M34.63,27.88l-1.54,4.66h-1.98l5.04-14.83h2.31l5.06,14.83h-2.05l-1.58-4.66h-5.26ZM39.49,26.38l-1.45-4.27c-.33-.97-.55-1.85-.77-2.71h-.04c-.22.88-.46,1.78-.75,2.68l-1.45,4.29h4.47Z"/><path class="cls-1" d="M37.62,50.04c-.55.91-1.56,1.48-2.74,1.5-.89,0-1.58-.34-2.07-.89v2.81c0,1.04-.84,1.9-1.88,1.9h-3.93c-2.56,0-4.65-2.09-4.65-4.65v-3.06h1.65v3.06c0,1.67,1.33,3.02,3,3.02h3.59c.34,0,.63-.27.63-.63v-8.64h1.6v3.57c0,1.06.84,1.88,1.99,1.88s2.03-.87,2.03-1.94v-3.46h1.63v3.51c0,1.12.87,1.88,1.99,1.88s1.94-.87,1.94-1.94v-5.3h1.63v5.32c-.04,2.05-1.61,3.55-3.63,3.55-1.18,0-2.2-.59-2.79-1.5ZM36.73,41.66c0,.57-.47,1.04-1.06,1.04-.55,0-1.03-.48-1.03-1.04s.47-1.03,1.03-1.03c.59,0,1.06.46,1.06,1.03ZM38.27,38.87c0,.57-.48,1.04-1.06,1.04-.55,0-1.03-.47-1.03-1.04s.48-1.03,1.03-1.03c.59,0,1.06.46,1.06,1.03ZM39.86,41.66c0,.57-.48,1.04-1.06,1.04-.55,0-1.03-.48-1.03-1.04s.48-1.03,1.03-1.03c.59,0,1.06.46,1.06,1.03Z"/></g></svg>