<?xml version="1.0" encoding="UTF-8"?><svg id="Layer_2" xmlns="http://www.w3.org/2000/svg" viewBox="0 0 408.79 409.6"><defs><style>.cls-1{fill:#000;stroke-width:0px;}</style></defs><g id="Layer_1-2"><path class="cls-1" d="M192.42,0c7.98,0,15.97,0,23.95,0,1.29.25,2.57.54,3.87.73,8.67,1.25,17.46,1.96,26.01,3.79,38.97,8.31,72.73,26.61,100.96,54.74,38,37.87,58.7,83.79,61.32,137.44,1.96,40.13-7.32,77.86-28.16,112.23-32.36,53.37-79.38,86-140.75,97.49-7.68,1.44-15.49,2.14-23.24,3.19h-23.95c-1.03-.22-2.05-.58-3.09-.65-28.66-1.97-55.81-9.52-80.91-23.42C51.01,353.75,15.67,305.57,3.21,240.87,1.73,233.19,1.05,225.36,0,217.6c0-8,0-16,0-24,.34-2.88.7-5.77,1.01-8.65,3.61-33.27,14.2-64.12,32.86-91.88C66.63,44.34,111.72,13.94,169.6,3.18,177.15,1.78,184.81,1.04,192.42,0ZM150.16,296.39c-7.05-2.76-14.64-5.27-21.83-8.64-19.96-9.36-36.27-23.19-45.96-43.2-17.76-36.68-14.8-72.4,7.01-106.71.88-1.39,1.24-3.4,1.13-5.08-.4-5.98-1.46-11.92-1.61-17.9-.22-8.95.69-17.83,3.8-26.35,3.55-9.73,11.19-15.61,19.91-14.75,4.74.47,9.75.86,14.03,2.71,10.58,4.56,20.87,9.81,31.13,15.07,2.53,1.3,4.67,1.84,7.45,1.14,25.35-6.39,50.82-6.51,76.23-.51,4.7,1.11,8.21.44,12.19-2.05,10.72-6.71,21.77-12.76,34.37-15.41,15.46-3.26,24.29,1.51,28.96,16.64,4.18,13.54,3.47,27.35,1.4,41.19-.26,1.73.18,4,1.16,5.42,11.95,17.3,17.74,36.64,18.12,57.45.85,46.84-26.06,82.29-69.45,97.46-3.43,1.2-6.89,2.33-10.6,3.57,5.8,10.76,6.75,21.97,6.7,33.39-.06,13.6-.02,27.2-.02,40.8v3.97c69.91-23.02,131.92-99.22,118.72-194.22-12.54-90.26-92.01-159.98-186.5-156.26C104.85,27.73,28.34,103.99,24.18,196.91c-4.14,92.43,60.03,158.63,120.33,177.53v-31.59c-2.01.24-3.46.4-4.91.6-12.67,1.73-24.29-.93-34.84-8.22-7.29-5.04-12.13-12.2-17.02-19.38-4.8-7.04-10.46-13.13-19.87-13.77-.69-7.91-1.36-15.57-2.03-23.21,6.68-1.07,14.31.56,20.98,4.07,10.89,5.73,18.03,15.04,24.66,25.01,7.49,11.26,18.81,14.72,31.35,9.95,1-.38,2.08-1.57,2.37-2.59,1.76-6.23,3.3-12.52,4.95-18.9ZM114.56,98.32c-2.59,11.36-2.47,22.19.28,32.92,1.56,6.06,1.29,11.49-2.77,16.57-10.2,12.76-15.6,27.46-16.76,43.67-1.63,22.81,4.67,42.87,21.12,59.3,13.93,13.91,31.28,20.74,50.13,24.41,8.15,1.59,16.39,2.75,25.2,4.21-4.9,7.18-9.11,14.15-14.13,20.48-6.63,8.37-9.33,17.67-9.21,28.19.18,16.53.05,33.06.05,49.59,0,1.42,0,2.84,0,4.31,24.24,4.8,47.92,4.85,71.68,0,.08-1,.17-1.65.17-2.3,0-17.86.08-35.73-.05-53.59-.03-3.7,0-7.73-1.38-11.02-2.43-5.81-5.72-11.3-9.05-16.68-3.94-6.36-8.31-12.46-12.73-19.02,2.44-.41,4.13-.71,5.84-.98,14.05-2.19,28.14-4.12,41.46-9.54,18.55-7.54,33.71-19.27,41.98-37.78,12.55-28.09,9.72-55.32-7.88-80.59-4.51-6.48-6.44-12.45-4.31-20.4,2.76-10.34,2.76-21.02-.1-31.97-2.27.54-4.49.67-6.31,1.57-8.79,4.36-17.78,8.43-26.1,13.57-7,4.34-13.7,5.08-21.59,3.3-9.55-2.15-19.33-3.65-29.09-4.43-15.51-1.24-30.78,1.18-45.8,5.01-5.64,1.44-10.71.61-15.61-2.52-4.81-3.08-9.69-6.1-14.74-8.77-6.3-3.33-12.62-6.8-20.3-7.53Z"/></g></svg>