<?xml version="1.0" encoding="UTF-8"?><svg id="Layer_2" xmlns="http://www.w3.org/2000/svg" viewBox="0 0 194 1081"><defs><style>.cls-1{fill:#4d4d4d;stroke-width:0px;}</style></defs><g id="Layer_1-2"><path class="cls-1" d="M152.26,533.18l.06-.17-.24-.69,41.89-100.46.04-431.86h-70v1h69v430.57l-41.42,99.33-57.6-165.98-53.57,165.86L1,431.58V1h126V0H0v431.77l39.93,100.52-.19.58-.05.15.26.78L.03,649.27l-.03,431.73h194v-431.65l-41.94-115.6.2-.58ZM94.02,368.07l56.99,164.21-.22.52-.08.18.28.77-56.98,162.08-53.02-162.04.22-.64.06-.18-.29-.74,53.03-164.17ZM193,649.53v430.47H1v-430.48l39.46-114.16,53.52,163.59,57.55-163.71,41.47,114.28Z"/></g></svg>