<?xml version="1.0" encoding="UTF-8"?><svg id="Layer_2" xmlns="http://www.w3.org/2000/svg" viewBox="0 0 408.81 255.55"><defs><style>.cls-1{fill:#000;stroke-width:0px;}</style></defs><g id="Layer_1-2"><path class="cls-1" d="M0,.02c40.06,0,80.11-.06,120.17.03,16.22.04,32.14,2.01,46.84,9.56,19.2,9.85,29.66,25.86,31.55,47.14.67,7.6.25,15.49-1.03,23.01-2.53,14.96-11.32,25.8-24.51,33.13-1.39.77-2.75,1.58-4.3,2.46,4.24,2.26,8.42,4.21,12.31,6.62,16.72,10.41,24.24,26.17,25.8,45.25,1.67,20.39-3.67,38.7-16.67,54.62-11.77,14.41-27.24,22.33-45.41,24.86-9.72,1.36-19.57,2.36-29.37,2.42-38.46.27-76.92.1-115.38.09V.02ZM50.49,206.08c12.12,0,23.81.1,35.49-.03,12.62-.14,25.26-.05,37.84-.88,15.8-1.05,26.25-9.9,28.98-24.37,1.04-5.51.97-11.4.39-17.01-.86-8.29-5.42-14.55-12.78-18.63-6.92-3.85-14.53-5.2-22.26-5.29-21.67-.24-43.34-.17-65.01-.2-.87,0-1.74.23-2.66.36v66.05ZM50.47,98.12c1.04.07,1.69.16,2.34.16,20.09,0,40.19.23,60.28-.16,6.28-.12,12.66-1.45,18.77-3.09,6.44-1.73,11.84-5.39,14.52-12.02,2.47-6.1,2.92-12.46,1.9-18.83-1.51-9.43-6.86-15.72-16.4-17.84-4.53-1.01-9.13-2.21-13.72-2.3-21.94-.45-43.89-.56-65.84-.76-.61,0-1.22.28-1.84.44v54.4Z"/><path class="cls-1" d="M408.74,170.82h-135.5c-.4,23.07,12.02,40.31,34.33,44.51,13.04,2.46,25.89,1.9,37.04-6.29,3.95-2.9,6.7-7.4,10.16-11.01,1.06-1.11,2.65-2.41,4.01-2.42,15.17-.17,30.33-.1,45.5-.08.51,0,1.01.17,1.75.31-.54,6.65-3.16,12.45-6.48,17.86-14.49,23.65-35.8,36.78-63.12,40.55-25.97,3.58-50.52.04-73.35-13.62-19.9-11.91-32.03-29.11-36.47-51.77-5.04-25.68-4.74-51.14,4.99-75.74,10.74-27.13,31.18-43.56,59.32-50.04,25.39-5.85,50.27-3.87,73.73,8.16,18.66,9.57,30.46,25.31,37.78,44.58,6.67,17.54,6.54,35.93,6.31,55.01ZM357.48,138.73c.26-20.27-13.42-36.3-36.19-38.59-25.86-2.6-44.24,12.44-47.03,38.59h83.22Z"/><path class="cls-1" d="M261.44,42.37V12.02h107.92v30.35h-107.92Z"/></g></svg>