<?xml version="1.0" standalone="no"?>
<!DOCTYPE svg PUBLIC "-//W3C//DTD SVG 20010904//EN"
 "http://www.w3.org/TR/2001/REC-SVG-20010904/DTD/svg10.dtd">
<svg version="1.0" xmlns="http://www.w3.org/2000/svg"
 width="512.000000pt" height="512.000000pt" viewBox="0 0 512.000000 512.000000"
 preserveAspectRatio="xMidYMid meet">

<g transform="translate(0.000000,512.000000) scale(0.100000,-0.100000)"
fill="#f76808" stroke="none">
<path d="M703 4461 c-183 -45 -335 -166 -419 -334 -74 -146 -69 -36 -69 -1567
0 -1531 -5 -1421 69 -1567 63 -126 163 -225 291 -287 142 -70 50 -67 1845 -64
l1615 3 70 23 c180 60 309 175 391 347 30 62 54 169 199 895 91 454 165 845
165 870 0 155 -100 306 -250 379 l-75 36 -1405 0 -1405 0 -81 -27 c-164 -56
-295 -170 -370 -323 -44 -89 -46 -98 -212 -930 l-168 -840 -46 -3 c-78 -5
-159 50 -192 130 -14 33 -16 187 -16 1358 0 1171 2 1325 16 1358 19 47 58 88
106 113 35 18 64 19 463 19 l425 0 311 -207 312 -208 706 -5 706 -5 47 -28
c52 -30 95 -93 105 -151 l6 -36 211 2 211 3 -3 50 c-13 218 -154 424 -358 524
-124 61 -126 61 -839 61 l-650 0 -295 196 c-161 108 -312 205 -334 215 -38 17
-76 19 -526 18 -429 0 -493 -3 -557 -18z m3727 -1696 c0 -19 -310 -1545 -318
-1566 -16 -41 -63 -91 -107 -110 -38 -18 -101 -19 -1357 -19 -725 0 -1318 3
-1318 8 0 33 312 1557 324 1579 17 34 61 75 101 96 27 15 167 16 1353 17 727
0 1322 -2 1322 -5z"/>
</g>
</svg>
