<?xml version="1.0" encoding="UTF-8"?><svg id="Layer_2" xmlns="http://www.w3.org/2000/svg" viewBox="0 0 195.67 195.86"><defs><style>.cls-1{fill:#98c0ef;stroke-width:0px;}</style></defs><g id="Layer_1-2"><path class="cls-1" d="M195.58,73.1c-.39-10.13-3.39-19.66-8.93-28.33-1.54-2.41-2-4.85-1.48-7.92,1.67-9.87.53-19.87-3.39-29.73-1.56-3.92-4.47-6.28-8.2-6.65-3.97-.39-7.54-.3-10.63.26-9.42,1.7-17.61,6.29-24.37,10.56-1.13.71-2.02.88-3.26.6-16.92-3.79-34.36-3.8-51.84-.04-.71.15-1.78-.05-2.66-.49-1.82-.92-3.64-1.92-5.41-2.89-2.48-1.36-5.05-2.77-7.67-4C61.09,1.36,54.92-.1,48.9,0c-6.57.12-10.02,2.6-12.32,8.85-3.4,9.25-4.28,18.9-2.62,28.69.45,2.65-.04,4.88-1.57,7.24-3.16,4.86-5.59,10.38-7.24,16.42-2.44,8.97-2.71,18.92-.85,31.31,3.91,26.06,18.11,43.32,42.2,51.3,1.34.44,2.68.86,3.87,1.23l.61.19-2.04,13.89c-7.89,1.29-14.74.34-20.92-2.88-6.15-3.21-11.02-7.97-15.87-12.98-5.11-5.28-11.02-9.25-17.58-11.79-5.41-2.1-11.28.28-13.64,5.55-1.18,2.64-1.26,5.68-.21,8.36,1.01,2.57,2.94,4.57,5.44,5.64,4.96,2.11,9.3,5.36,14.07,10.55,10.6,11.52,23.82,17.98,39.29,19.17,2.49.19,4.95.14,7.55.09.87-.02,1.75-.03,2.64-.04,0,.27,0,.54,0,.81,0,1.34-.02,2.61.02,3.91.13,4.42,2.91,8.22,7.09,9.7,1.22.43,2.46.65,3.68.65,2.09,0,4.12-.62,5.87-1.84,2.92-2.03,4.63-5.39,4.68-9.21.11-7.43.19-16.25-.02-25.28-.13-5.87,1.59-10.84,5.28-15.21,2.59-3.07,3.36-7.02,2.06-10.56-1.34-3.66-4.61-6.26-8.74-6.95l-1.07-.18c-4.26-.71-8.67-1.45-12.87-2.56-11.16-2.95-19-8.37-23.95-16.58-3.19-5.28-5.17-11.58-6.24-19.82-1.79-13.74.28-24.46,6.5-33.73,3.58-5.33,4.77-11.83,3.54-19.3-.79-4.81-.85-8.66-.16-12.32.45.12.84.24,1.18.42,1.52.78,3.05,1.54,4.58,2.31,3.94,1.96,8,3.99,11.74,6.35,4.19,2.65,8.07,3.29,12.56,2.1,15.21-4.05,30.56-4.33,45.64-.83l.45.1c9.68,2.25,10,2.2,16.78-2.3l1.63-1.08c4.53-2.98,9.26-5.27,14.42-7,.02.97.05,1.92.09,2.85.11,2.98.21,5.79-.2,8.51-1.24,8.11.29,15.5,4.68,22.59,2.04,3.3,3.6,7.01,4.51,10.73,2.25,9.25,1.75,19.07-1.59,30.91-3.55,12.59-11.61,20.94-23.94,24.81-3.45,1.08-7.11,1.8-10.64,2.49-1.85.36-3.77.74-5.64,1.16-.36.08-.73.16-1.1.23-1.55.32-3.15.65-4.56,1.44-2.74,1.55-4.56,4.05-5.11,7.05-.58,3.15.34,6.48,2.54,9.14,3.51,4.25,5.2,8.73,5.16,13.7-.06,8.28-.08,16.91-.07,26.38,0,6.56,4.38,11.35,10.4,11.41.03,0,.07,0,.1,0,2.86,0,5.47-1.14,7.36-3.2s2.95-4.96,2.98-8.14c.03-3.11.02-6.22.01-9.33,0-3.18-.02-6.36.02-9.55l.02-1.93c.08-6.14.17-12.48-1.89-18.59.34-.1.68-.18,1.03-.27l.29-.07c20.03-5.14,33.85-16.79,41.09-34.62,4.36-10.74,6.22-22.84,5.68-36.97Z"/></g></svg>