<?xml version="1.0" standalone="no"?>
<!DOCTYPE svg PUBLIC "-//W3C//DTD SVG 20010904//EN"
 "http://www.w3.org/TR/2001/REC-SVG-20010904/DTD/svg10.dtd">
<svg version="1.0" xmlns="http://www.w3.org/2000/svg"
 width="512.000000pt" height="512.000000pt" viewBox="0 0 512.000000 512.000000"
 preserveAspectRatio="xMidYMid meet">

<g transform="translate(0.000000,512.000000) scale(0.100000,-0.100000)"
fill="#F7DF1E" stroke="none">
<path d="M630 4786 c-117 -33 -221 -119 -272 -225 -59 -123 -65 -66 172 -1636
116 -770 218 -1422 227 -1450 28 -89 76 -168 143 -235 57 -57 149 -115 725
-459 363 -217 686 -405 718 -418 129 -52 297 -52 426 0 31 13 353 200 716 417
582 348 668 402 725 460 66 66 128 167 149 245 6 22 108 670 227 1440 241
1567 235 1508 176 1627 -40 82 -95 144 -163 185 -113 67 22 63 -2049 62 -1469
-1 -1885 -4 -1920 -13z m3799 -321 c64 -32 73 57 -158 -1467 -117 -766 -219
-1413 -228 -1437 -8 -24 -29 -59 -46 -78 -20 -22 -258 -170 -675 -420 -354
-211 -659 -391 -678 -399 -41 -17 -127 -17 -174 0 -19 7 -321 182 -670 389
-453 269 -647 390 -677 421 -29 30 -46 60 -57 97 -8 30 -108 676 -222 1435
-227 1512 -218 1425 -155 1459 40 22 3698 22 3740 0z"/>
<path d="M1215 4146 c-94 -41 -124 -169 -58 -247 50 -59 53 -59 508 -59 l415
0 0 -1070 0 -1070 -172 86 c-95 47 -174 87 -175 88 -1 1 -32 95 -68 209 -75
238 -83 257 -127 289 -45 31 -134 32 -175 2 -45 -34 -73 -82 -73 -128 0 -59
164 -548 198 -587 18 -22 127 -82 376 -206 327 -163 354 -175 395 -170 47 5
83 27 115 71 21 27 21 30 21 1366 0 1336 0 1339 -21 1366 -11 15 -33 37 -48
48 -27 21 -40 21 -554 23 -423 2 -533 0 -557 -11z"/>
<path d="M2815 4146 c-41 -18 -83 -69 -90 -109 -3 -18 -5 -298 -3 -624 3 -580
3 -592 24 -619 11 -15 33 -37 48 -48 26 -20 42 -21 365 -24 l337 -3 -61 -424
c-34 -234 -64 -427 -66 -429 -2 -2 -128 -65 -279 -141 -151 -75 -289 -148
-307 -161 -39 -30 -68 -101 -60 -150 12 -73 85 -134 161 -134 26 0 128 46 385
175 290 145 354 181 377 211 26 34 31 60 112 625 54 379 82 601 78 624 -8 43
-50 94 -93 111 -25 11 -107 14 -368 14 l-335 0 0 400 0 400 269 0 270 0 -26
-56 c-36 -79 -30 -151 17 -199 59 -61 133 -70 206 -25 29 18 50 53 130 213 89
178 96 196 92 239 -6 56 -42 108 -91 132 -31 14 -93 16 -549 16 -404 -1 -519
-4 -543 -14z"/>
</g>
</svg>
