<svg xmlns="http://www.w3.org/2000/svg" xmlns:xlink="http://www.w3.org/1999/xlink" width="59.075" height="51.454" viewBox="0 0 59.075 51.454">
  <defs>
    <clipPath id="clip-path">
      <rect id="Rectangle_2" data-name="Rectangle 2" width="59.075" height="51.454" fill="none"/>
    </clipPath>
  </defs>
  <g id="Group_1" data-name="Group 1" clip-path="url(#clip-path)">
    <path id="Path_1" data-name="Path 1" d="M4.754,20.149c4.528,6.354,10.794,7.958,17.544,8.3,11.235.573,21.79-1.687,31.277-8a33.028,33.028,0,0,0,2.8-2.285,8.407,8.407,0,0,1,2.7-1.728c-1.465,5.387-2.576,10.855-6.8,14.858C40.757,42.219,27.028,46.185,11.454,43.875a20.131,20.131,0,0,1-6.74-2.442C.356,38.973-.962,35.219.683,30.532c1.186-3.383,2.61-6.683,4.071-10.383" transform="translate(0 6.945)" fill="#f27405"/>
    <path id="Path_2" data-name="Path 2" d="M10.941,0c3.541,5.757,9.309,6.263,14.328,8.2,3.122,1.2,7.633,1.652,8.911,3.913,1.053,1.862-1.7,5.906-2.835,8.96-.6,1.616-1.329,3.185-2.211,5.276-6.236-2.679-12.376-4.963-18.171-7.921-4.2-2.142-5-5.593-3.327-10.091.95-2.552,2-5.066,3.306-8.336" transform="translate(2.88 0)" fill="#f27405"/>
  </g>
</svg>
