<?xml version="1.0" standalone="no"?>
<!DOCTYPE svg PUBLIC "-//W3C//DTD SVG 20010904//EN"
 "http://www.w3.org/TR/2001/REC-SVG-20010904/DTD/svg10.dtd">
<svg version="1.0" xmlns="http://www.w3.org/2000/svg"
 width="512.000000pt" height="512.000000pt" viewBox="0 0 512.000000 512.000000"
 preserveAspectRatio="xMidYMid meet">

<g transform="translate(0.000000,512.000000) scale(0.100000,-0.100000)"
fill="#d6409f" stroke="none">
<path d="M3247 4621 c-188 -41 -386 -167 -402 -254 -16 -83 36 -166 117 -187
53 -15 85 -6 160 43 356 232 814 11 845 -410 25 -330 -275 -618 -598 -572
-166 23 -185 23 -224 -1 -51 -31 -75 -74 -75 -133 0 -117 76 -168 278 -187
417 -39 798 226 914 635 18 66 22 105 23 220 0 168 -15 235 -85 380 -107 222
-294 379 -535 450 -124 37 -294 43 -418 16z"/>
<path d="M1747 4475 c-189 -36 -370 -130 -507 -265 -136 -133 -220 -276 -271
-460 -21 -73 -24 -107 -24 -245 0 -187 17 -269 90 -422 53 -113 89 -166 172
-254 204 -216 464 -320 765 -306 150 6 249 31 377 93 265 127 455 357 532 644
32 119 33 366 1 482 -50 183 -135 332 -262 458 -126 127 -275 212 -455 260
-106 28 -308 36 -418 15z m318 -320 c141 -30 300 -130 386 -245 99 -131 145
-279 137 -439 -15 -277 -184 -502 -450 -599 -66 -24 -86 -27 -213 -27 -127 0
-147 3 -213 27 -106 38 -177 83 -257 163 -126 127 -184 258 -193 435 -4 86 -1
121 16 188 53 208 175 356 368 449 127 60 277 78 419 48z"/>
<path d="M2936 2770 c-61 -19 -106 -83 -106 -150 0 -60 26 -107 75 -135 l42
-25 509 0 c562 0 594 -3 714 -62 87 -42 186 -142 228 -228 19 -39 54 -155 88
-291 31 -125 64 -241 75 -258 55 -90 199 -95 261 -8 39 55 35 101 -31 361 -81
323 -133 428 -277 567 -110 106 -219 167 -373 211 -73 21 -98 22 -626 24 -304
2 -563 -1 -579 -6z"/>
<path d="M1036 2383 c-240 -51 -451 -220 -557 -447 -35 -75 -209 -706 -209
-759 0 -92 79 -164 170 -155 53 5 103 36 124 76 8 15 53 171 101 347 48 176
98 344 112 373 53 112 179 214 307 248 75 20 1597 20 1672 0 128 -34 250 -133
306 -247 14 -30 66 -198 113 -374 48 -176 93 -332 101 -347 21 -40 71 -71 125
-76 91 -9 169 62 169 153 0 45 -160 641 -197 732 -95 238 -320 425 -575 477
-112 23 -1655 22 -1762 -1z"/>
</g>
</svg>
