<?xml version="1.0" standalone="no"?>
<!DOCTYPE svg PUBLIC "-//W3C//DTD SVG 20010904//EN"
 "http://www.w3.org/TR/2001/REC-SVG-20010904/DTD/svg10.dtd">
<svg version="1.0" xmlns="http://www.w3.org/2000/svg"
 width="512.000000pt" height="512.000000pt" viewBox="0 0 512.000000 512.000000"
 preserveAspectRatio="xMidYMid meet">

<g transform="translate(0.000000,512.000000) scale(0.100000,-0.100000)"
fill="#3cb179" stroke="none">
<path d="M1550 4674 c-223 -58 -408 -245 -465 -469 -19 -76 -19 -224 0 -300
22 -86 86 -211 140 -273 54 -61 151 -132 218 -161 l47 -20 0 -890 0 -890 -46
-20 c-68 -30 -166 -103 -219 -163 -55 -63 -119 -188 -141 -278 -24 -95 -15
-262 18 -352 70 -187 209 -326 396 -396 90 -33 257 -42 352 -18 264 66 448
269 490 541 19 118 -1 237 -62 364 -55 115 -169 231 -280 286 l-78 38 0 123 0
123 498 3 c431 4 505 6 557 21 265 75 464 240 571 472 61 131 75 207 81 420
l6 190 51 23 c162 72 305 245 351 427 18 69 20 211 4 287 -16 81 -91 225 -149
290 -70 78 -183 151 -283 184 -95 31 -244 37 -337 15 -179 -43 -351 -180 -428
-342 -103 -216 -89 -442 40 -634 64 -96 144 -167 241 -213 l77 -37 -3 -175
c-3 -150 -6 -183 -24 -228 -32 -79 -96 -158 -166 -203 -107 -69 -106 -69 -624
-69 l-463 0 0 548 0 549 78 38 c111 55 225 171 280 286 22 46 46 109 53 139
18 77 16 222 -4 300 -60 228 -245 412 -470 465 -78 19 -235 18 -307 -1z m267
-440 c116 -67 135 -233 39 -329 -69 -69 -157 -83 -245 -39 -134 67 -158 244
-45 342 75 66 166 76 251 26z m1692 -420 c132 -66 157 -229 51 -334 -105 -106
-268 -81 -334 51 -44 90 -31 175 39 245 69 69 154 82 244 38z m-1735 -2546
c81 -25 146 -118 146 -210 0 -51 -46 -135 -91 -165 -92 -61 -192 -51 -269 27
-106 105 -81 268 51 334 58 29 101 32 163 14z"/>
</g>
</svg>
