<?xml version="1.0" encoding="UTF-8"?><svg id="Layer_2" xmlns="http://www.w3.org/2000/svg" viewBox="0 0 306.8 306.61"><defs><style>.cls-1{fill:#000;stroke-width:0px;}</style></defs><g id="Layer_1-2"><path class="cls-1" d="M172.15,306.61h-63.31V102.22h60.54v27.52c.84-.48,1.24-.57,1.39-.81,13.35-21.51,33.32-31.04,58-31.78,14.1-.42,27.9,1.29,40.84,7.39,16.75,7.9,26.14,21.75,31.32,38.97,4.13,13.74,5.56,27.9,5.66,42.13.27,39.43.16,78.86.2,118.29,0,.6-.08,1.2-.15,2.05h-63.49c0-1.37,0-2.8,0-4.24-.01-33.44.09-66.88-.13-100.32-.05-7.57-.65-15.24-2.02-22.68-3.86-20.93-17.48-28.04-36.99-25.74-17.76,2.1-27.54,12.49-30.3,31.71-1.01,7.01-1.46,14.15-1.5,21.24-.15,31.94-.07,63.88-.07,95.83,0,1.48,0,2.97,0,4.84Z"/><path class="cls-1" d="M5.27,102.17h63.24v204.3H5.27V102.17Z"/><path class="cls-1" d="M73.59,36.7c.11,20.33-16.38,37.18-36.5,37.3C16.86,74.12,0,57.24,0,36.84,0,16.78,16.47.18,36.58,0c20.27-.18,36.9,16.3,37.01,36.7Z"/></g></svg>