<?xml version="1.0" encoding="UTF-8"?><svg id="Layer_2" xmlns="http://www.w3.org/2000/svg" viewBox="0 0 230.39 144.07"><defs><style>.cls-1{fill:#98c0ef;stroke-width:0px;}</style></defs><g id="Layer_1-2"><path class="cls-1" d="M230.39,96.37c-.75-.03-1.49-.1-2.24-.1-23.94,0-47.87,0-71.81,0h-2.4c-.32,12.82,6.67,22.66,19.09,25.07,7.44,1.44,14.74,1.17,21.11-3.48,2.23-1.63,3.78-4.17,5.74-6.21.6-.63,1.49-1.37,2.25-1.38,8.55-.09,17.11-.06,25.66-.05.29,0,.57.1,1,.17-.3,3.75-1.78,7.02-3.65,10.07-8.17,13.34-20.19,20.74-35.6,22.86-14.65,2.02-28.49.02-41.37-7.69-11.22-6.72-18.06-16.42-20.56-29.2-2.83-14.48-2.67-28.84,2.83-42.71,6.07-15.3,17.6-24.55,33.48-28.19,14.32-3.29,28.35-2.18,41.58,4.63,10.51,5.41,17.37,14.22,21.17,25.2,1.77,5.1,2.26,10.64,3.34,15.99.13.65.26,1.3.38,1.95v13.06ZM154.44,78.19h47.05c-.15-11.92-7.94-20.49-20.57-21.74-14.61-1.45-24.09,6.3-26.48,21.74Z"/><path class="cls-1" d="M95.25,64.93c3.3,2.02,6.76,3.73,9.75,6.04,7.06,5.44,10.41,13.08,11.36,21.7,1.35,12.24-1.64,23.36-9.69,32.89-6.6,7.81-15.16,12.14-25.15,13.52-5.63.78-11.33,1.33-17.01,1.38-20.93.16-41.86.07-62.79.07-.52,0-1.04,0-1.71,0V.01c.75,0,1.54,0,2.33,0,21.76,0,43.51-.04,65.27.02,9.14.02,18.12,1.13,26.41,5.38,10.82,5.55,16.73,14.57,17.8,26.56.38,4.28.14,8.73-.57,12.97-1.42,8.43-6.36,14.55-13.8,18.68-.65.36-1.3.74-1.95,1.12-.13.07-.23.19-.23.18ZM28.32,116.1c.61.03,1.05.08,1.48.08,11.25,0,22.49.09,33.73-.07,3.49-.05,7.06-.45,10.44-1.3,11.98-3.04,17.21-20.57,8.93-29.83-1.36-1.52-3.14-3.03-5.02-3.64-3.66-1.18-7.52-2.31-11.33-2.41-12.29-.32-24.59-.17-36.88-.19-.42,0-.85.08-1.35.14v37.22ZM28.29,55.32c.59.04.95.09,1.32.09,11.33,0,22.66.13,33.99-.09,3.54-.07,7.14-.82,10.58-1.74,3.63-.97,6.67-3.04,8.19-6.78,1.39-3.44,1.65-7.03,1.07-10.62-.85-5.32-3.87-8.86-9.25-10.06-2.55-.57-5.15-1.25-7.74-1.3-12.37-.25-24.75-.31-37.13-.43-.34,0-.69.16-1.04.25v30.67Z"/><path class="cls-1" d="M147.26,23.89V6.79h60.84v17.1h-60.84Z"/></g></svg>