<?xml version="1.0" encoding="UTF-8"?><svg id="Layer_2" xmlns="http://www.w3.org/2000/svg" viewBox="0 0 204 204"><defs><style>.cls-1{fill:#456ba5;}.cls-1,.cls-2,.cls-3,.cls-4,.cls-5,.cls-6,.cls-7,.cls-8,.cls-9,.cls-10,.cls-11,.cls-12,.cls-13,.cls-14,.cls-15,.cls-16,.cls-17,.cls-18,.cls-19,.cls-20,.cls-21,.cls-22,.cls-23,.cls-24,.cls-25,.cls-26,.cls-27,.cls-28,.cls-29,.cls-30,.cls-31,.cls-32,.cls-33,.cls-34,.cls-35,.cls-36,.cls-37,.cls-38,.cls-39,.cls-40,.cls-41,.cls-42,.cls-43,.cls-44,.cls-45,.cls-46,.cls-47,.cls-48,.cls-49,.cls-50,.cls-51,.cls-52,.cls-53,.cls-54,.cls-55,.cls-56,.cls-57,.cls-58,.cls-59,.cls-60,.cls-61,.cls-62,.cls-63,.cls-64,.cls-65,.cls-66,.cls-67,.cls-68,.cls-69,.cls-70,.cls-71,.cls-72,.cls-73,.cls-74,.cls-75,.cls-76,.cls-77,.cls-78,.cls-79,.cls-80,.cls-81,.cls-82,.cls-83,.cls-84,.cls-85,.cls-86,.cls-87,.cls-88,.cls-89,.cls-90,.cls-91,.cls-92,.cls-93,.cls-94,.cls-95,.cls-96,.cls-97,.cls-98,.cls-99,.cls-100,.cls-101,.cls-102,.cls-103,.cls-104,.cls-105,.cls-106,.cls-107,.cls-108,.cls-109,.cls-110,.cls-111,.cls-112,.cls-113,.cls-114,.cls-115,.cls-116,.cls-117,.cls-118,.cls-119,.cls-120,.cls-121,.cls-122,.cls-123,.cls-124,.cls-125,.cls-126,.cls-127,.cls-128,.cls-129,.cls-130,.cls-131,.cls-132,.cls-133,.cls-134,.cls-135,.cls-136,.cls-137,.cls-138,.cls-139,.cls-140,.cls-141,.cls-142,.cls-143,.cls-144,.cls-145,.cls-146,.cls-147,.cls-148,.cls-149,.cls-150,.cls-151,.cls-152,.cls-153,.cls-154,.cls-155,.cls-156,.cls-157,.cls-158,.cls-159,.cls-160,.cls-161,.cls-162,.cls-163,.cls-164,.cls-165,.cls-166,.cls-167,.cls-168,.cls-169,.cls-170,.cls-171,.cls-172,.cls-173,.cls-174,.cls-175,.cls-176,.cls-177,.cls-178,.cls-179,.cls-180,.cls-181,.cls-182,.cls-183,.cls-184,.cls-185,.cls-186,.cls-187,.cls-188,.cls-189,.cls-190,.cls-191,.cls-192,.cls-193,.cls-194,.cls-195,.cls-196,.cls-197,.cls-198,.cls-199,.cls-200,.cls-201,.cls-202,.cls-203,.cls-204,.cls-205,.cls-206,.cls-207,.cls-208,.cls-209,.cls-210,.cls-211,.cls-212{stroke-width:0px;}.cls-2{fill:#eacd33;}.cls-3{fill:#f2d22e;}.cls-4{fill:#3e67aa;}.cls-5{fill:#8b9475;}.cls-6{fill:#2c5cb6;}.cls-7{fill:#54749b;}.cls-8{fill:#8f9772;}.cls-9{fill:#e5ca37;}.cls-10{fill:#4f719e;}.cls-11{fill:#4d6f9f;}.cls-12{fill:#4269a7;}.cls-13{fill:#3f67a9;}.cls-14{fill:#476ca4;}.cls-15{fill:#5e7a94;}.cls-16{fill:#879278;}.cls-17{fill:#929970;}.cls-18{fill:#667e8e;}.cls-19{fill:#efd030;}.cls-20{fill:#b2ac5a;}.cls-21{fill:#315fb3;}.cls-22{fill:#d1be45;}.cls-23{fill:#4068a8;}.cls-24{fill:#c0b450;}.cls-25{fill:#a6a562;}.cls-26{fill:#dcc53d;}.cls-27{fill:#e9cd34;}.cls-28{fill:#dec63c;}.cls-29{fill:#d5c142;}.cls-30{fill:#d9c33f;}.cls-31{fill:#6b818b;}.cls-32{fill:#889377;}.cls-33{fill:#cdbc47;}.cls-34{fill:#afaa5c;}.cls-35{fill:#3762af;}.cls-36{fill:#50719d;}.cls-37{fill:#d3bf43;}.cls-38{fill:#68808d;}.cls-39{fill:#2f5eb4;}.cls-40{fill:#5a7796;}.cls-41{fill:#2457bc;}.cls-42{fill:#cbbb49;}.cls-43{fill:#6d8389;}.cls-44{fill:#2256bd;}.cls-45{fill:#ccbb48;}.cls-46{fill:#919871;}.cls-47{fill:#e7cb36;}.cls-48{fill:#4a6ea1;}.cls-49{fill:#8a9475;}.cls-50{fill:#6a818b;}.cls-51{fill:#aba85f;}.cls-52{fill:#2759ba;}.cls-53{fill:#b8af56;}.cls-54{fill:#9a9d6a;}.cls-55{fill:#e2c839;}.cls-56{fill:#627c91;}.cls-57{fill:#b0ab5b;}.cls-58{fill:#979c6d;}.cls-59{fill:#2a5bb7;}.cls-60{fill:#5d7994;}.cls-61{fill:#3964ad;}.cls-62{fill:#718587;}.cls-63{fill:#567599;}.cls-64{fill:#969b6d;}.cls-65{fill:#9c9f69;}.cls-66{fill:#e6cb36;}.cls-67{fill:#a9a660;}.cls-68{fill:#edcf31;}.cls-69{fill:#587698;}.cls-70{fill:#949a6f;}.cls-71{fill:#dfc73b;}.cls-72{fill:#53739b;}.cls-73{fill:#4c6fa0;}.cls-74{fill:#a4a364;}.cls-75{fill:#cfbd46;}.cls-76{fill:#c9ba4a;}.cls-77{fill:#f1d12f;}.cls-78{fill:#51729d;}.cls-79{fill:#7f8d7d;}.cls-80{fill:#4168a8;}.cls-81{fill:#758784;}.cls-82{fill:#a0a166;}.cls-83{fill:#d6c141;}.cls-84{fill:#ebce33;}.cls-85{fill:#647d90;}.cls-86{fill:#2356bc;}.cls-87{fill:#8c9574;}.cls-88{fill:#beb352;}.cls-89{fill:#989c6c;}.cls-90{fill:#d2bf44;}.cls-91{fill:#5c7895;}.cls-92{fill:#6c828a;}.cls-93{fill:#2d5cb5;}.cls-94{fill:#aea95d;}.cls-95{fill:#b9b055;}.cls-96{fill:#2155be;}.cls-97{fill:#c5b74d;}.cls-98{fill:#bfb451;}.cls-99{fill:#959a6e;}.cls-100{fill:#b5ae58;}.cls-101{fill:#dac43e;}.cls-102{fill:#84907a;}.cls-103{fill:#e3c938;}.cls-104{fill:#e4ca38;}.cls-105{fill:#a8a661;}.cls-106{fill:#e8cc35;}.cls-107{fill:#788982;}.cls-108{fill:#bbb154;}.cls-109{fill:#6f8488;}.cls-110{fill:#859179;}.cls-111{fill:#3360b1;}.cls-112{fill:#c3b64e;}.cls-113{fill:#d0be45;}.cls-114{fill:#d8c240;}.cls-115{fill:#2558bb;}.cls-116{fill:#909771;}.cls-117{fill:#d7c241;}.cls-118{fill:#caba49;}.cls-119{fill:#808e7c;}.cls-120{fill:#6e8389;}.cls-121{fill:#4e709f;}.cls-122{fill:#4b6ea1;}.cls-123{fill:#b6ae57;}.cls-124{fill:#dbc43e;}.cls-125{fill:#657e8f;}.cls-126{fill:#597797;}.cls-127{fill:#ecce32;}.cls-128{fill:#83907a;}.cls-129{fill:#c7b84c;}.cls-130{fill:#52729c;}.cls-131{fill:#4369a6;}.cls-132{fill:#c8b94b;}.cls-133{fill:#c6b84c;}.cls-134{fill:#708487;}.cls-135{fill:#aca85e;}.cls-136{fill:#9b9e6a;}.cls-137{fill:#7a8a80;}.cls-138{fill:#55749a;}.cls-139{fill:#a5a463;}.cls-140{fill:#2e5db5;}.cls-141{fill:#3863ae;}.cls-142{fill:#3461b1;}.cls-143{fill:#e1c83a;}.cls-144{fill:#cebd47;}.cls-145{fill:#9ea068;}.cls-146{fill:#f0d12f;}.cls-147{fill:#a3a364;}.cls-148{fill:#728686;}.cls-149{fill:#8e9673;}.cls-150{fill:#9d9f68;}.cls-151{fill:#7e8d7e;}.cls-152{fill:#5b7896;}.cls-153{fill:#9fa067;}.cls-154{fill:#93996f;}.cls-155{fill:#869278;}.cls-156{fill:#bab154;}.cls-157{fill:#8d9673;}.cls-158{fill:#7c8c7f;}.cls-159{fill:#aaa75f;}.cls-160{fill:#7b8b80;}.cls-161{fill:#305eb3;}.cls-162{fill:#828f7b;}.cls-163{fill:#999d6b;}.cls-164{fill:#3561b0;}.cls-165{fill:#e0c73a;}.cls-166{fill:#b7af57;}.cls-167{fill:#3d66aa;}.cls-168{fill:#466ba4;}.cls-169{fill:#eed031;}.cls-170{fill:#496da2;}.cls-171{fill:#446aa6;}.cls-172{fill:#607b92;}.cls-173{fill:#bcb253;}.cls-174{fill:#ada95d;}.cls-175{fill:#738685;}.cls-176{fill:#7d8c7e;}.cls-177{fill:#677f8e;}.cls-178{fill:#bdb252;}.cls-179{fill:#3b65ac;}.cls-180{fill:#899376;}.cls-181{fill:#818f7c;}.cls-182{fill:#c1b550;}.cls-183{fill:#486ca3;}.cls-184{fill:#a7a562;}.cls-185{fill:#c2b54f;}.cls-186{fill:#637d90;}.cls-187{fill:#325fb2;}.cls-188{fill:#577599;}.cls-189{fill:#a1a266;}.cls-190{fill:#3c65ab;}.cls-191{fill:#768883;}.cls-192{fill:#798a81;}.cls-193{fill:#c4b74e;}.cls-194{fill:#3662af;}.cls-195{fill:#b3ac59;}.cls-196{fill:#5f7a93;}.cls-197{fill:#295ab8;}.cls-198{fill:#2b5bb7;}.cls-199{fill:#617b92;}.cls-200{fill:#2658ba;}.cls-201{fill:#3a64ac;}.cls-202{fill:#d4c043;}.cls-203{fill:#778983;}.cls-204{fill:#2859b9;}.cls-205{fill:#ddc53c;}.cls-206{fill:#1f54bf;}.cls-207{fill:#748785;}.cls-208{fill:#b4ad59;}.cls-209{fill:#2055be;}.cls-210{fill:#69808c;}.cls-211{fill:#b1ab5b;}.cls-212{fill:#a2a265;}</style></defs><g id="Layer_1-2"><path class="cls-3" d="M102,44.71c-31.59,0-57.29,25.7-57.29,57.29s25.7,57.29,57.29,57.29,57.29-25.7,57.29-57.29-25.7-57.29-57.29-57.29ZM102,160c-31.98,0-58-26.02-58-58s26.02-58,58-58,58,26.02,58,58-26.02,58-58,58Z"/><path class="cls-77" d="M102,44.5c-31.71,0-57.5,25.79-57.5,57.5s25.79,57.5,57.5,57.5,57.5-25.79,57.5-57.5-25.79-57.5-57.5-57.5ZM102,160.21c-32.1,0-58.21-26.11-58.21-58.21s26.11-58.21,58.21-58.21,58.21,26.11,58.21,58.21-26.11,58.21-58.21,58.21Z"/><path class="cls-146" d="M102,44.29c-31.82,0-57.71,25.89-57.71,57.71s25.89,57.71,57.71,57.71,57.71-25.89,57.71-57.71-25.89-57.71-57.71-57.71ZM102,160.42c-32.21,0-58.42-26.21-58.42-58.42s26.21-58.42,58.42-58.42,58.42,26.21,58.42,58.42-26.21,58.42-58.42,58.42Z"/><path class="cls-19" d="M102,44.09c-31.93,0-57.91,25.98-57.91,57.91s25.98,57.91,57.91,57.91,57.91-25.98,57.91-57.91-25.98-57.91-57.91-57.91ZM102,160.63c-32.33,0-58.63-26.3-58.63-58.63s26.3-58.63,58.63-58.63,58.63,26.3,58.63,58.63-26.3,58.63-58.63,58.63Z"/><path class="cls-169" d="M102,43.88c-32.05,0-58.12,26.07-58.12,58.12s26.07,58.12,58.12,58.12,58.12-26.07,58.12-58.12-26.07-58.12-58.12-58.12ZM102,160.83c-32.44,0-58.83-26.39-58.83-58.83s26.39-58.83,58.83-58.83,58.83,26.39,58.83,58.83-26.39,58.83-58.83,58.83Z"/><path class="cls-68" d="M102,43.67c-32.16,0-58.33,26.17-58.33,58.33s26.17,58.33,58.33,58.33,58.33-26.17,58.33-58.33-26.17-58.33-58.33-58.33ZM102,161.04c-32.56,0-59.04-26.49-59.04-59.04s26.49-59.04,59.04-59.04,59.04,26.49,59.04,59.04-26.49,59.04-59.04,59.04Z"/><path class="cls-127" d="M102,43.46c-32.28,0-58.54,26.26-58.54,58.54s26.26,58.54,58.54,58.54,58.54-26.26,58.54-58.54-26.26-58.54-58.54-58.54ZM102,161.25c-32.67,0-59.25-26.58-59.25-59.25s26.58-59.25,59.25-59.25,59.25,26.58,59.25,59.25-26.58,59.25-59.25,59.25Z"/><path class="cls-84" d="M102,43.26c-32.39,0-58.74,26.35-58.74,58.74s26.35,58.74,58.74,58.74,58.74-26.35,58.74-58.74-26.35-58.74-58.74-58.74ZM102,161.46c-32.79,0-59.46-26.67-59.46-59.46s26.67-59.46,59.46-59.46,59.46,26.67,59.46,59.46-26.67,59.46-59.46,59.46Z"/><path class="cls-2" d="M102,43.05c-32.51,0-58.95,26.45-58.95,58.95s26.44,58.95,58.95,58.95,58.95-26.45,58.95-58.95-26.44-58.95-58.95-58.95ZM102,161.67c-32.9,0-59.67-26.77-59.67-59.67s26.77-59.67,59.67-59.67,59.67,26.77,59.67,59.67-26.77,59.67-59.67,59.67Z"/><path class="cls-27" d="M102,42.84c-32.62,0-59.16,26.54-59.16,59.16s26.54,59.16,59.16,59.16,59.16-26.54,59.16-59.16-26.54-59.16-59.16-59.16ZM102,161.88c-33.02,0-59.88-26.86-59.88-59.88s26.86-59.88,59.88-59.88,59.88,26.86,59.88,59.88-26.86,59.88-59.88,59.88Z"/><path class="cls-106" d="M102,42.64c-32.73,0-59.36,26.63-59.36,59.36s26.63,59.36,59.36,59.36,59.36-26.63,59.36-59.36-26.63-59.36-59.36-59.36ZM102,162.09c-33.13,0-60.09-26.95-60.09-60.09s26.95-60.09,60.09-60.09,60.09,26.95,60.09,60.09-26.95,60.09-60.09,60.09Z"/><path class="cls-47" d="M102,42.43c-32.85,0-59.57,26.72-59.57,59.57s26.72,59.57,59.57,59.57,59.57-26.72,59.57-59.57-26.72-59.57-59.57-59.57ZM102,162.29c-33.25,0-60.29-27.05-60.29-60.29s27.05-60.29,60.29-60.29,60.29,27.05,60.29,60.29-27.05,60.29-60.29,60.29Z"/><path class="cls-66" d="M102,42.22c-32.96,0-59.78,26.82-59.78,59.78s26.82,59.78,59.78,59.78,59.78-26.82,59.78-59.78-26.82-59.78-59.78-59.78ZM102,162.5c-33.36,0-60.5-27.14-60.5-60.5s27.14-60.5,60.5-60.5,60.5,27.14,60.5,60.5-27.14,60.5-60.5,60.5Z"/><path class="cls-9" d="M102,42.01c-33.08,0-59.99,26.91-59.99,59.99s26.91,59.99,59.99,59.99,59.99-26.91,59.99-59.99-26.91-59.99-59.99-59.99ZM102,162.71c-33.48,0-60.71-27.23-60.71-60.71s27.23-60.71,60.71-60.71,60.71,27.23,60.71,60.71-27.23,60.71-60.71,60.71Z"/><path class="cls-104" d="M102,41.81c-33.19,0-60.19,27-60.19,60.19s27,60.19,60.19,60.19,60.19-27,60.19-60.19-27-60.19-60.19-60.19ZM102,162.92c-33.59,0-60.92-27.33-60.92-60.92s27.33-60.92,60.92-60.92,60.92,27.33,60.92,60.92-27.33,60.92-60.92,60.92Z"/><path class="cls-103" d="M102,41.6c-33.3,0-60.4,27.1-60.4,60.4s27.1,60.4,60.4,60.4,60.4-27.1,60.4-60.4-27.1-60.4-60.4-60.4ZM102,163.13c-33.71,0-61.13-27.42-61.13-61.13s27.42-61.13,61.13-61.13,61.13,27.42,61.13,61.13-27.42,61.13-61.13,61.13Z"/><path class="cls-55" d="M102,41.39c-33.42,0-60.61,27.19-60.61,60.61s27.19,60.61,60.61,60.61,60.61-27.19,60.61-60.61-27.19-60.61-60.61-60.61ZM102,163.34c-33.82,0-61.34-27.52-61.34-61.34s27.52-61.34,61.34-61.34,61.34,27.52,61.34,61.34-27.52,61.34-61.34,61.34Z"/><path class="cls-143" d="M102,41.19c-33.53,0-60.81,27.28-60.81,60.81s27.28,60.81,60.81,60.81,60.81-27.28,60.81-60.81-27.28-60.81-60.81-60.81ZM102,163.55c-33.94,0-61.55-27.61-61.55-61.55s27.61-61.55,61.55-61.55,61.55,27.61,61.55,61.55-27.61,61.55-61.55,61.55Z"/><path class="cls-165" d="M102,40.98c-33.65,0-61.02,27.37-61.02,61.02s27.37,61.02,61.02,61.02,61.02-27.37,61.02-61.02-27.37-61.02-61.02-61.02ZM102,163.75c-34.05,0-61.75-27.7-61.75-61.75s27.7-61.75,61.75-61.75,61.75,27.7,61.75,61.75-27.7,61.75-61.75,61.75Z"/><path class="cls-71" d="M102,40.77c-33.76,0-61.23,27.47-61.23,61.23s27.47,61.23,61.23,61.23,61.23-27.47,61.23-61.23-27.47-61.23-61.23-61.23ZM102,163.96c-34.17,0-61.96-27.8-61.96-61.96s27.8-61.96,61.96-61.96,61.96,27.8,61.96,61.96-27.8,61.96-61.96,61.96Z"/><path class="cls-28" d="M102,40.56c-33.88,0-61.44,27.56-61.44,61.44s27.56,61.44,61.44,61.44,61.44-27.56,61.44-61.44-27.56-61.44-61.44-61.44ZM102,164.17c-34.28,0-62.17-27.89-62.17-62.17s27.89-62.17,62.17-62.17,62.17,27.89,62.17,62.17-27.89,62.17-62.17,62.17Z"/><path class="cls-205" d="M102,40.36c-33.99,0-61.64,27.65-61.64,61.64s27.65,61.64,61.64,61.64,61.64-27.65,61.64-61.64-27.65-61.64-61.64-61.64ZM102,164.38c-34.4,0-62.38-27.98-62.38-62.38s27.98-62.38,62.38-62.38,62.38,27.98,62.38,62.38-27.98,62.38-62.38,62.38Z"/><path class="cls-26" d="M102,40.15c-34.1,0-61.85,27.75-61.85,61.85s27.75,61.85,61.85,61.85,61.85-27.75,61.85-61.85-27.75-61.85-61.85-61.85ZM102,164.59c-34.51,0-62.59-28.08-62.59-62.59s28.08-62.59,62.59-62.59,62.59,28.08,62.59,62.59-28.08,62.59-62.59,62.59Z"/><path class="cls-124" d="M102,39.94c-34.22,0-62.06,27.84-62.06,62.06s27.84,62.06,62.06,62.06,62.06-27.84,62.06-62.06-27.84-62.06-62.06-62.06ZM102,164.8c-34.63,0-62.8-28.17-62.8-62.8s28.17-62.8,62.8-62.8,62.8,28.17,62.8,62.8-28.17,62.8-62.8,62.8Z"/><path class="cls-101" d="M102,39.74c-34.33,0-62.26,27.93-62.26,62.26s27.93,62.26,62.26,62.26,62.26-27.93,62.26-62.26-27.93-62.26-62.26-62.26ZM102,165c-34.74,0-63-28.26-63-63s28.26-63,63-63,63,28.26,63,63-28.26,63-63,63Z"/><path class="cls-30" d="M102,39.53c-34.45,0-62.47,28.02-62.47,62.47s28.02,62.47,62.47,62.47,62.47-28.02,62.47-62.47-28.02-62.47-62.47-62.47ZM102,165.21c-34.86,0-63.21-28.36-63.21-63.21s28.36-63.21,63.21-63.21,63.21,28.36,63.21,63.21-28.36,63.21-63.21,63.21Z"/><path class="cls-114" d="M102,39.32c-34.56,0-62.68,28.12-62.68,62.68s28.12,62.68,62.68,62.68,62.68-28.12,62.68-62.68-28.12-62.68-62.68-62.68ZM102,165.42c-34.97,0-63.42-28.45-63.42-63.42s28.45-63.42,63.42-63.42,63.42,28.45,63.42,63.42-28.45,63.42-63.42,63.42Z"/><path class="cls-117" d="M102,39.11c-34.68,0-62.89,28.21-62.89,62.89s28.21,62.89,62.89,62.89,62.89-28.21,62.89-62.89-28.21-62.89-62.89-62.89ZM102,165.63c-35.09,0-63.63-28.54-63.63-63.63s28.54-63.63,63.63-63.63,63.63,28.54,63.63,63.63-28.54,63.63-63.63,63.63Z"/><path class="cls-83" d="M102,38.91c-34.79,0-63.09,28.3-63.09,63.09s28.3,63.09,63.09,63.09,63.09-28.3,63.09-63.09-28.3-63.09-63.09-63.09ZM102,165.84c-35.2,0-63.84-28.64-63.84-63.84s28.64-63.84,63.84-63.84,63.84,28.64,63.84,63.84-28.64,63.84-63.84,63.84Z"/><path class="cls-29" d="M102,38.7c-34.9,0-63.3,28.4-63.3,63.3s28.4,63.3,63.3,63.3,63.3-28.4,63.3-63.3-28.4-63.3-63.3-63.3ZM102,166.05c-35.32,0-64.05-28.73-64.05-64.05s28.73-64.05,64.05-64.05,64.05,28.73,64.05,64.05-28.73,64.05-64.05,64.05Z"/><path class="cls-202" d="M102,38.49c-35.02,0-63.51,28.49-63.51,63.51s28.49,63.51,63.51,63.51,63.51-28.49,63.51-63.51-28.49-63.51-63.51-63.51ZM102,166.26c-35.43,0-64.26-28.83-64.26-64.26s28.83-64.26,64.26-64.26,64.26,28.83,64.26,64.26-28.83,64.26-64.26,64.26Z"/><path class="cls-37" d="M102,38.29c-35.13,0-63.71,28.58-63.71,63.71s28.58,63.71,63.71,63.71,63.71-28.58,63.71-63.71-28.58-63.71-63.71-63.71ZM102,166.46c-35.55,0-64.46-28.92-64.46-64.46s28.92-64.46,64.46-64.46,64.46,28.92,64.46,64.46-28.92,64.46-64.46,64.46Z"/><path class="cls-90" d="M102,38.08c-35.25,0-63.92,28.68-63.92,63.92s28.67,63.92,63.92,63.92,63.92-28.68,63.92-63.92-28.67-63.92-63.92-63.92ZM102,166.67c-35.66,0-64.67-29.01-64.67-64.67s29.01-64.67,64.67-64.67,64.67,29.01,64.67,64.67-29.01,64.67-64.67,64.67Z"/><path class="cls-22" d="M102,37.87c-35.36,0-64.13,28.77-64.13,64.13s28.77,64.13,64.13,64.13,64.13-28.77,64.13-64.13-28.77-64.13-64.13-64.13ZM102,166.88c-35.78,0-64.88-29.11-64.88-64.88s29.11-64.88,64.88-64.88,64.88,29.11,64.88,64.88-29.11,64.88-64.88,64.88Z"/><path class="cls-113" d="M102,37.66c-35.47,0-64.34,28.86-64.34,64.34s28.86,64.34,64.34,64.34,64.34-28.86,64.34-64.34-28.86-64.34-64.34-64.34ZM102,167.09c-35.89,0-65.09-29.2-65.09-65.09s29.2-65.09,65.09-65.09,65.09,29.2,65.09,65.09-29.2,65.09-65.09,65.09Z"/><path class="cls-75" d="M102,37.46c-35.59,0-64.54,28.95-64.54,64.54s28.95,64.54,64.54,64.54,64.54-28.95,64.54-64.54-28.95-64.54-64.54-64.54ZM102,167.3c-36.01,0-65.3-29.29-65.3-65.3s29.29-65.3,65.3-65.3,65.3,29.29,65.3,65.3-29.29,65.3-65.3,65.3Z"/><path class="cls-144" d="M102,37.25c-35.7,0-64.75,29.05-64.75,64.75s29.05,64.75,64.75,64.75,64.75-29.05,64.75-64.75-29.05-64.75-64.75-64.75ZM102,167.51c-36.12,0-65.51-29.39-65.51-65.51s29.39-65.51,65.51-65.51,65.51,29.39,65.51,65.51-29.39,65.51-65.51,65.51Z"/><path class="cls-33" d="M102,37.04c-35.82,0-64.96,29.14-64.96,64.96s29.14,64.96,64.96,64.96,64.96-29.14,64.96-64.96-29.14-64.96-64.96-64.96ZM102,167.72c-36.24,0-65.72-29.48-65.72-65.72s29.48-65.72,65.72-65.72,65.72,29.48,65.72,65.72-29.48,65.72-65.72,65.72Z"/><path class="cls-45" d="M102,36.84c-35.93,0-65.16,29.23-65.16,65.16s29.23,65.16,65.16,65.16,65.16-29.23,65.16-65.16-29.23-65.16-65.16-65.16ZM102,167.92c-36.35,0-65.92-29.57-65.92-65.92s29.57-65.92,65.92-65.92,65.92,29.57,65.92,65.92-29.57,65.92-65.92,65.92Z"/><path class="cls-42" d="M102,36.63c-36.05,0-65.37,29.33-65.37,65.37s29.33,65.37,65.37,65.37,65.37-29.33,65.37-65.37-29.33-65.37-65.37-65.37ZM102,168.13c-36.47,0-66.13-29.67-66.13-66.13s29.67-66.13,66.13-66.13,66.13,29.67,66.13,66.13-29.67,66.13-66.13,66.13Z"/><path class="cls-118" d="M102,36.42c-36.16,0-65.58,29.42-65.58,65.58s29.42,65.58,65.58,65.58,65.58-29.42,65.58-65.58-29.42-65.58-65.58-65.58ZM102,168.34c-36.58,0-66.34-29.76-66.34-66.34s29.76-66.34,66.34-66.34,66.34,29.76,66.34,66.34-29.76,66.34-66.34,66.34Z"/><path class="cls-76" d="M102,36.21c-36.27,0-65.79,29.51-65.79,65.79s29.51,65.79,65.79,65.79,65.79-29.51,65.79-65.79-29.51-65.79-65.79-65.79ZM102,168.55c-36.7,0-66.55-29.85-66.55-66.55s29.85-66.55,66.55-66.55,66.55,29.85,66.55,66.55-29.85,66.55-66.55,66.55Z"/><path class="cls-132" d="M102,36.01c-36.39,0-65.99,29.6-65.99,65.99s29.6,65.99,65.99,65.99,65.99-29.6,65.99-65.99-29.6-65.99-65.99-65.99ZM102,168.76c-36.81,0-66.76-29.95-66.76-66.76s29.95-66.76,66.76-66.76,66.76,29.95,66.76,66.76-29.95,66.76-66.76,66.76Z"/><path class="cls-129" d="M102,35.8c-36.5,0-66.2,29.7-66.2,66.2s29.7,66.2,66.2,66.2,66.2-29.7,66.2-66.2-29.7-66.2-66.2-66.2ZM102,168.97c-36.93,0-66.97-30.04-66.97-66.97s30.04-66.97,66.97-66.97,66.97,30.04,66.97,66.97-30.04,66.97-66.97,66.97Z"/><path class="cls-133" d="M102,35.59c-36.62,0-66.41,29.79-66.41,66.41s29.79,66.41,66.41,66.41,66.41-29.79,66.41-66.41-29.79-66.41-66.41-66.41ZM102,169.18c-37.04,0-67.18-30.13-67.18-67.18s30.13-67.18,67.18-67.18,67.18,30.13,67.18,67.18-30.13,67.18-67.18,67.18Z"/><path class="cls-97" d="M102,35.39c-36.73,0-66.61,29.88-66.61,66.61s29.88,66.61,66.61,66.61,66.61-29.88,66.61-66.61-29.88-66.61-66.61-66.61ZM102,169.38c-37.16,0-67.38-30.23-67.38-67.38s30.23-67.38,67.38-67.38,67.38,30.23,67.38,67.38-30.23,67.38-67.38,67.38Z"/><path class="cls-193" d="M102,35.18c-36.85,0-66.82,29.98-66.82,66.82s29.98,66.82,66.82,66.82,66.82-29.98,66.82-66.82-29.98-66.82-66.82-66.82ZM102,169.59c-37.27,0-67.59-30.32-67.59-67.59s30.32-67.59,67.59-67.59,67.59,30.32,67.59,67.59-30.32,67.59-67.59,67.59Z"/><path class="cls-112" d="M102,34.97c-36.96,0-67.03,30.07-67.03,67.03s30.07,67.03,67.03,67.03,67.03-30.07,67.03-67.03-30.07-67.03-67.03-67.03ZM102,169.8c-37.39,0-67.8-30.42-67.8-67.8s30.42-67.8,67.8-67.8,67.8,30.42,67.8,67.8-30.42,67.8-67.8,67.8Z"/><path class="cls-185" d="M102,34.76c-37.07,0-67.24,30.16-67.24,67.24s30.16,67.24,67.24,67.24,67.24-30.16,67.24-67.24-30.16-67.24-67.24-67.24ZM102,170.01c-37.5,0-68.01-30.51-68.01-68.01s30.51-68.01,68.01-68.01,68.01,30.51,68.01,68.01-30.51,68.01-68.01,68.01Z"/><path class="cls-182" d="M102,34.56c-37.19,0-67.44,30.25-67.44,67.44s30.25,67.44,67.44,67.44,67.44-30.25,67.44-67.44-30.25-67.44-67.44-67.44ZM102,170.22c-37.62,0-68.22-30.6-68.22-68.22s30.6-68.22,68.22-68.22,68.22,30.6,68.22,68.22-30.6,68.22-68.22,68.22Z"/><path class="cls-24" d="M102,34.35c-37.3,0-67.65,30.35-67.65,67.65s30.35,67.65,67.65,67.65,67.65-30.35,67.65-67.65-30.35-67.65-67.65-67.65ZM102,170.43c-37.73,0-68.43-30.7-68.43-68.43s30.7-68.43,68.43-68.43,68.43,30.7,68.43,68.43-30.7,68.43-68.43,68.43Z"/><path class="cls-98" d="M102,34.14c-37.42,0-67.86,30.44-67.86,67.86s30.44,67.86,67.86,67.86,67.86-30.44,67.86-67.86-30.44-67.86-67.86-67.86ZM102,170.64c-37.85,0-68.64-30.79-68.64-68.64s30.79-68.64,68.64-68.64,68.64,30.79,68.64,68.64-30.79,68.64-68.64,68.64Z"/><path class="cls-88" d="M102,33.94c-37.53,0-68.06,30.53-68.06,68.06s30.53,68.06,68.06,68.06,68.06-30.53,68.06-68.06-30.53-68.06-68.06-68.06ZM102,170.84c-37.96,0-68.84-30.88-68.84-68.84s30.88-68.84,68.84-68.84,68.84,30.88,68.84,68.84-30.88,68.84-68.84,68.84Z"/><path class="cls-178" d="M102,33.73c-37.64,0-68.27,30.63-68.27,68.27s30.63,68.27,68.27,68.27,68.27-30.63,68.27-68.27-30.63-68.27-68.27-68.27ZM102,171.05c-38.08,0-69.05-30.98-69.05-69.05S63.92,32.95,102,32.95s69.05,30.98,69.05,69.05-30.98,69.05-69.05,69.05Z"/><path class="cls-173" d="M102,33.52c-37.76,0-68.48,30.72-68.48,68.48s30.72,68.48,68.48,68.48,68.48-30.72,68.48-68.48-30.72-68.48-68.48-68.48ZM102,171.26c-38.19,0-69.26-31.07-69.26-69.26S63.81,32.74,102,32.74s69.26,31.07,69.26,69.26-31.07,69.26-69.26,69.26Z"/><path class="cls-108" d="M102,33.31c-37.87,0-68.69,30.81-68.69,68.69s30.81,68.69,68.69,68.69,68.69-30.81,68.69-68.69-30.81-68.69-68.69-68.69ZM102,171.47c-38.31,0-69.47-31.16-69.47-69.47S63.69,32.53,102,32.53s69.47,31.16,69.47,69.47-31.16,69.47-69.47,69.47Z"/><path class="cls-156" d="M102,33.11c-37.99,0-68.89,30.91-68.89,68.89s30.91,68.89,68.89,68.89,68.89-30.91,68.89-68.89-30.91-68.89-68.89-68.89ZM102,171.68c-38.42,0-69.68-31.26-69.68-69.68S63.58,32.32,102,32.32s69.68,31.26,69.68,69.68-31.26,69.68-69.68,69.68Z"/><path class="cls-95" d="M102,32.9c-38.1,0-69.1,31-69.1,69.1s31,69.1,69.1,69.1,69.1-31,69.1-69.1-31-69.1-69.1-69.1ZM102,171.89c-38.54,0-69.89-31.35-69.89-69.89S63.46,32.11,102,32.11s69.89,31.35,69.89,69.89-31.35,69.89-69.89,69.89Z"/><path class="cls-53" d="M102,32.69c-38.22,0-69.31,31.09-69.31,69.31s31.09,69.31,69.31,69.31,69.31-31.09,69.31-69.31-31.09-69.31-69.31-69.31ZM102,172.09c-38.65,0-70.09-31.44-70.09-70.09S63.35,31.91,102,31.91s70.09,31.44,70.09,70.09-31.44,70.09-70.09,70.09Z"/><path class="cls-166" d="M102,32.49c-38.33,0-69.51,31.18-69.51,69.51s31.18,69.51,69.51,69.51,69.51-31.18,69.51-69.51-31.18-69.51-69.51-69.51ZM102,172.3c-38.77,0-70.3-31.54-70.3-70.3S63.23,31.7,102,31.7s70.3,31.54,70.3,70.3-31.54,70.3-70.3,70.3Z"/><path class="cls-123" d="M102,32.28c-38.44,0-69.72,31.28-69.72,69.72s31.28,69.72,69.72,69.72,69.72-31.28,69.72-69.72-31.28-69.72-69.72-69.72ZM102,172.51c-38.88,0-70.51-31.63-70.51-70.51S63.12,31.49,102,31.49s70.51,31.63,70.51,70.51-31.63,70.51-70.51,70.51Z"/><path class="cls-100" d="M102,32.07c-38.56,0-69.93,31.37-69.93,69.93s31.37,69.93,69.93,69.93,69.93-31.37,69.93-69.93-31.37-69.93-69.93-69.93ZM102,172.72c-39,0-70.72-31.73-70.72-70.72S63,31.28,102,31.28s70.72,31.73,70.72,70.72-31.73,70.72-70.72,70.72Z"/><path class="cls-208" d="M102,31.86c-38.67,0-70.14,31.46-70.14,70.14s31.46,70.14,70.14,70.14,70.14-31.46,70.14-70.14S140.67,31.86,102,31.86ZM102,172.93c-39.11,0-70.93-31.82-70.93-70.93S62.89,31.07,102,31.07s70.93,31.82,70.93,70.93-31.82,70.93-70.93,70.93Z"/><path class="cls-195" d="M102,31.66c-38.79,0-70.34,31.56-70.34,70.34s31.56,70.34,70.34,70.34,70.34-31.56,70.34-70.34S140.79,31.66,102,31.66ZM102,173.14c-39.23,0-71.14-31.91-71.14-71.14S62.77,30.86,102,30.86s71.14,31.91,71.14,71.14-31.91,71.14-71.14,71.14Z"/><path class="cls-20" d="M102,31.45c-38.9,0-70.55,31.65-70.55,70.55s31.65,70.55,70.55,70.55,70.55-31.65,70.55-70.55S140.9,31.45,102,31.45ZM102,173.35c-39.34,0-71.35-32.01-71.35-71.35S62.66,30.65,102,30.65s71.35,32.01,71.35,71.35-32.01,71.35-71.35,71.35Z"/><path class="cls-211" d="M102,31.24c-39.02,0-70.76,31.74-70.76,70.76s31.74,70.76,70.76,70.76,70.76-31.74,70.76-70.76S141.02,31.24,102,31.24ZM102,173.55c-39.46,0-71.55-32.1-71.55-71.55S62.54,30.45,102,30.45s71.55,32.1,71.55,71.55-32.1,71.55-71.55,71.55Z"/><path class="cls-57" d="M102,31.04c-39.13,0-70.96,31.83-70.96,70.96s31.83,70.96,70.96,70.96,70.96-31.83,70.96-70.96S141.13,31.04,102,31.04ZM102,173.76c-39.57,0-71.76-32.19-71.76-71.76S62.43,30.24,102,30.24s71.76,32.19,71.76,71.76-32.19,71.76-71.76,71.76Z"/><path class="cls-34" d="M102,30.83c-39.24,0-71.17,31.93-71.17,71.17s31.93,71.17,71.17,71.17,71.17-31.93,71.17-71.17S141.24,30.83,102,30.83ZM102,173.97c-39.69,0-71.97-32.29-71.97-71.97S62.31,30.03,102,30.03s71.97,32.29,71.97,71.97-32.29,71.97-71.97,71.97Z"/><path class="cls-94" d="M102,30.62c-39.36,0-71.38,32.02-71.38,71.38s32.02,71.38,71.38,71.38,71.38-32.02,71.38-71.38S141.36,30.62,102,30.62ZM102,174.18c-39.8,0-72.18-32.38-72.18-72.18S62.2,29.82,102,29.82s72.18,32.38,72.18,72.18-32.38,72.18-72.18,72.18Z"/><path class="cls-174" d="M102,30.41c-39.47,0-71.59,32.11-71.59,71.59s32.11,71.59,71.59,71.59,71.59-32.11,71.59-71.59S141.47,30.41,102,30.41ZM102,174.39c-39.92,0-72.39-32.47-72.39-72.39S62.08,29.61,102,29.61s72.39,32.47,72.39,72.39-32.47,72.39-72.39,72.39Z"/><path class="cls-135" d="M102,30.21c-39.59,0-71.79,32.21-71.79,71.79s32.21,71.79,71.79,71.79,71.79-32.21,71.79-71.79S141.59,30.21,102,30.21ZM102,174.6c-40.03,0-72.6-32.57-72.6-72.6S61.97,29.4,102,29.4s72.6,32.57,72.6,72.6-32.57,72.6-72.6,72.6Z"/><path class="cls-51" d="M102,30c-39.7,0-72,32.3-72,72s32.3,72,72,72,72-32.3,72-72S141.7,30,102,30ZM102,174.81c-40.15,0-72.81-32.66-72.81-72.81S61.85,29.19,102,29.19s72.81,32.66,72.81,72.81-32.66,72.81-72.81,72.81Z"/><path class="cls-159" d="M102,29.79c-39.82,0-72.21,32.39-72.21,72.21s32.39,72.21,72.21,72.21,72.21-32.39,72.21-72.21S141.82,29.79,102,29.79ZM102,175.01c-40.26,0-73.01-32.75-73.01-73.01S61.74,28.99,102,28.99s73.01,32.75,73.01,73.01-32.75,73.01-73.01,73.01Z"/><path class="cls-67" d="M102,29.59c-39.93,0-72.41,32.49-72.41,72.41s32.48,72.41,72.41,72.41,72.41-32.49,72.41-72.41S141.93,29.59,102,29.59ZM102,175.22c-40.38,0-73.22-32.85-73.22-73.22S61.62,28.78,102,28.78s73.22,32.85,73.22,73.22-32.85,73.22-73.22,73.22Z"/><path class="cls-105" d="M102,29.38c-40.04,0-72.62,32.58-72.62,72.62s32.58,72.62,72.62,72.62,72.62-32.58,72.62-72.62S142.04,29.38,102,29.38ZM102,175.43c-40.49,0-73.43-32.94-73.43-73.43S61.51,28.57,102,28.57s73.43,32.94,73.43,73.43-32.94,73.43-73.43,73.43Z"/><path class="cls-184" d="M102,29.17c-40.16,0-72.83,32.67-72.83,72.83s32.67,72.83,72.83,72.83,72.83-32.67,72.83-72.83S142.16,29.17,102,29.17ZM102,175.64c-40.61,0-73.64-33.03-73.64-73.64S61.39,28.36,102,28.36s73.64,33.03,73.64,73.64-33.03,73.64-73.64,73.64Z"/><path class="cls-25" d="M102,28.96c-40.27,0-73.04,32.76-73.04,73.04s32.76,73.04,73.04,73.04,73.04-32.76,73.04-73.04S142.27,28.96,102,28.96ZM102,175.85c-40.72,0-73.85-33.13-73.85-73.85S61.28,28.15,102,28.15s73.85,33.13,73.85,73.85-33.13,73.85-73.85,73.85Z"/><path class="cls-139" d="M102,28.76c-40.39,0-73.24,32.86-73.24,73.24s32.86,73.24,73.24,73.24,73.24-32.86,73.24-73.24S142.39,28.76,102,28.76ZM102,176.06c-40.84,0-74.06-33.22-74.06-74.06S61.16,27.94,102,27.94s74.06,33.22,74.06,74.06-33.22,74.06-74.06,74.06Z"/><path class="cls-74" d="M102,28.55c-40.5,0-73.45,32.95-73.45,73.45s32.95,73.45,73.45,73.45,73.45-32.95,73.45-73.45S142.5,28.55,102,28.55ZM102,176.27c-40.95,0-74.27-33.32-74.27-74.27S61.05,27.73,102,27.73s74.27,33.32,74.27,74.27-33.32,74.27-74.27,74.27Z"/><path class="cls-147" d="M102,28.34c-40.61,0-73.66,33.04-73.66,73.66s33.04,73.66,73.66,73.66,73.66-33.04,73.66-73.66S142.61,28.34,102,28.34ZM102,176.47c-41.07,0-74.47-33.41-74.47-74.47S60.93,27.53,102,27.53s74.47,33.41,74.47,74.47-33.41,74.47-74.47,74.47Z"/><path class="cls-212" d="M102,28.14c-40.73,0-73.86,33.14-73.86,73.86s33.14,73.86,73.86,73.86,73.86-33.14,73.86-73.86S142.73,28.14,102,28.14ZM102,176.68c-41.18,0-74.68-33.5-74.68-74.68S60.82,27.32,102,27.32s74.68,33.5,74.68,74.68-33.5,74.68-74.68,74.68Z"/><path class="cls-189" d="M102,27.93c-40.84,0-74.07,33.23-74.07,74.07s33.23,74.07,74.07,74.07,74.07-33.23,74.07-74.07S142.84,27.93,102,27.93ZM102,176.89c-41.3,0-74.89-33.6-74.89-74.89S60.7,27.11,102,27.11s74.89,33.6,74.89,74.89-33.6,74.89-74.89,74.89Z"/><path class="cls-82" d="M102,27.72c-40.96,0-74.28,33.32-74.28,74.28s33.32,74.28,74.28,74.28,74.28-33.32,74.28-74.28S142.96,27.72,102,27.72ZM102,177.1c-41.41,0-75.1-33.69-75.1-75.1S60.59,26.9,102,26.9s75.1,33.69,75.1,75.1-33.69,75.1-75.1,75.1Z"/><path class="cls-153" d="M102,27.51c-41.07,0-74.49,33.41-74.49,74.49s33.41,74.49,74.49,74.49,74.49-33.41,74.49-74.49S143.07,27.51,102,27.51ZM102,177.31c-41.53,0-75.31-33.78-75.31-75.31S60.47,26.69,102,26.69s75.31,33.78,75.31,75.31-33.78,75.31-75.31,75.31Z"/><path class="cls-145" d="M102,27.31c-41.19,0-74.69,33.51-74.69,74.69s33.51,74.69,74.69,74.69,74.69-33.51,74.69-74.69S143.19,27.31,102,27.31ZM102,177.52c-41.64,0-75.52-33.88-75.52-75.52S60.36,26.48,102,26.48s75.52,33.88,75.52,75.52-33.88,75.52-75.52,75.52Z"/><path class="cls-150" d="M102,27.1c-41.3,0-74.9,33.6-74.9,74.9s33.6,74.9,74.9,74.9,74.9-33.6,74.9-74.9S143.3,27.1,102,27.1ZM102,177.73c-41.75,0-75.73-33.97-75.73-75.73S60.25,26.27,102,26.27s75.73,33.97,75.73,75.73-33.97,75.73-75.73,75.73Z"/><path class="cls-65" d="M102,26.89c-41.41,0-75.11,33.69-75.11,75.11s33.69,75.11,75.11,75.11,75.11-33.69,75.11-75.11S143.41,26.89,102,26.89ZM102,177.93c-41.87,0-75.93-34.06-75.93-75.93S60.13,26.07,102,26.07s75.93,34.06,75.93,75.93-34.06,75.93-75.93,75.93Z"/><path class="cls-136" d="M102,26.69c-41.53,0-75.31,33.79-75.31,75.31s33.79,75.31,75.31,75.31,75.31-33.79,75.31-75.31S143.53,26.69,102,26.69ZM102,178.14c-41.98,0-76.14-34.16-76.14-76.14S60.02,25.86,102,25.86s76.14,34.16,76.14,76.14-34.16,76.14-76.14,76.14Z"/><path class="cls-54" d="M102,26.48c-41.64,0-75.52,33.88-75.52,75.52s33.88,75.52,75.52,75.52,75.52-33.88,75.52-75.52S143.64,26.48,102,26.48ZM102,178.35c-42.1,0-76.35-34.25-76.35-76.35S59.9,25.65,102,25.65s76.35,34.25,76.35,76.35-34.25,76.35-76.35,76.35Z"/><path class="cls-163" d="M102,26.27c-41.76,0-75.73,33.97-75.73,75.73s33.97,75.73,75.73,75.73,75.73-33.97,75.73-75.73S143.76,26.27,102,26.27ZM102,178.56c-42.21,0-76.56-34.34-76.56-76.56S59.79,25.44,102,25.44s76.56,34.34,76.56,76.56-34.34,76.56-76.56,76.56Z"/><path class="cls-89" d="M102,26.06c-41.87,0-75.94,34.06-75.94,75.94s34.06,75.94,75.94,75.94,75.94-34.06,75.94-75.94S143.87,26.06,102,26.06ZM102,178.77c-42.33,0-76.77-34.44-76.77-76.77S59.67,25.23,102,25.23s76.77,34.44,76.77,76.77-34.44,76.77-76.77,76.77Z"/><path class="cls-58" d="M102,25.86c-41.99,0-76.14,34.16-76.14,76.14s34.16,76.14,76.14,76.14,76.14-34.16,76.14-76.14S143.99,25.86,102,25.86ZM102,178.98c-42.44,0-76.98-34.53-76.98-76.98S59.56,25.02,102,25.02s76.98,34.53,76.98,76.98-34.53,76.98-76.98,76.98Z"/><path class="cls-64" d="M102,25.65c-42.1,0-76.35,34.25-76.35,76.35s34.25,76.35,76.35,76.35,76.35-34.25,76.35-76.35S144.1,25.65,102,25.65ZM102,179.18c-42.56,0-77.18-34.62-77.18-77.18S59.44,24.82,102,24.82s77.18,34.62,77.18,77.18-34.62,77.18-77.18,77.18Z"/><path class="cls-99" d="M102,25.44c-42.21,0-76.56,34.34-76.56,76.56s34.34,76.56,76.56,76.56,76.56-34.34,76.56-76.56S144.21,25.44,102,25.44ZM102,179.39c-42.67,0-77.39-34.72-77.39-77.39S59.33,24.61,102,24.61s77.39,34.72,77.39,77.39-34.72,77.39-77.39,77.39Z"/><path class="cls-70" d="M102,25.24c-42.33,0-76.76,34.44-76.76,76.76s34.44,76.76,76.76,76.76,76.76-34.44,76.76-76.76S144.33,25.24,102,25.24ZM102,179.6c-42.79,0-77.6-34.81-77.6-77.6S59.21,24.4,102,24.4s77.6,34.81,77.6,77.6-34.81,77.6-77.6,77.6Z"/><path class="cls-154" d="M102,25.03c-42.44,0-76.97,34.53-76.97,76.97s34.53,76.97,76.97,76.97,76.97-34.53,76.97-76.97S144.44,25.03,102,25.03ZM102,179.81c-42.9,0-77.81-34.91-77.81-77.81S59.1,24.19,102,24.19s77.81,34.91,77.81,77.81-34.91,77.81-77.81,77.81Z"/><path class="cls-17" d="M102,24.82c-42.56,0-77.18,34.62-77.18,77.18s34.62,77.18,77.18,77.18,77.18-34.62,77.18-77.18S144.56,24.82,102,24.82ZM102,180.02c-43.02,0-78.02-35-78.02-78.02S58.98,23.98,102,23.98s78.02,35,78.02,78.02-35,78.02-78.02,78.02Z"/><path class="cls-46" d="M102,24.61c-42.67,0-77.39,34.72-77.39,77.39s34.72,77.39,77.39,77.39,77.39-34.72,77.39-77.39S144.67,24.61,102,24.61ZM102,180.23c-43.13,0-78.23-35.09-78.23-78.23S58.87,23.77,102,23.77s78.23,35.09,78.23,78.23-35.09,78.23-78.23,78.23Z"/><path class="cls-116" d="M102,24.41c-42.78,0-77.59,34.81-77.59,77.59s34.81,77.59,77.59,77.59,77.59-34.81,77.59-77.59S144.78,24.41,102,24.41ZM102,180.44c-43.25,0-78.44-35.19-78.44-78.44S58.75,23.56,102,23.56s78.44,35.19,78.44,78.44-35.19,78.44-78.44,78.44Z"/><path class="cls-8" d="M102,24.2c-42.9,0-77.8,34.9-77.8,77.8s34.9,77.8,77.8,77.8,77.8-34.9,77.8-77.8S144.9,24.2,102,24.2ZM102,180.64c-43.36,0-78.64-35.28-78.64-78.64S58.64,23.36,102,23.36s78.64,35.28,78.64,78.64-35.28,78.64-78.64,78.64Z"/><path class="cls-149" d="M102,23.99c-43.01,0-78.01,34.99-78.01,78.01s34.99,78.01,78.01,78.01,78.01-34.99,78.01-78.01S145.01,23.99,102,23.99ZM102,180.85c-43.48,0-78.85-35.37-78.85-78.85S58.52,23.15,102,23.15s78.85,35.37,78.85,78.85-35.37,78.85-78.85,78.85Z"/><path class="cls-157" d="M102,23.79c-43.13,0-78.21,35.09-78.21,78.21s35.09,78.21,78.21,78.21,78.21-35.09,78.21-78.21S145.13,23.79,102,23.79ZM102,181.06c-43.59,0-79.06-35.47-79.06-79.06S58.41,22.94,102,22.94s79.06,35.47,79.06,79.06-35.47,79.06-79.06,79.06Z"/><path class="cls-87" d="M102,23.58c-43.24,0-78.42,35.18-78.42,78.42s35.18,78.42,78.42,78.42,78.42-35.18,78.42-78.42S145.24,23.58,102,23.58ZM102,181.27c-43.71,0-79.27-35.56-79.27-79.27S58.29,22.73,102,22.73s79.27,35.56,79.27,79.27-35.56,79.27-79.27,79.27Z"/><path class="cls-5" d="M102,23.37c-43.36,0-78.63,35.27-78.63,78.63s35.27,78.63,78.63,78.63,78.63-35.27,78.63-78.63S145.36,23.37,102,23.37ZM102,181.48c-43.82,0-79.48-35.65-79.48-79.48S58.18,22.52,102,22.52s79.48,35.65,79.48,79.48-35.65,79.48-79.48,79.48Z"/><path class="cls-49" d="M102,23.16c-43.47,0-78.84,35.37-78.84,78.84s35.37,78.84,78.84,78.84,78.84-35.37,78.84-78.84S145.47,23.16,102,23.16ZM102,181.69c-43.94,0-79.69-35.75-79.69-79.69S58.06,22.31,102,22.31s79.69,35.75,79.69,79.69-35.75,79.69-79.69,79.69Z"/><path class="cls-180" d="M102,22.96c-43.58,0-79.04,35.46-79.04,79.04s35.46,79.04,79.04,79.04,79.04-35.46,79.04-79.04S145.58,22.96,102,22.96ZM102,181.9c-44.05,0-79.9-35.84-79.9-79.9S57.95,22.1,102,22.1s79.9,35.84,79.9,79.9-35.84,79.9-79.9,79.9Z"/><path class="cls-32" d="M102,22.75c-43.7,0-79.25,35.55-79.25,79.25s35.55,79.25,79.25,79.25,79.25-35.55,79.25-79.25S145.7,22.75,102,22.75ZM102,182.1c-44.17,0-80.1-35.93-80.1-80.1S57.83,21.9,102,21.9s80.1,35.93,80.1,80.1-35.93,80.1-80.1,80.1Z"/><path class="cls-16" d="M102,22.54c-43.81,0-79.46,35.64-79.46,79.46s35.64,79.46,79.46,79.46,79.46-35.64,79.46-79.46S145.81,22.54,102,22.54ZM102,182.31c-44.28,0-80.31-36.03-80.31-80.31S57.72,21.69,102,21.69s80.31,36.03,80.31,80.31-36.03,80.31-80.31,80.31Z"/><path class="cls-155" d="M102,22.34c-43.93,0-79.66,35.74-79.66,79.66s35.74,79.66,79.66,79.66,79.66-35.74,79.66-79.66S145.93,22.34,102,22.34ZM102,182.52c-44.4,0-80.52-36.12-80.52-80.52S57.6,21.48,102,21.48s80.52,36.12,80.52,80.52-36.12,80.52-80.52,80.52Z"/><path class="cls-110" d="M102,22.13c-44.04,0-79.87,35.83-79.87,79.87s35.83,79.87,79.87,79.87,79.87-35.83,79.87-79.87S146.04,22.13,102,22.13ZM102,182.73c-44.51,0-80.73-36.22-80.73-80.73S57.49,21.27,102,21.27s80.73,36.22,80.73,80.73-36.22,80.73-80.73,80.73Z"/><path class="cls-102" d="M102,21.92c-44.16,0-80.08,35.92-80.08,80.08s35.92,80.08,80.08,80.08,80.08-35.92,80.08-80.08S146.16,21.92,102,21.92ZM102,182.94c-44.63,0-80.94-36.31-80.94-80.94S57.37,21.06,102,21.06s80.94,36.31,80.94,80.94-36.31,80.94-80.94,80.94Z"/><path class="cls-128" d="M102,21.71c-44.27,0-80.29,36.02-80.29,80.29s36.02,80.29,80.29,80.29,80.29-36.02,80.29-80.29S146.27,21.71,102,21.71ZM102,183.15c-44.74,0-81.15-36.4-81.15-81.15S57.26,20.85,102,20.85s81.15,36.4,81.15,81.15-36.4,81.15-81.15,81.15Z"/><path class="cls-162" d="M102,21.51c-44.38,0-80.49,36.11-80.49,80.49s36.11,80.49,80.49,80.49,80.49-36.11,80.49-80.49S146.38,21.51,102,21.51ZM102,183.36c-44.86,0-81.36-36.5-81.36-81.36S57.14,20.64,102,20.64s81.36,36.5,81.36,81.36-36.5,81.36-81.36,81.36Z"/><path class="cls-181" d="M102,21.3c-44.5,0-80.7,36.2-80.7,80.7s36.2,80.7,80.7,80.7,80.7-36.2,80.7-80.7S146.5,21.3,102,21.3ZM102,183.56c-44.97,0-81.56-36.59-81.56-81.56S57.03,20.44,102,20.44s81.56,36.59,81.56,81.56-36.59,81.56-81.56,81.56Z"/><path class="cls-119" d="M102,21.09c-44.61,0-80.91,36.3-80.91,80.91s36.29,80.91,80.91,80.91,80.91-36.3,80.91-80.91S146.61,21.09,102,21.09ZM102,183.77c-45.09,0-81.77-36.68-81.77-81.77S56.91,20.23,102,20.23s81.77,36.68,81.77,81.77-36.68,81.77-81.77,81.77Z"/><path class="cls-79" d="M102,20.89c-44.73,0-81.11,36.39-81.11,81.11s36.39,81.11,81.11,81.11,81.11-36.39,81.11-81.11S146.73,20.89,102,20.89ZM102,183.98c-45.2,0-81.98-36.78-81.98-81.98S56.8,20.02,102,20.02s81.98,36.78,81.98,81.98-36.78,81.98-81.98,81.98Z"/><path class="cls-151" d="M102,20.68c-44.84,0-81.32,36.48-81.32,81.32s36.48,81.32,81.32,81.32,81.32-36.48,81.32-81.32S146.84,20.68,102,20.68ZM102,184.19c-45.32,0-82.19-36.87-82.19-82.19S56.68,19.81,102,19.81s82.19,36.87,82.19,82.19-36.87,82.19-82.19,82.19Z"/><path class="cls-176" d="M102,20.47c-44.95,0-81.53,36.57-81.53,81.53s36.57,81.53,81.53,81.53,81.53-36.57,81.53-81.53S146.95,20.47,102,20.47ZM102,184.4c-45.43,0-82.4-36.96-82.4-82.4S56.57,19.6,102,19.6s82.4,36.96,82.4,82.4-36.96,82.4-82.4,82.4Z"/><path class="cls-158" d="M102,20.26c-45.07,0-81.74,36.67-81.74,81.74s36.67,81.74,81.74,81.74,81.74-36.67,81.74-81.74S147.07,20.26,102,20.26ZM102,184.61c-45.55,0-82.61-37.06-82.61-82.61S56.45,19.39,102,19.39s82.61,37.06,82.61,82.61-37.06,82.61-82.61,82.61Z"/><path class="cls-160" d="M102,20.06c-45.18,0-81.94,36.76-81.94,81.94s36.76,81.94,81.94,81.94,81.94-36.76,81.94-81.94S147.18,20.06,102,20.06ZM102,184.82c-45.66,0-82.82-37.15-82.82-82.82S56.34,19.18,102,19.18s82.82,37.15,82.82,82.82-37.15,82.82-82.82,82.82Z"/><path class="cls-137" d="M102,19.85c-45.3,0-82.15,36.85-82.15,82.15s36.85,82.15,82.15,82.15,82.15-36.85,82.15-82.15S147.3,19.85,102,19.85ZM102,185.02c-45.78,0-83.02-37.24-83.02-83.02S56.22,18.98,102,18.98s83.02,37.24,83.02,83.02-37.24,83.02-83.02,83.02Z"/><path class="cls-192" d="M102,19.64c-45.41,0-82.36,36.95-82.36,82.36s36.95,82.36,82.36,82.36,82.36-36.95,82.36-82.36S147.41,19.64,102,19.64ZM102,185.23c-45.89,0-83.23-37.34-83.23-83.23S56.11,18.77,102,18.77s83.23,37.34,83.23,83.23-37.34,83.23-83.23,83.23Z"/><path class="cls-107" d="M102,19.44c-45.53,0-82.56,37.04-82.56,82.56s37.04,82.56,82.56,82.56,82.56-37.04,82.56-82.56S147.53,19.44,102,19.44ZM102,185.44c-46.01,0-83.44-37.43-83.44-83.44S55.99,18.56,102,18.56s83.44,37.43,83.44,83.44-37.43,83.44-83.44,83.44Z"/><path class="cls-203" d="M102,19.23c-45.64,0-82.77,37.13-82.77,82.77s37.13,82.77,82.77,82.77,82.77-37.13,82.77-82.77S147.64,19.23,102,19.23ZM102,185.65c-46.12,0-83.65-37.52-83.65-83.65S55.88,18.35,102,18.35s83.65,37.52,83.65,83.65-37.52,83.65-83.65,83.65Z"/><path class="cls-191" d="M102,19.02c-45.75,0-82.98,37.22-82.98,82.98s37.22,82.98,82.98,82.98,82.98-37.22,82.98-82.98S147.75,19.02,102,19.02ZM102,185.86c-46.24,0-83.86-37.62-83.86-83.86S55.76,18.14,102,18.14s83.86,37.62,83.86,83.86-37.62,83.86-83.86,83.86Z"/><path class="cls-81" d="M102,18.81c-45.87,0-83.19,37.32-83.19,83.19s37.32,83.19,83.19,83.19,83.19-37.32,83.19-83.19S147.87,18.81,102,18.81ZM102,186.07c-46.35,0-84.07-37.71-84.07-84.07S55.65,17.93,102,17.93s84.07,37.71,84.07,84.07-37.71,84.07-84.07,84.07Z"/><path class="cls-207" d="M102,18.61c-45.98,0-83.39,37.41-83.39,83.39s37.41,83.39,83.39,83.39,83.39-37.41,83.39-83.39S147.98,18.61,102,18.61ZM102,186.27c-46.47,0-84.27-37.81-84.27-84.27S55.53,17.73,102,17.73s84.27,37.81,84.27,84.27-37.81,84.27-84.27,84.27Z"/><path class="cls-175" d="M102,18.4c-46.1,0-83.6,37.5-83.6,83.6s37.5,83.6,83.6,83.6,83.6-37.5,83.6-83.6S148.1,18.4,102,18.4ZM102,186.48c-46.58,0-84.48-37.9-84.48-84.48S55.42,17.52,102,17.52s84.48,37.9,84.48,84.48-37.9,84.48-84.48,84.48Z"/><path class="cls-148" d="M102,18.19c-46.21,0-83.81,37.6-83.81,83.81s37.6,83.81,83.81,83.81,83.81-37.6,83.81-83.81S148.21,18.19,102,18.19ZM102,186.69c-46.7,0-84.69-37.99-84.69-84.69S55.3,17.31,102,17.31s84.69,37.99,84.69,84.69-37.99,84.69-84.69,84.69Z"/><path class="cls-62" d="M102,17.99c-46.33,0-84.01,37.69-84.01,84.01s37.69,84.01,84.01,84.01,84.01-37.69,84.01-84.01S148.33,17.99,102,17.99ZM102,186.9c-46.81,0-84.9-38.09-84.9-84.9S55.19,17.1,102,17.1s84.9,38.09,84.9,84.9-38.09,84.9-84.9,84.9Z"/><path class="cls-134" d="M102,17.78c-46.44,0-84.22,37.78-84.22,84.22s37.78,84.22,84.22,84.22,84.22-37.78,84.22-84.22S148.44,17.78,102,17.78ZM102,187.11c-46.93,0-85.11-38.18-85.11-85.11S55.07,16.89,102,16.89s85.11,38.18,85.11,85.11-38.18,85.11-85.11,85.11Z"/><path class="cls-109" d="M102,17.57c-46.55,0-84.43,37.87-84.43,84.43s37.87,84.43,84.43,84.43,84.43-37.87,84.43-84.43S148.55,17.57,102,17.57ZM102,187.32c-47.04,0-85.32-38.27-85.32-85.32S54.96,16.68,102,16.68s85.32,38.27,85.32,85.32-38.27,85.32-85.32,85.32Z"/><path class="cls-120" d="M102,17.36c-46.67,0-84.64,37.97-84.64,84.64s37.97,84.64,84.64,84.64,84.64-37.97,84.64-84.64S148.67,17.36,102,17.36ZM102,187.53c-47.16,0-85.53-38.37-85.53-85.53S54.84,16.47,102,16.47s85.53,38.37,85.53,85.53-38.37,85.53-85.53,85.53Z"/><path class="cls-43" d="M102,17.16c-46.78,0-84.84,38.06-84.84,84.84s38.06,84.84,84.84,84.84,84.84-38.06,84.84-84.84S148.78,17.16,102,17.16ZM102,187.73c-47.27,0-85.73-38.46-85.73-85.73S54.73,16.27,102,16.27s85.73,38.46,85.73,85.73-38.46,85.73-85.73,85.73Z"/><path class="cls-92" d="M102,16.95c-46.9,0-85.05,38.15-85.05,85.05s38.15,85.05,85.05,85.05,85.05-38.15,85.05-85.05S148.9,16.95,102,16.95ZM102,187.94c-47.39,0-85.94-38.55-85.94-85.94S54.61,16.06,102,16.06s85.94,38.55,85.94,85.94-38.55,85.94-85.94,85.94Z"/><path class="cls-31" d="M102,16.74c-47.01,0-85.26,38.25-85.26,85.26s38.25,85.26,85.26,85.26,85.26-38.25,85.26-85.26S149.01,16.74,102,16.74ZM102,188.15c-47.5,0-86.15-38.65-86.15-86.15S54.5,15.85,102,15.85s86.15,38.65,86.15,86.15-38.65,86.15-86.15,86.15Z"/><path class="cls-50" d="M102,16.54c-47.13,0-85.46,38.34-85.46,85.46s38.34,85.46,85.46,85.46,85.46-38.34,85.46-85.46S149.13,16.54,102,16.54ZM102,188.36c-47.62,0-86.36-38.74-86.36-86.36S54.38,15.64,102,15.64s86.36,38.74,86.36,86.36-38.74,86.36-86.36,86.36Z"/><path class="cls-210" d="M102,16.33c-47.24,0-85.67,38.43-85.67,85.67s38.43,85.67,85.67,85.67,85.67-38.43,85.67-85.67S149.24,16.33,102,16.33ZM102,188.57c-47.73,0-86.57-38.83-86.57-86.57S54.27,15.43,102,15.43s86.57,38.83,86.57,86.57-38.83,86.57-86.57,86.57Z"/><path class="cls-38" d="M102,16.12c-47.35,0-85.88,38.53-85.88,85.88s38.53,85.88,85.88,85.88,85.88-38.53,85.88-85.88S149.35,16.12,102,16.12ZM102,188.78c-47.85,0-86.78-38.93-86.78-86.78S54.15,15.22,102,15.22s86.78,38.93,86.78,86.78-38.93,86.78-86.78,86.78Z"/><path class="cls-177" d="M102,15.91C54.53,15.91,15.91,54.53,15.91,102s38.62,86.09,86.09,86.09,86.09-38.62,86.09-86.09S149.47,15.91,102,15.91ZM102,188.99c-47.96,0-86.99-39.02-86.99-86.99S54.04,15.01,102,15.01s86.99,39.02,86.99,86.99-39.02,86.99-86.99,86.99Z"/><path class="cls-18" d="M102,15.71C54.42,15.71,15.71,54.42,15.71,102s38.71,86.29,86.29,86.29,86.29-38.71,86.29-86.29S149.58,15.71,102,15.71ZM102,189.19c-48.08,0-87.19-39.12-87.19-87.19S53.92,14.81,102,14.81s87.19,39.12,87.19,87.19-39.12,87.19-87.19,87.19Z"/><path class="cls-125" d="M102,15.5C54.3,15.5,15.5,54.3,15.5,102s38.8,86.5,86.5,86.5,86.5-38.8,86.5-86.5S149.7,15.5,102,15.5ZM102,189.4c-48.19,0-87.4-39.21-87.4-87.4S53.81,14.6,102,14.6s87.4,39.21,87.4,87.4-39.21,87.4-87.4,87.4Z"/><path class="cls-85" d="M102,15.29C54.19,15.29,15.29,54.19,15.29,102s38.9,86.71,86.71,86.71,86.71-38.9,86.71-86.71S149.81,15.29,102,15.29ZM102,189.61c-48.31,0-87.61-39.3-87.61-87.61S53.69,14.39,102,14.39s87.61,39.3,87.61,87.61-39.3,87.61-87.61,87.61Z"/><path class="cls-186" d="M102,15.09C54.08,15.09,15.09,54.08,15.09,102s38.99,86.91,86.91,86.91,86.91-38.99,86.91-86.91S149.92,15.09,102,15.09ZM102,189.82c-48.42,0-87.82-39.4-87.82-87.82S53.58,14.18,102,14.18s87.82,39.4,87.82,87.82-39.4,87.82-87.82,87.82Z"/><path class="cls-56" d="M102,14.88C53.96,14.88,14.88,53.96,14.88,102s39.08,87.12,87.12,87.12,87.12-39.08,87.12-87.12S150.04,14.88,102,14.88ZM102,190.03c-48.54,0-88.03-39.49-88.03-88.03S53.46,13.97,102,13.97s88.03,39.49,88.03,88.03-39.49,88.03-88.03,88.03Z"/><path class="cls-199" d="M102,14.67C53.85,14.67,14.67,53.85,14.67,102s39.18,87.33,87.33,87.33,87.33-39.18,87.33-87.33S150.15,14.67,102,14.67ZM102,190.24c-48.65,0-88.24-39.58-88.24-88.24S53.35,13.76,102,13.76s88.24,39.58,88.24,88.24-39.58,88.24-88.24,88.24Z"/><path class="cls-172" d="M102,14.46C53.73,14.46,14.46,53.73,14.46,102s39.27,87.54,87.54,87.54,87.54-39.27,87.54-87.54S150.27,14.46,102,14.46ZM102,190.45c-48.77,0-88.45-39.68-88.45-88.45S53.23,13.55,102,13.55s88.45,39.68,88.45,88.45-39.68,88.45-88.45,88.45Z"/><path class="cls-196" d="M102,14.26C53.62,14.26,14.26,53.62,14.26,102s39.36,87.74,87.74,87.74,87.74-39.36,87.74-87.74S150.38,14.26,102,14.26ZM102,190.65c-48.88,0-88.65-39.77-88.65-88.65S53.12,13.35,102,13.35s88.65,39.77,88.65,88.65-39.77,88.65-88.65,88.65Z"/><path class="cls-15" d="M102,14.05C53.5,14.05,14.05,53.5,14.05,102s39.45,87.95,87.95,87.95,87.95-39.45,87.95-87.95S150.5,14.05,102,14.05ZM102,190.86c-49,0-88.86-39.86-88.86-88.86S53,13.14,102,13.14s88.86,39.86,88.86,88.86-39.86,88.86-88.86,88.86Z"/><path class="cls-60" d="M102,13.84C53.39,13.84,13.84,53.39,13.84,102s39.55,88.16,88.16,88.16,88.16-39.55,88.16-88.16S150.61,13.84,102,13.84ZM102,191.07c-49.11,0-89.07-39.96-89.07-89.07S52.89,12.93,102,12.93s89.07,39.96,89.07,89.07-39.96,89.07-89.07,89.07Z"/><path class="cls-91" d="M102,13.64C53.28,13.64,13.64,53.28,13.64,102s39.64,88.36,88.36,88.36,88.36-39.64,88.36-88.36S150.72,13.64,102,13.64ZM102,191.28c-49.23,0-89.28-40.05-89.28-89.28S52.77,12.72,102,12.72s89.28,40.05,89.28,89.28-40.05,89.28-89.28,89.28Z"/><path class="cls-152" d="M102,13.43C53.16,13.43,13.43,53.16,13.43,102s39.73,88.57,88.57,88.57,88.57-39.73,88.57-88.57S150.84,13.43,102,13.43ZM102,191.49c-49.34,0-89.49-40.14-89.49-89.49S52.66,12.51,102,12.51s89.49,40.14,89.49,89.49-40.14,89.49-89.49,89.49Z"/><path class="cls-40" d="M102,13.22C53.05,13.22,13.22,53.05,13.22,102s39.83,88.78,88.78,88.78,88.78-39.83,88.78-88.78S150.95,13.22,102,13.22ZM102,191.7c-49.46,0-89.7-40.24-89.7-89.7S52.54,12.3,102,12.3s89.7,40.24,89.7,89.7-40.24,89.7-89.7,89.7Z"/><path class="cls-126" d="M102,13.01C52.93,13.01,13.01,52.93,13.01,102s39.92,88.99,88.99,88.99,88.99-39.92,88.99-88.99S151.07,13.01,102,13.01ZM102,191.91c-49.57,0-89.91-40.33-89.91-89.91S52.43,12.09,102,12.09s89.91,40.33,89.91,89.91-40.33,89.91-89.91,89.91Z"/><path class="cls-69" d="M102,12.81C52.82,12.81,12.81,52.82,12.81,102s40.01,89.19,89.19,89.19,89.19-40.01,89.19-89.19S151.18,12.81,102,12.81ZM102,192.11c-49.69,0-90.11-40.42-90.11-90.11S52.31,11.89,102,11.89s90.11,40.42,90.11,90.11-40.42,90.11-90.11,90.11Z"/><path class="cls-188" d="M102,12.6C52.7,12.6,12.6,52.7,12.6,102s40.1,89.4,89.4,89.4,89.4-40.1,89.4-89.4S151.3,12.6,102,12.6ZM102,192.32c-49.8,0-90.32-40.52-90.32-90.32S52.2,11.68,102,11.68s90.32,40.52,90.32,90.32-40.52,90.32-90.32,90.32Z"/><path class="cls-63" d="M102,12.39C52.59,12.39,12.39,52.59,12.39,102s40.2,89.61,89.61,89.61,89.61-40.2,89.61-89.61S151.41,12.39,102,12.39ZM102,192.53c-49.92,0-90.53-40.61-90.53-90.53S52.08,11.47,102,11.47s90.53,40.61,90.53,90.53-40.61,90.53-90.53,90.53Z"/><path class="cls-138" d="M102,12.19C52.48,12.19,12.19,52.48,12.19,102s40.29,89.81,89.81,89.81,89.81-40.29,89.81-89.81S151.52,12.19,102,12.19ZM102,192.74c-50.03,0-90.74-40.71-90.74-90.74S51.97,11.26,102,11.26s90.74,40.71,90.74,90.74-40.71,90.74-90.74,90.74Z"/><path class="cls-7" d="M102,11.98C52.36,11.98,11.98,52.36,11.98,102s40.38,90.02,90.02,90.02,90.02-40.38,90.02-90.02S151.64,11.98,102,11.98ZM102,192.95c-50.15,0-90.95-40.8-90.95-90.95S51.85,11.05,102,11.05s90.95,40.8,90.95,90.95-40.8,90.95-90.95,90.95Z"/><path class="cls-72" d="M102,11.77C52.25,11.77,11.77,52.25,11.77,102s40.48,90.23,90.23,90.23,90.23-40.48,90.23-90.23S151.75,11.77,102,11.77ZM102,193.16c-50.26,0-91.16-40.89-91.16-91.16S51.74,10.84,102,10.84s91.16,40.89,91.16,91.16-40.89,91.16-91.16,91.16Z"/><path class="cls-130" d="M102,11.56C52.13,11.56,11.56,52.13,11.56,102s40.57,90.44,90.44,90.44,90.44-40.57,90.44-90.44S151.87,11.56,102,11.56ZM102,193.36c-50.38,0-91.36-40.99-91.36-91.36S51.62,10.64,102,10.64s91.36,40.99,91.36,91.36-40.99,91.36-91.36,91.36Z"/><path class="cls-78" d="M102,11.36C52.02,11.36,11.36,52.02,11.36,102s40.66,90.64,90.64,90.64,90.64-40.66,90.64-90.64S151.98,11.36,102,11.36ZM102,193.57c-50.49,0-91.57-41.08-91.57-91.57S51.51,10.43,102,10.43s91.57,41.08,91.57,91.57-41.08,91.57-91.57,91.57Z"/><path class="cls-36" d="M102,11.15C51.91,11.15,11.15,51.91,11.15,102s40.76,90.85,90.85,90.85,90.85-40.76,90.85-90.85S152.09,11.15,102,11.15ZM102,193.78c-50.61,0-91.78-41.17-91.78-91.78S51.39,10.22,102,10.22s91.78,41.17,91.78,91.78-41.17,91.78-91.78,91.78Z"/><path class="cls-10" d="M102,10.94C51.79,10.94,10.94,51.79,10.94,102s40.85,91.06,91.06,91.06,91.06-40.85,91.06-91.06S152.21,10.94,102,10.94ZM102,193.99c-50.72,0-91.99-41.27-91.99-91.99S51.28,10.01,102,10.01s91.99,41.27,91.99,91.99-41.27,91.99-91.99,91.99Z"/><path class="cls-121" d="M102,10.74C51.68,10.74,10.74,51.68,10.74,102s40.94,91.26,91.26,91.26,91.26-40.94,91.26-91.26S152.32,10.74,102,10.74ZM102,194.2c-50.84,0-92.2-41.36-92.2-92.2S51.16,9.8,102,9.8s92.2,41.36,92.2,92.2-41.36,92.2-92.2,92.2Z"/><path class="cls-11" d="M102,10.53C51.56,10.53,10.53,51.56,10.53,102s41.03,91.47,91.47,91.47,91.47-41.03,91.47-91.47S152.44,10.53,102,10.53ZM102,194.41c-50.95,0-92.41-41.45-92.41-92.41S51.05,9.59,102,9.59s92.41,41.45,92.41,92.41-41.45,92.41-92.41,92.41Z"/><path class="cls-73" d="M102,10.32C51.45,10.32,10.32,51.45,10.32,102s41.13,91.68,91.68,91.68,91.68-41.13,91.68-91.68S152.55,10.32,102,10.32ZM102,194.62c-51.07,0-92.62-41.55-92.62-92.62S50.93,9.38,102,9.38s92.62,41.55,92.62,92.62-41.55,92.62-92.62,92.62Z"/><path class="cls-122" d="M102,10.11C51.33,10.11,10.11,51.33,10.11,102s41.22,91.89,91.89,91.89,91.89-41.22,91.89-91.89S152.67,10.11,102,10.11ZM102,194.82c-51.18,0-92.82-41.64-92.82-92.82S50.82,9.18,102,9.18s92.82,41.64,92.82,92.82-41.64,92.82-92.82,92.82Z"/><path class="cls-48" d="M102,9.91C51.22,9.91,9.91,51.22,9.91,102s41.31,92.09,92.09,92.09,92.09-41.31,92.09-92.09S152.78,9.91,102,9.91ZM102,195.03c-51.3,0-93.03-41.73-93.03-93.03S50.7,8.97,102,8.97s93.03,41.73,93.03,93.03-41.73,93.03-93.03,93.03Z"/><path class="cls-170" d="M102,9.7C51.11,9.7,9.7,51.11,9.7,102s41.41,92.3,92.3,92.3,92.3-41.41,92.3-92.3S152.89,9.7,102,9.7ZM102,195.24c-51.41,0-93.24-41.83-93.24-93.24S50.59,8.76,102,8.76s93.24,41.83,93.24,93.24-41.83,93.24-93.24,93.24Z"/><path class="cls-183" d="M102,9.49C50.99,9.49,9.49,50.99,9.49,102s41.5,92.51,92.51,92.51,92.51-41.5,92.51-92.51S153.01,9.49,102,9.49ZM102,195.45c-51.53,0-93.45-41.92-93.45-93.45S50.47,8.55,102,8.55s93.45,41.92,93.45,93.45-41.92,93.45-93.45,93.45Z"/><path class="cls-14" d="M102,9.29C50.88,9.29,9.29,50.88,9.29,102s41.59,92.71,92.71,92.71,92.71-41.59,92.71-92.71S153.12,9.29,102,9.29ZM102,195.66c-51.64,0-93.66-42.02-93.66-93.66S50.36,8.34,102,8.34s93.66,42.02,93.66,93.66-42.02,93.66-93.66,93.66Z"/><path class="cls-168" d="M102,9.08C50.76,9.08,9.08,50.76,9.08,102s41.68,92.92,92.92,92.92,92.92-41.68,92.92-92.92S153.24,9.08,102,9.08ZM102,195.87c-51.76,0-93.87-42.11-93.87-93.87S50.24,8.13,102,8.13s93.87,42.11,93.87,93.87-42.11,93.87-93.87,93.87Z"/><path class="cls-1" d="M102,8.87C50.65,8.87,8.87,50.65,8.87,102s41.78,93.13,93.13,93.13,93.13-41.78,93.13-93.13S153.35,8.87,102,8.87ZM102,196.08c-51.87,0-94.08-42.2-94.08-94.08S50.13,7.92,102,7.92s94.08,42.2,94.08,94.08-42.2,94.08-94.08,94.08Z"/><path class="cls-171" d="M102,8.66C50.53,8.66,8.66,50.53,8.66,102s41.87,93.34,93.34,93.34,93.34-41.87,93.34-93.34S153.47,8.66,102,8.66ZM102,196.28c-51.99,0-94.28-42.3-94.28-94.28S50.01,7.72,102,7.72s94.28,42.3,94.28,94.28-42.3,94.28-94.28,94.28Z"/><path class="cls-131" d="M102,8.46C50.42,8.46,8.46,50.42,8.46,102s41.96,93.54,93.54,93.54,93.54-41.96,93.54-93.54S153.58,8.46,102,8.46ZM102,196.49c-52.1,0-94.49-42.39-94.49-94.49S49.9,7.51,102,7.51s94.49,42.39,94.49,94.49-42.39,94.49-94.49,94.49Z"/><path class="cls-12" d="M102,8.25C50.31,8.25,8.25,50.31,8.25,102s42.06,93.75,93.75,93.75,93.75-42.06,93.75-93.75S153.69,8.25,102,8.25ZM102,196.7c-52.22,0-94.7-42.48-94.7-94.7S49.78,7.3,102,7.3s94.7,42.48,94.7,94.7-42.48,94.7-94.7,94.7Z"/><path class="cls-80" d="M102,8.04C50.19,8.04,8.04,50.19,8.04,102s42.15,93.96,93.96,93.96,93.96-42.15,93.96-93.96S153.81,8.04,102,8.04ZM102,196.91c-52.33,0-94.91-42.58-94.91-94.91S49.67,7.09,102,7.09s94.91,42.58,94.91,94.91-42.58,94.91-94.91,94.91Z"/><path class="cls-23" d="M102,7.84C50.08,7.84,7.84,50.08,7.84,102s42.24,94.16,94.16,94.16,94.16-42.24,94.16-94.16S153.92,7.84,102,7.84ZM102,197.12c-52.45,0-95.12-42.67-95.12-95.12S49.55,6.88,102,6.88s95.12,42.67,95.12,95.12-42.67,95.12-95.12,95.12Z"/><path class="cls-13" d="M102,7.63C49.96,7.63,7.63,49.96,7.63,102s42.33,94.37,94.37,94.37,94.37-42.34,94.37-94.37S154.04,7.63,102,7.63ZM102,197.33c-52.56,0-95.33-42.76-95.33-95.33S49.44,6.67,102,6.67s95.33,42.76,95.33,95.33-42.76,95.33-95.33,95.33Z"/><path class="cls-4" d="M102,7.42C49.85,7.42,7.42,49.85,7.42,102s42.43,94.58,94.58,94.58,94.58-42.43,94.58-94.58S154.15,7.42,102,7.42ZM102,197.54c-52.68,0-95.54-42.86-95.54-95.54S49.32,6.46,102,6.46s95.54,42.86,95.54,95.54-42.86,95.54-95.54,95.54Z"/><path class="cls-167" d="M102,7.21C49.74,7.21,7.21,49.74,7.21,102s42.52,94.79,94.79,94.79,94.79-42.52,94.79-94.79S154.26,7.21,102,7.21ZM102,197.74c-52.79,0-95.74-42.95-95.74-95.74S49.21,6.26,102,6.26s95.74,42.95,95.74,95.74-42.95,95.74-95.74,95.74Z"/><path class="cls-190" d="M102,7.01C49.62,7.01,7.01,49.62,7.01,102s42.61,94.99,94.99,94.99,94.99-42.61,94.99-94.99S154.38,7.01,102,7.01ZM102,197.95c-52.91,0-95.95-43.04-95.95-95.95S49.09,6.05,102,6.05s95.95,43.04,95.95,95.95-43.04,95.95-95.95,95.95Z"/><path class="cls-179" d="M102,6.8C49.51,6.8,6.8,49.51,6.8,102s42.71,95.2,95.2,95.2,95.2-42.71,95.2-95.2S154.49,6.8,102,6.8ZM102,198.16c-53.02,0-96.16-43.14-96.16-96.16S48.98,5.84,102,5.84s96.16,43.14,96.16,96.16-43.14,96.16-96.16,96.16Z"/><path class="cls-201" d="M102,6.59C49.39,6.59,6.59,49.39,6.59,102s42.8,95.41,95.41,95.41,95.41-42.8,95.41-95.41S154.61,6.59,102,6.59ZM102,198.37c-53.14,0-96.37-43.23-96.37-96.37S48.86,5.63,102,5.63s96.37,43.23,96.37,96.37-43.23,96.37-96.37,96.37Z"/><path class="cls-61" d="M102,6.39C49.28,6.39,6.39,49.28,6.39,102s42.89,95.61,95.61,95.61,95.61-42.89,95.61-95.61S154.72,6.39,102,6.39ZM102,198.58c-53.25,0-96.58-43.32-96.58-96.58S48.75,5.42,102,5.42s96.58,43.32,96.58,96.58-43.32,96.58-96.58,96.58Z"/><path class="cls-141" d="M102,6.18C49.16,6.18,6.18,49.16,6.18,102s42.99,95.82,95.82,95.82,95.82-42.99,95.82-95.82S154.84,6.18,102,6.18ZM102,198.79c-53.37,0-96.79-43.42-96.79-96.79S48.63,5.21,102,5.21s96.79,43.42,96.79,96.79-43.42,96.79-96.79,96.79Z"/><path class="cls-35" d="M102,5.97C49.05,5.97,5.97,49.05,5.97,102s43.08,96.03,96.03,96.03,96.03-43.08,96.03-96.03S154.95,5.97,102,5.97ZM102,199c-53.48,0-97-43.51-97-97S48.52,5,102,5s97,43.51,97,97-43.51,97-97,97Z"/><path class="cls-194" d="M102,5.76C48.94,5.76,5.76,48.94,5.76,102s43.17,96.24,96.24,96.24,96.24-43.17,96.24-96.24S155.06,5.76,102,5.76ZM102,199.2c-53.6,0-97.2-43.61-97.2-97.2S48.4,4.8,102,4.8s97.2,43.61,97.2,97.2-43.61,97.2-97.2,97.2Z"/><path class="cls-164" d="M102,5.56C48.82,5.56,5.56,48.82,5.56,102s43.26,96.44,96.44,96.44,96.44-43.26,96.44-96.44S155.18,5.56,102,5.56ZM102,199.41c-53.71,0-97.41-43.7-97.41-97.41S48.29,4.59,102,4.59s97.41,43.7,97.41,97.41-43.7,97.41-97.41,97.41Z"/><path class="cls-142" d="M102,5.35C48.71,5.35,5.35,48.71,5.35,102s43.36,96.65,96.65,96.65,96.65-43.36,96.65-96.65S155.29,5.35,102,5.35ZM102,199.62c-53.83,0-97.62-43.79-97.62-97.62S48.17,4.38,102,4.38s97.62,43.79,97.62,97.62-43.79,97.62-97.62,97.62Z"/><path class="cls-111" d="M102,5.14C48.59,5.14,5.14,48.59,5.14,102s43.45,96.86,96.86,96.86,96.86-43.45,96.86-96.86S155.41,5.14,102,5.14ZM102,199.83c-53.94,0-97.83-43.89-97.83-97.83S48.06,4.17,102,4.17s97.83,43.89,97.83,97.83-43.89,97.83-97.83,97.83Z"/><path class="cls-187" d="M102,4.94C48.48,4.94,4.94,48.48,4.94,102s43.54,97.06,97.06,97.06,97.06-43.54,97.06-97.06S155.52,4.94,102,4.94ZM102,200.04c-54.06,0-98.04-43.98-98.04-98.04S47.94,3.96,102,3.96s98.04,43.98,98.04,98.04-43.98,98.04-98.04,98.04Z"/><path class="cls-21" d="M102,4.73C48.36,4.73,4.73,48.36,4.73,102s43.64,97.27,97.27,97.27,97.27-43.64,97.27-97.27S155.64,4.73,102,4.73ZM102,200.25c-54.17,0-98.25-44.07-98.25-98.25S47.83,3.75,102,3.75s98.25,44.07,98.25,98.25-44.07,98.25-98.25,98.25Z"/><path class="cls-161" d="M102,4.52C48.25,4.52,4.52,48.25,4.52,102s43.73,97.48,97.48,97.48,97.48-43.73,97.48-97.48S155.75,4.52,102,4.52ZM102,200.45c-54.29,0-98.45-44.17-98.45-98.45S47.71,3.55,102,3.55s98.45,44.17,98.45,98.45-44.17,98.45-98.45,98.45Z"/><path class="cls-39" d="M102,4.31C48.14,4.31,4.31,48.14,4.31,102s43.82,97.69,97.69,97.69,97.69-43.82,97.69-97.69S155.86,4.31,102,4.31ZM102,200.66c-54.4,0-98.66-44.26-98.66-98.66S47.6,3.34,102,3.34s98.66,44.26,98.66,98.66-44.26,98.66-98.66,98.66Z"/><path class="cls-140" d="M102,4.11C48.02,4.11,4.11,48.02,4.11,102s43.91,97.89,97.89,97.89,97.89-43.91,97.89-97.89S155.98,4.11,102,4.11ZM102,200.87c-54.52,0-98.87-44.35-98.87-98.87S47.48,3.13,102,3.13s98.87,44.35,98.87,98.87-44.35,98.87-98.87,98.87Z"/><path class="cls-93" d="M102,3.9C47.91,3.9,3.9,47.91,3.9,102s44.01,98.1,98.1,98.1,98.1-44.01,98.1-98.1S156.09,3.9,102,3.9ZM102,201.08c-54.63,0-99.08-44.45-99.08-99.08S47.37,2.92,102,2.92s99.08,44.45,99.08,99.08-44.45,99.08-99.08,99.08Z"/><path class="cls-6" d="M102,3.69C47.79,3.69,3.69,47.79,3.69,102s44.1,98.31,98.31,98.31,98.31-44.1,98.31-98.31S156.21,3.69,102,3.69ZM102,201.29c-54.75,0-99.29-44.54-99.29-99.29S47.25,2.71,102,2.71s99.29,44.54,99.29,99.29-44.54,99.29-99.29,99.29Z"/><path class="cls-198" d="M102,3.49C47.68,3.49,3.49,47.68,3.49,102s44.19,98.51,98.51,98.51,98.51-44.19,98.51-98.51S156.32,3.49,102,3.49ZM102,201.5c-54.86,0-99.5-44.63-99.5-99.5S47.14,2.5,102,2.5s99.5,44.63,99.5,99.5-44.63,99.5-99.5,99.5Z"/><path class="cls-59" d="M102,3.28C47.56,3.28,3.28,47.57,3.28,102s44.29,98.72,98.72,98.72,98.72-44.29,98.72-98.72S156.44,3.28,102,3.28ZM102,201.71c-54.98,0-99.71-44.73-99.71-99.71S47.02,2.29,102,2.29s99.71,44.73,99.71,99.71-44.73,99.71-99.71,99.71Z"/><path class="cls-197" d="M102,3.07C47.45,3.07,3.07,47.45,3.07,102s44.38,98.93,98.93,98.93,98.93-44.38,98.93-98.93S156.55,3.07,102,3.07ZM102,201.91c-55.09,0-99.91-44.82-99.91-99.91S46.91,2.09,102,2.09s99.91,44.82,99.91,99.91-44.82,99.91-99.91,99.91Z"/><path class="cls-204" d="M102,2.86C47.34,2.86,2.86,47.34,2.86,102s44.47,99.14,99.14,99.14,99.14-44.47,99.14-99.14S156.66,2.86,102,2.86ZM102,202.12C46.79,202.12,1.88,157.21,1.88,102S46.79,1.88,102,1.88s100.12,44.91,100.12,100.12-44.91,100.12-100.12,100.12Z"/><path class="cls-52" d="M102,2.66C47.22,2.66,2.66,47.22,2.66,102s44.57,99.34,99.34,99.34,99.34-44.57,99.34-99.34S156.78,2.66,102,2.66ZM102,202.33C46.68,202.33,1.67,157.32,1.67,102S46.68,1.67,102,1.67s100.33,45.01,100.33,100.33-45.01,100.33-100.33,100.33Z"/><path class="cls-200" d="M102,2.45C47.11,2.45,2.45,47.11,2.45,102s44.66,99.55,99.55,99.55,99.55-44.66,99.55-99.55S156.89,2.45,102,2.45ZM102,202.54C46.56,202.54,1.46,157.44,1.46,102S46.56,1.46,102,1.46s100.54,45.1,100.54,100.54-45.1,100.54-100.54,100.54Z"/><path class="cls-115" d="M102,2.24C46.99,2.24,2.24,46.99,2.24,102s44.75,99.76,99.76,99.76,99.76-44.75,99.76-99.76S157.01,2.24,102,2.24ZM102,202.75C46.45,202.75,1.25,157.55,1.25,102S46.45,1.25,102,1.25s100.75,45.2,100.75,100.75-45.2,100.75-100.75,100.75Z"/><path class="cls-41" d="M102,2.04C46.88,2.04,2.04,46.88,2.04,102s44.84,99.96,99.96,99.96,99.96-44.84,99.96-99.96S157.12,2.04,102,2.04ZM102,202.96C46.33,202.96,1.04,157.67,1.04,102S46.33,1.04,102,1.04s100.96,45.29,100.96,100.96-45.29,100.96-100.96,100.96Z"/><path class="cls-86" d="M102,1.83C46.77,1.83,1.83,46.77,1.83,102s44.94,100.17,100.17,100.17,100.17-44.94,100.17-100.17S157.23,1.83,102,1.83ZM102,203.17C46.22,203.17.83,157.78.83,102S46.22.83,102,.83s101.17,45.38,101.17,101.17-45.38,101.17-101.17,101.17Z"/><path class="cls-44" d="M102,1.62C46.65,1.62,1.62,46.65,1.62,102s45.03,100.38,100.38,100.38,100.38-45.03,100.38-100.38S157.35,1.62,102,1.62ZM102,203.37C46.1,203.37.63,157.9.63,102S46.1.63,102,.63s101.37,45.48,101.37,101.37-45.48,101.37-101.37,101.37Z"/><path class="cls-96" d="M102,1.41C46.54,1.41,1.41,46.54,1.41,102s45.12,100.59,100.59,100.59,100.59-45.12,100.59-100.59S157.46,1.41,102,1.41ZM102,203.58C45.99,203.58.42,158.01.42,102S45.99.42,102,.42s101.58,45.57,101.58,101.58-45.57,101.58-101.58,101.58Z"/><path class="cls-209" d="M102,1.21C46.42,1.21,1.21,46.42,1.21,102s45.22,100.79,100.79,100.79,100.79-45.22,100.79-100.79S157.58,1.21,102,1.21ZM102,203.79C45.87,203.79.21,158.13.21,102S45.87.21,102,.21s101.79,45.66,101.79,101.79-45.66,101.79-101.79,101.79Z"/><path class="cls-206" d="M102,1C46.31,1,1,46.31,1,102s45.31,101,101,101,101-45.31,101-101S157.69,1,102,1ZM102,204C45.76,204,0,158.24,0,102S45.76,0,102,0s102,45.76,102,102-45.76,102-102,102Z"/></g></svg>