<?xml version="1.0" encoding="UTF-8"?><svg id="Layer_2" xmlns="http://www.w3.org/2000/svg" viewBox="0 0 284 284"><defs><style>.cls-1{fill:#d4941f;}.cls-1,.cls-2,.cls-3,.cls-4,.cls-5,.cls-6,.cls-7,.cls-8,.cls-9,.cls-10,.cls-11,.cls-12,.cls-13,.cls-14,.cls-15,.cls-16,.cls-17,.cls-18,.cls-19,.cls-20,.cls-21,.cls-22,.cls-23,.cls-24,.cls-25,.cls-26,.cls-27,.cls-28,.cls-29,.cls-30,.cls-31,.cls-32,.cls-33,.cls-34,.cls-35,.cls-36,.cls-37,.cls-38,.cls-39,.cls-40,.cls-41,.cls-42,.cls-43,.cls-44,.cls-45,.cls-46,.cls-47,.cls-48,.cls-49,.cls-50,.cls-51,.cls-52,.cls-53,.cls-54,.cls-55,.cls-56,.cls-57,.cls-58,.cls-59,.cls-60,.cls-61,.cls-62,.cls-63,.cls-64,.cls-65,.cls-66,.cls-67,.cls-68,.cls-69,.cls-70,.cls-71,.cls-72,.cls-73,.cls-74,.cls-75,.cls-76,.cls-77,.cls-78,.cls-79,.cls-80,.cls-81,.cls-82,.cls-83,.cls-84,.cls-85,.cls-86,.cls-87,.cls-88,.cls-89,.cls-90,.cls-91,.cls-92,.cls-93,.cls-94,.cls-95,.cls-96,.cls-97,.cls-98,.cls-99,.cls-100,.cls-101,.cls-102,.cls-103,.cls-104,.cls-105,.cls-106,.cls-107,.cls-108,.cls-109,.cls-110,.cls-111,.cls-112,.cls-113,.cls-114,.cls-115,.cls-116,.cls-117,.cls-118,.cls-119,.cls-120,.cls-121,.cls-122,.cls-123,.cls-124,.cls-125,.cls-126,.cls-127,.cls-128,.cls-129,.cls-130,.cls-131,.cls-132,.cls-133,.cls-134,.cls-135,.cls-136,.cls-137,.cls-138,.cls-139,.cls-140,.cls-141,.cls-142,.cls-143,.cls-144,.cls-145,.cls-146,.cls-147,.cls-148,.cls-149,.cls-150,.cls-151,.cls-152,.cls-153,.cls-154,.cls-155,.cls-156,.cls-157,.cls-158,.cls-159,.cls-160,.cls-161,.cls-162,.cls-163,.cls-164,.cls-165,.cls-166,.cls-167,.cls-168,.cls-169,.cls-170,.cls-171,.cls-172,.cls-173,.cls-174,.cls-175,.cls-176,.cls-177,.cls-178,.cls-179,.cls-180,.cls-181,.cls-182,.cls-183,.cls-184,.cls-185,.cls-186,.cls-187,.cls-188,.cls-189,.cls-190,.cls-191,.cls-192,.cls-193,.cls-194,.cls-195,.cls-196,.cls-197,.cls-198,.cls-199,.cls-200,.cls-201,.cls-202,.cls-203,.cls-204,.cls-205,.cls-206,.cls-207,.cls-208,.cls-209,.cls-210,.cls-211,.cls-212,.cls-213,.cls-214,.cls-215,.cls-216,.cls-217,.cls-218,.cls-219,.cls-220,.cls-221,.cls-222,.cls-223,.cls-224,.cls-225,.cls-226,.cls-227,.cls-228,.cls-229,.cls-230,.cls-231,.cls-232,.cls-233,.cls-234,.cls-235,.cls-236,.cls-237,.cls-238,.cls-239,.cls-240,.cls-241,.cls-242,.cls-243,.cls-244,.cls-245,.cls-246,.cls-247,.cls-248,.cls-249,.cls-250,.cls-251,.cls-252,.cls-253,.cls-254,.cls-255,.cls-256,.cls-257,.cls-258,.cls-259,.cls-260,.cls-261,.cls-262,.cls-263{stroke-width:0px;}.cls-2{fill:#f1b114;}.cls-3{fill:#5f6b86;}.cls-4{fill:#8d7b5d;}.cls-5{fill:#f1c323;}.cls-6{fill:#5a698a;}.cls-7{fill:#2757b7;}.cls-8{fill:#f1c525;}.cls-9{fill:#717177;}.cls-10{fill:#676e80;}.cls-11{fill:#6e7079;}.cls-12{fill:#5d6a87;}.cls-13{fill:#998053;}.cls-14{fill:#516692;}.cls-15{fill:#a48349;}.cls-16{fill:#56688e;}.cls-17{fill:#9f814d;}.cls-18{fill:#807769;}.cls-19{fill:#f1b416;}.cls-20{fill:#ef9d07;}.cls-21{fill:#345bab;}.cls-22{fill:#57688d;}.cls-23{fill:#827867;}.cls-24{fill:#9d804f;}.cls-25{fill:#a58348;}.cls-26{fill:#f1a50b;}.cls-27{fill:#947e57;}.cls-28{fill:#2556b9;}.cls-29{fill:#b2883d;}.cls-30{fill:#4e6595;}.cls-31{fill:#f1c625;}.cls-32{fill:#43619e;}.cls-33{fill:#dc9718;}.cls-34{fill:#f1b013;}.cls-35{fill:#536690;}.cls-36{fill:#375da9;}.cls-37{fill:#f1cf2c;}.cls-38{fill:#c18d2f;}.cls-39{fill:#f1b618;}.cls-40{fill:#d19321;}.cls-41{fill:#f1a007;}.cls-42{fill:#58688c;}.cls-43{fill:#e39911;}.cls-44{fill:#6f7078;}.cls-45{fill:#f1a60b;}.cls-46{fill:#ab8543;}.cls-47{fill:#45629d;}.cls-48{fill:#8e7c5c;}.cls-49{fill:#f1c928;}.cls-50{fill:#b3883c;}.cls-51{fill:#d6941d;}.cls-52{fill:#44619d;}.cls-53{fill:#707178;}.cls-54{fill:#f1be1f;}.cls-55{fill:#bf8c31;}.cls-56{fill:#f1cc2a;}.cls-57{fill:#f1b91b;}.cls-58{fill:#ad8641;}.cls-59{fill:#f1a40a;}.cls-60{fill:#d8951b;}.cls-61{fill:#e09814;}.cls-62{fill:#f1b81a;}.cls-63{fill:#f09e06;}.cls-64{fill:#ba8a35;}.cls-65{fill:#506593;}.cls-66{fill:#8f7c5b;}.cls-67{fill:#355cab;}.cls-68{fill:#2857b6;}.cls-69{fill:#59698b;}.cls-70{fill:#f1c121;}.cls-71{fill:#ce9224;}.cls-72{fill:#ee9d08;}.cls-73{fill:#f1d12e;}.cls-74{fill:#a88445;}.cls-75{fill:#db9618;}.cls-76{fill:#7c756d;}.cls-77{fill:#f1bf20;}.cls-78{fill:#9b8051;}.cls-79{fill:#777371;}.cls-80{fill:#4d6495;}.cls-81{fill:#7b756e;}.cls-82{fill:#c68f2b;}.cls-83{fill:#aa8544;}.cls-84{fill:#b98a36;}.cls-85{fill:#a78446;}.cls-86{fill:#e19813;}.cls-87{fill:#927d59;}.cls-88{fill:#2656b8;}.cls-89{fill:#a98444;}.cls-90{fill:#f1b517;}.cls-91{fill:#666d80;}.cls-92{fill:#626c83;}.cls-93{fill:#2456ba;}.cls-94{fill:#937e58;}.cls-95{fill:#f1ce2c;}.cls-96{fill:#e59a10;}.cls-97{fill:#5c6a88;}.cls-98{fill:#737275;}.cls-99{fill:#767372;}.cls-100{fill:#957e56;}.cls-101{fill:#a1824c;}.cls-102{fill:#f1a70c;}.cls-103{fill:#f1a107;}.cls-104{fill:#c08d30;}.cls-105{fill:#ec9c09;}.cls-106{fill:#335bac;}.cls-107{fill:#e99b0c;}.cls-108{fill:#787471;}.cls-109{fill:#cf9223;}.cls-110{fill:#f1c424;}.cls-111{fill:#c48e2d;}.cls-112{fill:#f1c021;}.cls-113{fill:#5e6a86;}.cls-114{fill:#305aaf;}.cls-115{fill:#807669;}.cls-116{fill:#f1ae12;}.cls-117{fill:#977f54;}.cls-118{fill:#f1a208;}.cls-119{fill:#f1ac10;}.cls-120{fill:#25b;}.cls-121{fill:#2b58b3;}.cls-122{fill:#d7951c;}.cls-123{fill:#f1a80d;}.cls-124{fill:#a2824b;}.cls-125{fill:#d9951a;}.cls-126{fill:#c99028;}.cls-127{fill:#365caa;}.cls-128{fill:#b5893a;}.cls-129{fill:#877962;}.cls-130{fill:#c88f29;}.cls-131{fill:#f1c827;}.cls-132{fill:#f1af12;}.cls-133{fill:#3b5ea5;}.cls-134{fill:#f1ab0f;}.cls-135{fill:#867963;}.cls-136{fill:#b68939;}.cls-137{fill:#2f5ab0;}.cls-138{fill:#817768;}.cls-139{fill:#686e7f;}.cls-140{fill:#bd8c33;}.cls-141{fill:#656d80;}.cls-142{fill:#3f5fa2;}.cls-143{fill:#dd9717;}.cls-144{fill:#847865;}.cls-145{fill:#f1bd1e;}.cls-146{fill:#e89b0d;}.cls-147{fill:#df9815;}.cls-148{fill:#696e7e;}.cls-149{fill:#2a58b4;}.cls-150{fill:#757373;}.cls-151{fill:#2958b5;}.cls-152{fill:#d09222;}.cls-153{fill:#797470;}.cls-154{fill:#9a8052;}.cls-155{fill:#2d59b2;}.cls-156{fill:#3a5ea6;}.cls-157{fill:#48639a;}.cls-158{fill:#ed9d09;}.cls-159{fill:#b1873d;}.cls-160{fill:#be8c32;}.cls-161{fill:#7d756c;}.cls-162{fill:#6c6f7b;}.cls-163{fill:#9e804e;}.cls-164{fill:#3e5fa3;}.cls-165{fill:#7a746f;}.cls-166{fill:#d29320;}.cls-167{fill:#cb9026;}.cls-168{fill:#bb8b35;}.cls-169{fill:#727276;}.cls-170{fill:#af873f;}.cls-171{fill:#da9619;}.cls-172{fill:#6b6f7c;}.cls-173{fill:#315aae;}.cls-174{fill:#b78938;}.cls-175{fill:#8a7a60;}.cls-176{fill:#ac8542;}.cls-177{fill:#5b6989;}.cls-178{fill:#47629b;}.cls-179{fill:#e29912;}.cls-180{fill:#2155bc;}.cls-181{fill:#f1bb1d;}.cls-182{fill:#496399;}.cls-183{fill:#c78f2a;}.cls-184{fill:#f1a90e;}.cls-185{fill:#f1ad11;}.cls-186{fill:#b88a37;}.cls-187{fill:#7e766b;}.cls-188{fill:#b4883b;}.cls-189{fill:#f1cb29;}.cls-190{fill:#b0873e;}.cls-191{fill:#46629c;}.cls-192{fill:#ca9027;}.cls-193{fill:#325bad;}.cls-194{fill:#de9716;}.cls-195{fill:#857964;}.cls-196{fill:#3d5fa4;}.cls-197{fill:#897a61;}.cls-198{fill:#bc8b34;}.cls-199{fill:#8c7b5e;}.cls-200{fill:#f19f06;}.cls-201{fill:#f1d02d;}.cls-202{fill:#f1ba1c;}.cls-203{fill:#c38e2e;}.cls-204{fill:#54678f;}.cls-205{fill:#a3824a;}.cls-206{fill:#f1ca28;}.cls-207{fill:#606b85;}.cls-208{fill:#f1b719;}.cls-209{fill:#646d81;}.cls-210{fill:#e49910;}.cls-211{fill:#ea9c0b;}.cls-212{fill:#d5941e;}.cls-213{fill:#907d5b;}.cls-214{fill:#636c82;}.cls-215{fill:#837866;}.cls-216{fill:#4f6594;}.cls-217{fill:#2c59b3;}.cls-218{fill:#7f766a;}.cls-219{fill:#f1c726;}.cls-220{fill:#d3931f;}.cls-221{fill:#8b7b5f;}.cls-222{fill:#f1bc1d;}.cls-223{fill:#eb9c0a;}.cls-224{fill:#526691;}.cls-225{fill:#c58e2c;}.cls-226{fill:#f1b215;}.cls-227{fill:#f1aa0e;}.cls-228{fill:#4060a1;}.cls-229{fill:#cc9126;}.cls-230{fill:#3c5ea4;}.cls-231{fill:#2e59b1;}.cls-232{fill:#f1b316;}.cls-233{fill:#385da8;}.cls-234{fill:#a68347;}.cls-235{fill:#a0814c;}.cls-236{fill:#4160a0;}.cls-237{fill:#747274;}.cls-238{fill:#55678e;}.cls-239{fill:#42609f;}.cls-240{fill:#967f55;}.cls-241{fill:#9c8050;}.cls-242{fill:#f1cd2b;}.cls-243{fill:#4b6497;}.cls-244{fill:#f1c222;}.cls-245{fill:#2355ba;}.cls-246{fill:#f1a309;}.cls-247{fill:#2054bd;}.cls-248{fill:#f19e05;}.cls-249{fill:#e69a0f;}.cls-250{fill:#c28d2e;}.cls-251{fill:#887a62;}.cls-252{fill:#4a6398;}.cls-253{fill:#6a6f7d;}.cls-254{fill:#987f53;}.cls-255{fill:#616b84;}.cls-256{fill:#1f54be;}.cls-257{fill:#4c6496;}.cls-258{fill:#e79a0e;}.cls-259{fill:#cd9125;}.cls-260{fill:#395da7;}.cls-261{fill:#6d707a;}.cls-262{fill:#917d5a;}.cls-263{fill:#ae8640;}</style></defs><g id="Layer_1-2"><path class="cls-73" d="M142,85c-31.43,0-57,25.57-57,57s25.57,57,57,57,57-25.57,57-57-25.57-57-57-57ZM142,200c-31.98,0-58-26.02-58-58s26.02-58,58-58,58,26.02,58,58-26.02,58-58,58Z"/><path class="cls-201" d="M142,84.15c-31.9,0-57.85,25.95-57.85,57.85s25.95,57.85,57.85,57.85,57.85-25.95,57.85-57.85-25.95-57.85-57.85-57.85ZM142,200.85c-32.45,0-58.85-26.4-58.85-58.85s26.4-58.85,58.85-58.85,58.85,26.4,58.85,58.85-26.4,58.85-58.85,58.85Z"/><path class="cls-37" d="M142,83.31c-32.36,0-58.69,26.33-58.69,58.69s26.33,58.69,58.69,58.69,58.69-26.33,58.69-58.69-26.33-58.69-58.69-58.69ZM142,201.69c-32.91,0-59.69-26.78-59.69-59.69s26.78-59.69,59.69-59.69,59.69,26.78,59.69,59.69-26.78,59.69-59.69,59.69Z"/><path class="cls-95" d="M142,82.46c-32.83,0-59.54,26.71-59.54,59.54s26.71,59.54,59.54,59.54,59.54-26.71,59.54-59.54-26.71-59.54-59.54-59.54ZM142,202.54c-33.38,0-60.54-27.16-60.54-60.54s27.16-60.54,60.54-60.54,60.54,27.16,60.54,60.54-27.16,60.54-60.54,60.54Z"/><path class="cls-242" d="M142,81.62c-33.3,0-60.38,27.09-60.38,60.38s27.09,60.38,60.38,60.38,60.38-27.09,60.38-60.38-27.09-60.38-60.38-60.38ZM142,203.38c-33.85,0-61.38-27.54-61.38-61.38s27.54-61.38,61.38-61.38,61.38,27.54,61.38,61.38-27.54,61.38-61.38,61.38Z"/><path class="cls-56" d="M142,80.77c-33.76,0-61.23,27.47-61.23,61.23s27.47,61.23,61.23,61.23,61.23-27.47,61.23-61.23-27.47-61.23-61.23-61.23ZM142,204.23c-34.31,0-62.23-27.92-62.23-62.23s27.92-62.23,62.23-62.23,62.23,27.92,62.23,62.23-27.92,62.23-62.23,62.23Z"/><path class="cls-189" d="M142,79.92c-34.23,0-62.08,27.85-62.08,62.08s27.85,62.08,62.08,62.08,62.08-27.85,62.08-62.08-27.85-62.08-62.08-62.08ZM142,205.08c-34.78,0-63.08-28.3-63.08-63.08s28.3-63.08,63.08-63.08,63.08,28.3,63.08,63.08-28.3,63.08-63.08,63.08Z"/><path class="cls-206" d="M142,79.08c-34.7,0-62.92,28.23-62.92,62.92s28.23,62.92,62.92,62.92,62.92-28.23,62.92-62.92-28.23-62.92-62.92-62.92ZM142,205.92c-35.25,0-63.92-28.68-63.92-63.92s28.68-63.92,63.92-63.92,63.92,28.68,63.92,63.92-28.68,63.92-63.92,63.92Z"/><path class="cls-49" d="M142,78.23c-35.16,0-63.77,28.61-63.77,63.77s28.61,63.77,63.77,63.77,63.77-28.61,63.77-63.77-28.61-63.77-63.77-63.77ZM142,206.77c-35.71,0-64.77-29.06-64.77-64.77s29.06-64.77,64.77-64.77,64.77,29.06,64.77,64.77-29.06,64.77-64.77,64.77Z"/><path class="cls-131" d="M142,77.38c-35.63,0-64.62,28.99-64.62,64.62s28.99,64.62,64.62,64.62,64.62-28.99,64.62-64.62-28.99-64.62-64.62-64.62ZM142,207.62c-36.18,0-65.62-29.43-65.62-65.62s29.43-65.62,65.62-65.62,65.62,29.43,65.62,65.62-29.43,65.62-65.62,65.62Z"/><path class="cls-219" d="M142,76.54c-36.1,0-65.46,29.37-65.46,65.46s29.37,65.46,65.46,65.46,65.46-29.37,65.46-65.46-29.37-65.46-65.46-65.46ZM142,208.46c-36.65,0-66.46-29.81-66.46-66.46s29.81-66.46,66.46-66.46,66.46,29.81,66.46,66.46-29.81,66.46-66.46,66.46Z"/><path class="cls-31" d="M142,75.69c-36.56,0-66.31,29.75-66.31,66.31s29.75,66.31,66.31,66.31,66.31-29.75,66.31-66.31-29.75-66.31-66.31-66.31ZM142,209.31c-37.11,0-67.31-30.19-67.31-67.31s30.19-67.31,67.31-67.31,67.31,30.19,67.31,67.31-30.19,67.31-67.31,67.31Z"/><path class="cls-8" d="M142,74.85c-37.03,0-67.15,30.13-67.15,67.15s30.13,67.15,67.15,67.15,67.15-30.13,67.15-67.15-30.13-67.15-67.15-67.15ZM142,210.15c-37.58,0-68.15-30.57-68.15-68.15s30.57-68.15,68.15-68.15,68.15,30.57,68.15,68.15-30.57,68.15-68.15,68.15Z"/><path class="cls-110" d="M142,74c-37.5,0-68,30.5-68,68s30.5,68,68,68,68-30.5,68-68-30.5-68-68-68ZM142,211c-38.05,0-69-30.95-69-69s30.95-69,69-69,69,30.95,69,69-30.95,69-69,69Z"/><path class="cls-5" d="M142,73.15c-37.96,0-68.85,30.88-68.85,68.85s30.88,68.85,68.85,68.85,68.85-30.88,68.85-68.85-30.88-68.85-68.85-68.85ZM142,211.85c-38.51,0-69.85-31.33-69.85-69.85s31.33-69.85,69.85-69.85,69.85,31.33,69.85,69.85-31.33,69.85-69.85,69.85Z"/><path class="cls-244" d="M142,72.31c-38.43,0-69.69,31.26-69.69,69.69s31.26,69.69,69.69,69.69,69.69-31.26,69.69-69.69-31.26-69.69-69.69-69.69ZM142,212.69c-38.98,0-70.69-31.71-70.69-70.69s31.71-70.69,70.69-70.69,70.69,31.71,70.69,70.69-31.71,70.69-70.69,70.69Z"/><path class="cls-70" d="M142,71.46c-38.89,0-70.54,31.64-70.54,70.54s31.64,70.54,70.54,70.54,70.54-31.64,70.54-70.54-31.64-70.54-70.54-70.54ZM142,213.54c-39.45,0-71.54-32.09-71.54-71.54s32.09-71.54,71.54-71.54,71.54,32.09,71.54,71.54-32.09,71.54-71.54,71.54Z"/><path class="cls-112" d="M142,70.62c-39.36,0-71.38,32.02-71.38,71.38s32.02,71.38,71.38,71.38,71.38-32.02,71.38-71.38-32.02-71.38-71.38-71.38ZM142,214.38c-39.91,0-72.38-32.47-72.38-72.38s32.47-72.38,72.38-72.38,72.38,32.47,72.38,72.38-32.47,72.38-72.38,72.38Z"/><path class="cls-77" d="M142,69.77c-39.83,0-72.23,32.4-72.23,72.23s32.4,72.23,72.23,72.23,72.23-32.4,72.23-72.23-32.4-72.23-72.23-72.23ZM142,215.23c-40.38,0-73.23-32.85-73.23-73.23s32.85-73.23,73.23-73.23,73.23,32.85,73.23,73.23-32.85,73.23-73.23,73.23Z"/><path class="cls-54" d="M142,68.92c-40.29,0-73.08,32.78-73.08,73.08s32.78,73.08,73.08,73.08,73.08-32.78,73.08-73.08-32.78-73.08-73.08-73.08ZM142,216.08c-40.85,0-74.08-33.23-74.08-74.08s33.23-74.08,74.08-74.08,74.08,33.23,74.08,74.08-33.23,74.08-74.08,74.08Z"/><path class="cls-145" d="M142,68.08c-40.76,0-73.92,33.16-73.92,73.92s33.16,73.92,73.92,73.92,73.92-33.16,73.92-73.92-33.16-73.92-73.92-73.92ZM142,216.92c-41.31,0-74.92-33.61-74.92-74.92s33.61-74.92,74.92-74.92,74.92,33.61,74.92,74.92-33.61,74.92-74.92,74.92Z"/><path class="cls-222" d="M142,67.23c-41.23,0-74.77,33.54-74.77,74.77s33.54,74.77,74.77,74.77,74.77-33.54,74.77-74.77-33.54-74.77-74.77-74.77ZM142,217.77c-41.78,0-75.77-33.99-75.77-75.77s33.99-75.77,75.77-75.77,75.77,33.99,75.77,75.77-33.99,75.77-75.77,75.77Z"/><path class="cls-181" d="M142,66.38c-41.69,0-75.62,33.92-75.62,75.62s33.92,75.62,75.62,75.62,75.62-33.92,75.62-75.62-33.92-75.62-75.62-75.62ZM142,218.62c-42.25,0-76.62-34.37-76.62-76.62s34.37-76.62,76.62-76.62,76.62,34.37,76.62,76.62-34.37,76.62-76.62,76.62Z"/><path class="cls-202" d="M142,65.54c-42.16,0-76.46,34.3-76.46,76.46s34.3,76.46,76.46,76.46,76.46-34.3,76.46-76.46-34.3-76.46-76.46-76.46ZM142,219.46c-42.71,0-77.46-34.75-77.46-77.46s34.75-77.46,77.46-77.46,77.46,34.75,77.46,77.46-34.75,77.46-77.46,77.46Z"/><path class="cls-57" d="M142,64.69c-42.63,0-77.31,34.68-77.31,77.31s34.68,77.31,77.31,77.31,77.31-34.68,77.31-77.31-34.68-77.31-77.31-77.31ZM142,220.31c-43.18,0-78.31-35.13-78.31-78.31s35.13-78.31,78.31-78.31,78.31,35.13,78.31,78.31-35.13,78.31-78.31,78.31Z"/><path class="cls-62" d="M142,63.85c-43.09,0-78.15,35.06-78.15,78.15s35.06,78.15,78.15,78.15,78.15-35.06,78.15-78.15-35.06-78.15-78.15-78.15ZM142,221.15c-43.65,0-79.15-35.51-79.15-79.15s35.51-79.15,79.15-79.15,79.15,35.51,79.15,79.15-35.51,79.15-79.15,79.15Z"/><path class="cls-62" d="M142,63c-43.56,0-79,35.44-79,79s35.44,79,79,79,79-35.44,79-79-35.44-79-79-79ZM142,222c-44.11,0-80-35.89-80-80s35.89-80,80-80,80,35.89,80,80-35.89,80-80,80Z"/><path class="cls-208" d="M142,62.15c-44.03,0-79.85,35.82-79.85,79.85s35.82,79.85,79.85,79.85,79.85-35.82,79.85-79.85-35.82-79.85-79.85-79.85ZM142,222.85c-44.58,0-80.85-36.27-80.85-80.85s36.27-80.85,80.85-80.85,80.85,36.27,80.85,80.85-36.27,80.85-80.85,80.85Z"/><path class="cls-39" d="M142,61.31c-44.49,0-80.69,36.2-80.69,80.69s36.2,80.69,80.69,80.69,80.69-36.2,80.69-80.69-36.2-80.69-80.69-80.69ZM142,223.69c-45.05,0-81.69-36.65-81.69-81.69s36.65-81.69,81.69-81.69,81.69,36.65,81.69,81.69-36.65,81.69-81.69,81.69Z"/><path class="cls-90" d="M142,60.46c-44.96,0-81.54,36.58-81.54,81.54s36.58,81.54,81.54,81.54,81.54-36.58,81.54-81.54-36.58-81.54-81.54-81.54ZM142,224.54c-45.51,0-82.54-37.03-82.54-82.54s37.03-82.54,82.54-82.54,82.54,37.03,82.54,82.54-37.03,82.54-82.54,82.54Z"/><path class="cls-19" d="M142,59.62c-45.43,0-82.38,36.96-82.38,82.38s36.96,82.38,82.38,82.38,82.38-36.96,82.38-82.38-36.96-82.38-82.38-82.38ZM142,225.38c-45.98,0-83.38-37.41-83.38-83.38s37.41-83.38,83.38-83.38,83.38,37.41,83.38,83.38-37.41,83.38-83.38,83.38Z"/><path class="cls-232" d="M142,58.77c-45.89,0-83.23,37.34-83.23,83.23s37.34,83.23,83.23,83.23,83.23-37.34,83.23-83.23-37.34-83.23-83.23-83.23ZM142,226.23c-46.45,0-84.23-37.79-84.23-84.23s37.79-84.23,84.23-84.23,84.23,37.79,84.23,84.23-37.79,84.23-84.23,84.23Z"/><path class="cls-226" d="M142,57.92c-46.36,0-84.08,37.72-84.08,84.08s37.72,84.08,84.08,84.08,84.08-37.72,84.08-84.08-37.72-84.08-84.08-84.08ZM142,227.08c-46.91,0-85.08-38.17-85.08-85.08s38.17-85.08,85.08-85.08,85.08,38.17,85.08,85.08-38.17,85.08-85.08,85.08Z"/><path class="cls-2" d="M142,57.08c-46.83,0-84.92,38.1-84.92,84.92s38.1,84.92,84.92,84.92,84.92-38.1,84.92-84.92-38.1-84.92-84.92-84.92ZM142,227.92c-47.38,0-85.92-38.54-85.92-85.92s38.54-85.92,85.92-85.92,85.92,38.54,85.92,85.92-38.54,85.92-85.92,85.92Z"/><path class="cls-34" d="M142,56.23c-47.29,0-85.77,38.48-85.77,85.77s38.48,85.77,85.77,85.77,85.77-38.48,85.77-85.77-38.48-85.77-85.77-85.77ZM142,228.77c-47.84,0-86.77-38.92-86.77-86.77s38.92-86.77,86.77-86.77,86.77,38.92,86.77,86.77-38.92,86.77-86.77,86.77Z"/><path class="cls-132" d="M142,55.38c-47.76,0-86.62,38.86-86.62,86.62s38.86,86.62,86.62,86.62,86.62-38.86,86.62-86.62-38.86-86.62-86.62-86.62ZM142,229.62c-48.31,0-87.62-39.3-87.62-87.62s39.3-87.62,87.62-87.62,87.62,39.3,87.62,87.62-39.3,87.62-87.62,87.62Z"/><path class="cls-116" d="M142,54.54c-48.23,0-87.46,39.24-87.46,87.46s39.24,87.46,87.46,87.46,87.46-39.24,87.46-87.46-39.24-87.46-87.46-87.46ZM142,230.46c-48.78,0-88.46-39.68-88.46-88.46s39.68-88.46,88.46-88.46,88.46,39.68,88.46,88.46-39.68,88.46-88.46,88.46Z"/><path class="cls-185" d="M142,53.69c-48.69,0-88.31,39.61-88.31,88.31s39.61,88.31,88.31,88.31,88.31-39.61,88.31-88.31-39.61-88.31-88.31-88.31ZM142,231.31c-49.24,0-89.31-40.06-89.31-89.31s40.06-89.31,89.31-89.31,89.31,40.06,89.31,89.31-40.06,89.31-89.31,89.31Z"/><path class="cls-119" d="M142,52.85c-49.16,0-89.15,39.99-89.15,89.15s39.99,89.15,89.15,89.15,89.15-39.99,89.15-89.15-39.99-89.15-89.15-89.15ZM142,232.15c-49.71,0-90.15-40.44-90.15-90.15s40.44-90.15,90.15-90.15,90.15,40.44,90.15,90.15-40.44,90.15-90.15,90.15Z"/><path class="cls-134" d="M142,52c-49.63,0-90,40.37-90,90s40.37,90,90,90,90-40.37,90-90-40.37-90-90-90ZM142,233c-50.18,0-91-40.82-91-91s40.82-91,91-91,91,40.82,91,91-40.82,91-91,91Z"/><path class="cls-227" d="M142,51.15c-50.09,0-90.85,40.75-90.85,90.85s40.75,90.85,90.85,90.85,90.85-40.75,90.85-90.85-40.75-90.85-90.85-90.85ZM142,233.85c-50.64,0-91.85-41.2-91.85-91.85s41.2-91.85,91.85-91.85,91.85,41.2,91.85,91.85-41.2,91.85-91.85,91.85Z"/><path class="cls-184" d="M142,50.31c-50.56,0-91.69,41.13-91.69,91.69s41.13,91.69,91.69,91.69,91.69-41.13,91.69-91.69-41.13-91.69-91.69-91.69ZM142,234.69c-51.11,0-92.69-41.58-92.69-92.69s41.58-92.69,92.69-92.69,92.69,41.58,92.69,92.69-41.58,92.69-92.69,92.69Z"/><path class="cls-123" d="M142,49.46c-51.03,0-92.54,41.51-92.54,92.54s41.51,92.54,92.54,92.54,92.54-41.51,92.54-92.54-41.51-92.54-92.54-92.54ZM142,235.54c-51.58,0-93.54-41.96-93.54-93.54s41.96-93.54,93.54-93.54,93.54,41.96,93.54,93.54-41.96,93.54-93.54,93.54Z"/><path class="cls-102" d="M142,48.62c-51.49,0-93.38,41.89-93.38,93.38s41.89,93.38,93.38,93.38,93.38-41.89,93.38-93.38-41.89-93.38-93.38-93.38ZM142,236.38c-52.04,0-94.38-42.34-94.38-94.38s42.34-94.38,94.38-94.38,94.38,42.34,94.38,94.38-42.34,94.38-94.38,94.38Z"/><path class="cls-45" d="M142,47.77c-51.96,0-94.23,42.27-94.23,94.23s42.27,94.23,94.23,94.23,94.23-42.27,94.23-94.23-42.27-94.23-94.23-94.23ZM142,237.23c-52.51,0-95.23-42.72-95.23-95.23s42.72-95.23,95.23-95.23,95.23,42.72,95.23,95.23-42.72,95.23-95.23,95.23Z"/><path class="cls-26" d="M142,46.92c-52.43,0-95.08,42.65-95.08,95.08s42.65,95.08,95.08,95.08,95.08-42.65,95.08-95.08-42.65-95.08-95.08-95.08ZM142,238.08c-52.98,0-96.08-43.1-96.08-96.08s43.1-96.08,96.08-96.08,96.08,43.1,96.08,96.08-43.1,96.08-96.08,96.08Z"/><path class="cls-59" d="M142,46.08c-52.89,0-95.92,43.03-95.92,95.92s43.03,95.92,95.92,95.92,95.92-43.03,95.92-95.92-43.03-95.92-95.92-95.92ZM142,238.92c-53.44,0-96.92-43.48-96.92-96.92s43.48-96.92,96.92-96.92,96.92,43.48,96.92,96.92-43.48,96.92-96.92,96.92Z"/><path class="cls-246" d="M142,45.23c-53.36,0-96.77,43.41-96.77,96.77s43.41,96.77,96.77,96.77,96.77-43.41,96.77-96.77-43.41-96.77-96.77-96.77ZM142,239.77c-53.91,0-97.77-43.86-97.77-97.77s43.86-97.77,97.77-97.77,97.77,43.86,97.77,97.77-43.86,97.77-97.77,97.77Z"/><path class="cls-118" d="M142,44.38c-53.83,0-97.62,43.79-97.62,97.62s43.79,97.62,97.62,97.62,97.62-43.79,97.62-97.62-43.79-97.62-97.62-97.62ZM142,240.62c-54.38,0-98.62-44.24-98.62-98.62s44.24-98.62,98.62-98.62,98.62,44.24,98.62,98.62-44.24,98.62-98.62,98.62Z"/><path class="cls-103" d="M142,43.54c-54.29,0-98.46,44.17-98.46,98.46s44.17,98.46,98.46,98.46,98.46-44.17,98.46-98.46-44.17-98.46-98.46-98.46ZM142,241.46c-54.84,0-99.46-44.62-99.46-99.46s44.62-99.46,99.46-99.46,99.46,44.62,99.46,99.46-44.62,99.46-99.46,99.46Z"/><path class="cls-41" d="M142,42.69c-54.76,0-99.31,44.55-99.31,99.31s44.55,99.31,99.31,99.31,99.31-44.55,99.31-99.31-44.55-99.31-99.31-99.31ZM142,242.31c-55.31,0-100.31-45-100.31-100.31s45-100.31,100.31-100.31,100.31,45,100.31,100.31-45,100.31-100.31,100.31Z"/><path class="cls-200" d="M142,41.85c-55.22,0-100.15,44.93-100.15,100.15s44.93,100.15,100.15,100.15,100.15-44.93,100.15-100.15-44.93-100.15-100.15-100.15ZM142,243.15c-55.78,0-101.15-45.38-101.15-101.15s45.38-101.15,101.15-101.15,101.15,45.38,101.15,101.15-45.38,101.15-101.15,101.15Z"/><path class="cls-248" d="M142,41c-55.69,0-101,45.31-101,101s45.31,101,101,101,101-45.31,101-101-45.31-101-101-101ZM142,244c-56.24,0-102-45.76-102-102s45.76-102,102-102,102,45.76,102,102-45.76,102-102,102Z"/><path class="cls-63" d="M142,40.81c-55.8,0-101.19,45.39-101.19,101.19s45.39,101.19,101.19,101.19,101.19-45.39,101.19-101.19-45.39-101.19-101.19-101.19ZM142,244.19c-56.35,0-102.19-45.84-102.19-102.19s45.84-102.19,102.19-102.19,102.19,45.84,102.19,102.19-45.84,102.19-102.19,102.19Z"/><path class="cls-20" d="M142,40.62c-55.9,0-101.38,45.48-101.38,101.38s45.48,101.38,101.38,101.38,101.38-45.48,101.38-101.38-45.48-101.38-101.38-101.38ZM142,244.38c-56.45,0-102.38-45.93-102.38-102.38s45.93-102.38,102.38-102.38,102.38,45.93,102.38,102.38-45.93,102.38-102.38,102.38Z"/><path class="cls-72" d="M142,40.43c-56.01,0-101.57,45.56-101.57,101.57s45.56,101.57,101.57,101.57,101.57-45.56,101.57-101.57-45.56-101.57-101.57-101.57ZM142,244.57c-56.56,0-102.57-46.01-102.57-102.57s46.01-102.57,102.57-102.57,102.57,46.01,102.57,102.57-46.01,102.57-102.57,102.57Z"/><path class="cls-158" d="M142,40.24c-56.11,0-101.76,45.65-101.76,101.76s45.65,101.76,101.76,101.76,101.76-45.65,101.76-101.76-45.65-101.76-101.76-101.76ZM142,244.76c-56.66,0-102.76-46.1-102.76-102.76s46.1-102.76,102.76-102.76,102.76,46.1,102.76,102.76-46.1,102.76-102.76,102.76Z"/><path class="cls-105" d="M142,40.05c-56.21,0-101.95,45.73-101.95,101.95s45.73,101.95,101.95,101.95,101.95-45.73,101.95-101.95-45.73-101.95-101.95-101.95ZM142,244.95c-56.77,0-102.95-46.18-102.95-102.95s46.18-102.95,102.95-102.95,102.95,46.18,102.95,102.95-46.18,102.95-102.95,102.95Z"/><path class="cls-223" d="M142,39.86c-56.32,0-102.14,45.82-102.14,102.14s45.82,102.14,102.14,102.14,102.14-45.82,102.14-102.14-45.82-102.14-102.14-102.14ZM142,245.14c-56.87,0-103.14-46.27-103.14-103.14s46.27-103.14,103.14-103.14,103.14,46.27,103.14,103.14-46.27,103.14-103.14,103.14Z"/><path class="cls-211" d="M142,39.67c-56.42,0-102.33,45.9-102.33,102.33s45.9,102.33,102.33,102.33,102.33-45.9,102.33-102.33-45.9-102.33-102.33-102.33ZM142,245.33c-56.97,0-103.33-46.35-103.33-103.33s46.35-103.33,103.33-103.33,103.33,46.35,103.33,103.33-46.35,103.33-103.33,103.33Z"/><path class="cls-107" d="M142,39.48c-56.53,0-102.52,45.99-102.52,102.52s45.99,102.52,102.52,102.52,102.52-45.99,102.52-102.52-45.99-102.52-102.52-102.52ZM142,245.52c-57.08,0-103.52-46.44-103.52-103.52s46.44-103.52,103.52-103.52,103.52,46.44,103.52,103.52-46.44,103.52-103.52,103.52Z"/><path class="cls-146" d="M142,39.29c-56.63,0-102.71,46.07-102.71,102.71s46.07,102.71,102.71,102.71,102.71-46.07,102.71-102.71-46.07-102.71-102.71-102.71ZM142,245.71c-57.18,0-103.71-46.52-103.71-103.71s46.52-103.71,103.71-103.71,103.71,46.52,103.71,103.71-46.52,103.71-103.71,103.71Z"/><path class="cls-258" d="M142,39.1c-56.74,0-102.9,46.16-102.9,102.9s46.16,102.9,102.9,102.9,102.9-46.16,102.9-102.9-46.16-102.9-102.9-102.9ZM142,245.9c-57.29,0-103.9-46.61-103.9-103.9s46.61-103.9,103.9-103.9,103.9,46.61,103.9,103.9-46.61,103.9-103.9,103.9Z"/><path class="cls-249" d="M142,38.91c-56.84,0-103.09,46.24-103.09,103.09s46.24,103.09,103.09,103.09,103.09-46.24,103.09-103.09-46.24-103.09-103.09-103.09ZM142,246.09c-57.39,0-104.09-46.69-104.09-104.09s46.69-104.09,104.09-104.09,104.09,46.69,104.09,104.09-46.69,104.09-104.09,104.09Z"/><path class="cls-96" d="M142,38.73c-56.95,0-103.27,46.33-103.27,103.27s46.33,103.27,103.27,103.27,103.27-46.33,103.27-103.27-46.33-103.27-103.27-103.27ZM142,246.27c-57.5,0-104.27-46.78-104.27-104.27s46.78-104.27,104.27-104.27,104.27,46.78,104.27,104.27-46.78,104.27-104.27,104.27Z"/><path class="cls-210" d="M142,38.54c-57.05,0-103.46,46.41-103.46,103.46s46.41,103.46,103.46,103.46,103.46-46.41,103.46-103.46-46.41-103.46-103.46-103.46ZM142,246.46c-57.6,0-104.46-46.86-104.46-104.46s46.86-104.46,104.46-104.46,104.46,46.86,104.46,104.46-46.86,104.46-104.46,104.46Z"/><path class="cls-43" d="M142,38.35c-57.15,0-103.65,46.5-103.65,103.65s46.5,103.65,103.65,103.65,103.65-46.5,103.65-103.65-46.5-103.65-103.65-103.65ZM142,246.65c-57.71,0-104.65-46.95-104.65-104.65s46.95-104.65,104.65-104.65,104.65,46.95,104.65,104.65-46.95,104.65-104.65,104.65Z"/><path class="cls-179" d="M142,38.16c-57.26,0-103.84,46.58-103.84,103.84s46.58,103.84,103.84,103.84,103.84-46.58,103.84-103.84-46.58-103.84-103.84-103.84ZM142,246.84c-57.81,0-104.84-47.03-104.84-104.84s47.03-104.84,104.84-104.84,104.84,47.03,104.84,104.84-47.03,104.84-104.84,104.84Z"/><path class="cls-86" d="M142,37.97c-57.36,0-104.03,46.67-104.03,104.03s46.67,104.03,104.03,104.03,104.03-46.67,104.03-104.03-46.67-104.03-104.03-104.03ZM142,247.03c-57.92,0-105.03-47.12-105.03-105.03s47.12-105.03,105.03-105.03,105.03,47.12,105.03,105.03-47.12,105.03-105.03,105.03Z"/><path class="cls-61" d="M142,37.78c-57.47,0-104.22,46.75-104.22,104.22s46.75,104.22,104.22,104.22,104.22-46.75,104.22-104.22-46.75-104.22-104.22-104.22ZM142,247.22c-58.02,0-105.22-47.2-105.22-105.22s47.2-105.22,105.22-105.22,105.22,47.2,105.22,105.22-47.2,105.22-105.22,105.22Z"/><path class="cls-147" d="M142,37.59c-57.57,0-104.41,46.84-104.41,104.41s46.84,104.41,104.41,104.41,104.41-46.84,104.41-104.41-46.84-104.41-104.41-104.41ZM142,247.41c-58.12,0-105.41-47.29-105.41-105.41s47.29-105.41,105.41-105.41,105.41,47.29,105.41,105.41-47.29,105.41-105.41,105.41Z"/><path class="cls-194" d="M142,37.4c-57.68,0-104.6,46.92-104.6,104.6s46.92,104.6,104.6,104.6,104.6-46.92,104.6-104.6-46.92-104.6-104.6-104.6ZM142,247.6c-58.23,0-105.6-47.37-105.6-105.6s47.37-105.6,105.6-105.6,105.6,47.37,105.6,105.6-47.37,105.6-105.6,105.6Z"/><path class="cls-143" d="M142,37.21c-57.78,0-104.79,47.01-104.79,104.79s47.01,104.79,104.79,104.79,104.79-47.01,104.79-104.79-47.01-104.79-104.79-104.79ZM142,247.79c-58.33,0-105.79-47.46-105.79-105.79s47.46-105.79,105.79-105.79,105.79,47.46,105.79,105.79-47.46,105.79-105.79,105.79Z"/><path class="cls-33" d="M142,37.02c-57.89,0-104.98,47.09-104.98,104.98s47.09,104.98,104.98,104.98,104.98-47.09,104.98-104.98-47.09-104.98-104.98-104.98ZM142,247.98c-58.44,0-105.98-47.54-105.98-105.98s47.54-105.98,105.98-105.98,105.98,47.54,105.98,105.98-47.54,105.98-105.98,105.98Z"/><path class="cls-75" d="M142,36.83c-57.99,0-105.17,47.18-105.17,105.17s47.18,105.17,105.17,105.17,105.17-47.18,105.17-105.17-47.18-105.17-105.17-105.17ZM142,248.17c-58.54,0-106.17-47.63-106.17-106.17s47.63-106.17,106.17-106.17,106.17,47.63,106.17,106.17-47.63,106.17-106.17,106.17Z"/><path class="cls-171" d="M142,36.64c-58.1,0-105.36,47.26-105.36,105.36s47.26,105.36,105.36,105.36,105.36-47.26,105.36-105.36-47.26-105.36-105.36-105.36ZM142,248.36c-58.65,0-106.36-47.71-106.36-106.36s47.71-106.36,106.36-106.36,106.36,47.71,106.36,106.36-47.71,106.36-106.36,106.36Z"/><path class="cls-125" d="M142,36.45c-58.2,0-105.55,47.35-105.55,105.55s47.35,105.55,105.55,105.55,105.55-47.35,105.55-105.55-47.35-105.55-105.55-105.55ZM142,248.55c-58.75,0-106.55-47.8-106.55-106.55s47.8-106.55,106.55-106.55,106.55,47.8,106.55,106.55-47.8,106.55-106.55,106.55Z"/><path class="cls-60" d="M142,36.26c-58.3,0-105.74,47.43-105.74,105.74s47.43,105.74,105.74,105.74,105.74-47.43,105.74-105.74-47.43-105.74-105.74-105.74ZM142,248.74c-58.86,0-106.74-47.88-106.74-106.74s47.88-106.74,106.74-106.74,106.74,47.88,106.74,106.74-47.88,106.74-106.74,106.74Z"/><path class="cls-122" d="M142,36.07c-58.41,0-105.93,47.52-105.93,105.93s47.52,105.93,105.93,105.93,105.93-47.52,105.93-105.93-47.52-105.93-105.93-105.93ZM142,248.93c-58.96,0-106.93-47.97-106.93-106.93s47.97-106.93,106.93-106.93,106.93,47.97,106.93,106.93-47.97,106.93-106.93,106.93Z"/><path class="cls-51" d="M142,35.88c-58.51,0-106.12,47.6-106.12,106.12s47.6,106.12,106.12,106.12,106.12-47.6,106.12-106.12-47.6-106.12-106.12-106.12ZM142,249.12c-59.07,0-107.12-48.05-107.12-107.12s48.05-107.12,107.12-107.12,107.12,48.05,107.12,107.12-48.05,107.12-107.12,107.12Z"/><path class="cls-212" d="M142,35.69c-58.62,0-106.31,47.69-106.31,106.31s47.69,106.31,106.31,106.31,106.31-47.69,106.31-106.31-47.69-106.31-106.31-106.31ZM142,249.31c-59.17,0-107.31-48.14-107.31-107.31s48.14-107.31,107.31-107.31,107.31,48.14,107.31,107.31-48.14,107.31-107.31,107.31Z"/><path class="cls-1" d="M142,35.5c-58.72,0-106.5,47.77-106.5,106.5s47.77,106.5,106.5,106.5,106.5-47.77,106.5-106.5-47.77-106.5-106.5-106.5ZM142,249.5c-59.27,0-107.5-48.22-107.5-107.5s48.22-107.5,107.5-107.5,107.5,48.22,107.5,107.5-48.22,107.5-107.5,107.5Z"/><path class="cls-220" d="M142,35.31c-58.83,0-106.69,47.86-106.69,106.69s47.86,106.69,106.69,106.69,106.69-47.86,106.69-106.69-47.86-106.69-106.69-106.69ZM142,249.69c-59.38,0-107.69-48.31-107.69-107.69s48.31-107.69,107.69-107.69,107.69,48.31,107.69,107.69-48.31,107.69-107.69,107.69Z"/><path class="cls-166" d="M142,35.12c-58.93,0-106.88,47.94-106.88,106.88s47.94,106.88,106.88,106.88,106.88-47.94,106.88-106.88-47.94-106.88-106.88-106.88ZM142,249.88c-59.48,0-107.88-48.39-107.88-107.88s48.39-107.88,107.88-107.88,107.88,48.39,107.88,107.88-48.39,107.88-107.88,107.88Z"/><path class="cls-40" d="M142,34.93c-59.04,0-107.07,48.03-107.07,107.07s48.03,107.07,107.07,107.07,107.07-48.03,107.07-107.07-48.03-107.07-107.07-107.07ZM142,250.07c-59.59,0-108.07-48.48-108.07-108.07s48.48-108.07,108.07-108.07,108.07,48.48,108.07,108.07-48.48,108.07-108.07,108.07Z"/><path class="cls-152" d="M142,34.74c-59.14,0-107.26,48.11-107.26,107.26s48.11,107.26,107.26,107.26,107.26-48.11,107.26-107.26-48.11-107.26-107.26-107.26ZM142,250.26c-59.69,0-108.26-48.56-108.26-108.26s48.56-108.26,108.26-108.26,108.26,48.56,108.26,108.26-48.56,108.26-108.26,108.26Z"/><path class="cls-109" d="M142,34.55c-59.25,0-107.45,48.2-107.45,107.45s48.2,107.45,107.45,107.45,107.45-48.2,107.45-107.45-48.2-107.45-107.45-107.45ZM142,250.45c-59.8,0-108.45-48.65-108.45-108.45s48.65-108.45,108.45-108.45,108.45,48.65,108.45,108.45-48.65,108.45-108.45,108.45Z"/><path class="cls-71" d="M142,34.36c-59.35,0-107.64,48.29-107.64,107.64s48.29,107.64,107.64,107.64,107.64-48.29,107.64-107.64-48.29-107.64-107.64-107.64ZM142,250.64c-59.9,0-108.64-48.73-108.64-108.64s48.73-108.64,108.64-108.64,108.64,48.73,108.64,108.64-48.73,108.64-108.64,108.64Z"/><path class="cls-259" d="M142,34.18c-59.45,0-107.82,48.37-107.82,107.82s48.37,107.82,107.82,107.82,107.82-48.37,107.82-107.82-48.37-107.82-107.82-107.82ZM142,250.82c-60.01,0-108.82-48.82-108.82-108.82s48.82-108.82,108.82-108.82,108.82,48.82,108.82,108.82-48.82,108.82-108.82,108.82Z"/><path class="cls-229" d="M142,33.99c-59.56,0-108.01,48.46-108.01,108.01s48.46,108.01,108.01,108.01,108.01-48.46,108.01-108.01-48.46-108.01-108.01-108.01ZM142,251.01c-60.11,0-109.01-48.9-109.01-109.01s48.9-109.01,109.01-109.01,109.01,48.9,109.01,109.01-48.9,109.01-109.01,109.01Z"/><path class="cls-167" d="M142,33.8c-59.66,0-108.2,48.54-108.2,108.2s48.54,108.2,108.2,108.2,108.2-48.54,108.2-108.2-48.54-108.2-108.2-108.2ZM142,251.2c-60.22,0-109.2-48.99-109.2-109.2s48.99-109.2,109.2-109.2,109.2,48.99,109.2,109.2-48.99,109.2-109.2,109.2Z"/><path class="cls-192" d="M142,33.61c-59.77,0-108.39,48.63-108.39,108.39s48.63,108.39,108.39,108.39,108.39-48.63,108.39-108.39-48.63-108.39-108.39-108.39ZM142,251.39c-60.32,0-109.39-49.07-109.39-109.39s49.07-109.39,109.39-109.39,109.39,49.07,109.39,109.39-49.07,109.39-109.39,109.39Z"/><path class="cls-126" d="M142,33.42c-59.87,0-108.58,48.71-108.58,108.58s48.71,108.58,108.58,108.58,108.58-48.71,108.58-108.58-48.71-108.58-108.58-108.58ZM142,251.58c-60.42,0-109.58-49.16-109.58-109.58s49.16-109.58,109.58-109.58,109.58,49.16,109.58,109.58-49.16,109.58-109.58,109.58Z"/><path class="cls-130" d="M142,33.23c-59.98,0-108.77,48.8-108.77,108.77s48.8,108.77,108.77,108.77,108.77-48.8,108.77-108.77-48.8-108.77-108.77-108.77ZM142,251.77c-60.53,0-109.77-49.24-109.77-109.77s49.24-109.77,109.77-109.77,109.77,49.24,109.77,109.77-49.24,109.77-109.77,109.77Z"/><path class="cls-183" d="M142,33.04c-60.08,0-108.96,48.88-108.96,108.96s48.88,108.96,108.96,108.96,108.96-48.88,108.96-108.96-48.88-108.96-108.96-108.96ZM142,251.96c-60.63,0-109.96-49.33-109.96-109.96s49.33-109.96,109.96-109.96,109.96,49.33,109.96,109.96-49.33,109.96-109.96,109.96Z"/><path class="cls-82" d="M142,32.85c-60.19,0-109.15,48.97-109.15,109.15s48.97,109.15,109.15,109.15,109.15-48.97,109.15-109.15-48.97-109.15-109.15-109.15ZM142,252.15c-60.74,0-110.15-49.41-110.15-110.15S81.26,31.85,142,31.85s110.15,49.41,110.15,110.15-49.41,110.15-110.15,110.15Z"/><path class="cls-225" d="M142,32.66c-60.29,0-109.34,49.05-109.34,109.34s49.05,109.34,109.34,109.34,109.34-49.05,109.34-109.34-49.05-109.34-109.34-109.34ZM142,252.34c-60.84,0-110.34-49.5-110.34-110.34S81.16,31.66,142,31.66s110.34,49.5,110.34,110.34-49.5,110.34-110.34,110.34Z"/><path class="cls-111" d="M142,32.47c-60.4,0-109.53,49.14-109.53,109.53s49.14,109.53,109.53,109.53,109.53-49.14,109.53-109.53-49.14-109.53-109.53-109.53ZM142,252.53c-60.95,0-110.53-49.58-110.53-110.53S81.05,31.47,142,31.47s110.53,49.58,110.53,110.53-49.58,110.53-110.53,110.53Z"/><path class="cls-203" d="M142,32.28c-60.5,0-109.72,49.22-109.72,109.72s49.22,109.72,109.72,109.72,109.72-49.22,109.72-109.72-49.22-109.72-109.72-109.72ZM142,252.72c-61.05,0-110.72-49.67-110.72-110.72S80.95,31.28,142,31.28s110.72,49.67,110.72,110.72-49.67,110.72-110.72,110.72Z"/><path class="cls-250" d="M142,32.09c-60.6,0-109.91,49.31-109.91,109.91s49.31,109.91,109.91,109.91,109.91-49.31,109.91-109.91-49.31-109.91-109.91-109.91ZM142,252.91c-61.16,0-110.91-49.75-110.91-110.91S80.84,31.09,142,31.09s110.91,49.75,110.91,110.91-49.75,110.91-110.91,110.91Z"/><path class="cls-38" d="M142,31.9c-60.71,0-110.1,49.39-110.1,110.1s49.39,110.1,110.1,110.1,110.1-49.39,110.1-110.1S202.71,31.9,142,31.9ZM142,253.1c-61.26,0-111.1-49.84-111.1-111.1S80.74,30.9,142,30.9s111.1,49.84,111.1,111.1-49.84,111.1-111.1,111.1Z"/><path class="cls-104" d="M142,31.71c-60.81,0-110.29,49.48-110.29,110.29s49.48,110.29,110.29,110.29,110.29-49.48,110.29-110.29S202.81,31.71,142,31.71ZM142,253.29c-61.37,0-111.29-49.92-111.29-111.29S80.63,30.71,142,30.71s111.29,49.92,111.29,111.29-49.92,111.29-111.29,111.29Z"/><path class="cls-55" d="M142,31.52c-60.92,0-110.48,49.56-110.48,110.48s49.56,110.48,110.48,110.48,110.48-49.56,110.48-110.48S202.92,31.52,142,31.52ZM142,253.48c-61.47,0-111.48-50.01-111.48-111.48S80.53,30.52,142,30.52s111.48,50.01,111.48,111.48-50.01,111.48-111.48,111.48Z"/><path class="cls-160" d="M142,31.33c-61.02,0-110.67,49.65-110.67,110.67s49.65,110.67,110.67,110.67,110.67-49.65,110.67-110.67S203.02,31.33,142,31.33ZM142,253.67c-61.57,0-111.67-50.09-111.67-111.67S80.43,30.33,142,30.33s111.67,50.09,111.67,111.67-50.09,111.67-111.67,111.67Z"/><path class="cls-140" d="M142,31.14c-61.13,0-110.86,49.73-110.86,110.86s49.73,110.86,110.86,110.86,110.86-49.73,110.86-110.86S203.13,31.14,142,31.14ZM142,253.86c-61.68,0-111.86-50.18-111.86-111.86S80.32,30.14,142,30.14s111.86,50.18,111.86,111.86-50.18,111.86-111.86,111.86Z"/><path class="cls-198" d="M142,30.95c-61.23,0-111.05,49.82-111.05,111.05s49.82,111.05,111.05,111.05,111.05-49.82,111.05-111.05S203.23,30.95,142,30.95ZM142,254.05c-61.78,0-112.05-50.26-112.05-112.05S80.22,29.95,142,29.95s112.05,50.26,112.05,112.05-50.26,112.05-112.05,112.05Z"/><path class="cls-168" d="M142,30.76c-61.34,0-111.24,49.9-111.24,111.24s49.9,111.24,111.24,111.24,111.24-49.9,111.24-111.24S203.34,30.76,142,30.76ZM142,254.24c-61.89,0-112.24-50.35-112.24-112.24S80.11,29.76,142,29.76s112.24,50.35,112.24,112.24-50.35,112.24-112.24,112.24Z"/><path class="cls-64" d="M142,30.57c-61.44,0-111.43,49.99-111.43,111.43s49.99,111.43,111.43,111.43,111.43-49.99,111.43-111.43S203.44,30.57,142,30.57ZM142,254.43c-61.99,0-112.43-50.43-112.43-112.43S80.01,29.57,142,29.57s112.43,50.43,112.43,112.43-50.43,112.43-112.43,112.43Z"/><path class="cls-84" d="M142,30.38c-61.55,0-111.62,50.07-111.62,111.62s50.07,111.62,111.62,111.62,111.62-50.07,111.62-111.62S203.55,30.38,142,30.38ZM142,254.62c-62.1,0-112.62-50.52-112.62-112.62S79.9,29.38,142,29.38s112.62,50.52,112.62,112.62-50.52,112.62-112.62,112.62Z"/><path class="cls-186" d="M142,30.19c-61.65,0-111.81,50.16-111.81,111.81s50.16,111.81,111.81,111.81,111.81-50.16,111.81-111.81S203.65,30.19,142,30.19ZM142,254.81c-62.2,0-112.81-50.6-112.81-112.81S79.8,29.19,142,29.19s112.81,50.6,112.81,112.81-50.6,112.81-112.81,112.81Z"/><path class="cls-174" d="M142,30c-61.75,0-112,50.24-112,112s50.24,112,112,112,112-50.24,112-112S203.75,30,142,30ZM142,255c-62.31,0-113-50.69-113-113S79.69,29,142,29s113,50.69,113,113-50.69,113-113,113Z"/><path class="cls-136" d="M142,29.82c-61.86,0-112.18,50.33-112.18,112.18s50.33,112.18,112.18,112.18,112.18-50.33,112.18-112.18S203.86,29.82,142,29.82ZM142,255.18c-62.41,0-113.18-50.77-113.18-113.18S79.59,28.82,142,28.82s113.18,50.77,113.18,113.18-50.77,113.18-113.18,113.18Z"/><path class="cls-128" d="M142,29.63c-61.96,0-112.37,50.41-112.37,112.37s50.41,112.37,112.37,112.37,112.37-50.41,112.37-112.37S203.96,29.63,142,29.63ZM142,255.37c-62.51,0-113.37-50.86-113.37-113.37S79.49,28.63,142,28.63s113.37,50.86,113.37,113.37-50.86,113.37-113.37,113.37Z"/><path class="cls-188" d="M142,29.44c-62.07,0-112.56,50.5-112.56,112.56s50.5,112.56,112.56,112.56,112.56-50.5,112.56-112.56S204.07,29.44,142,29.44ZM142,255.56c-62.62,0-113.56-50.94-113.56-113.56S79.38,28.44,142,28.44s113.56,50.94,113.56,113.56-50.94,113.56-113.56,113.56Z"/><path class="cls-50" d="M142,29.25c-62.17,0-112.75,50.58-112.75,112.75s50.58,112.75,112.75,112.75,112.75-50.58,112.75-112.75S204.17,29.25,142,29.25ZM142,255.75c-62.72,0-113.75-51.03-113.75-113.75S79.28,28.25,142,28.25s113.75,51.03,113.75,113.75-51.03,113.75-113.75,113.75Z"/><path class="cls-29" d="M142,29.06c-62.28,0-112.94,50.67-112.94,112.94s50.67,112.94,112.94,112.94,112.94-50.67,112.94-112.94S204.28,29.06,142,29.06ZM142,255.94c-62.83,0-113.94-51.11-113.94-113.94S79.17,28.06,142,28.06s113.94,51.11,113.94,113.94-51.11,113.94-113.94,113.94Z"/><path class="cls-159" d="M142,28.87c-62.38,0-113.13,50.75-113.13,113.13s50.75,113.13,113.13,113.13,113.13-50.75,113.13-113.13S204.38,28.87,142,28.87ZM142,256.13c-62.93,0-114.13-51.2-114.13-114.13S79.07,27.87,142,27.87s114.13,51.2,114.13,114.13-51.2,114.13-114.13,114.13Z"/><path class="cls-190" d="M142,28.68c-62.49,0-113.32,50.84-113.32,113.32s50.84,113.32,113.32,113.32,113.32-50.84,113.32-113.32S204.49,28.68,142,28.68ZM142,256.32c-63.04,0-114.32-51.28-114.32-114.32S78.96,27.68,142,27.68s114.32,51.28,114.32,114.32-51.28,114.32-114.32,114.32Z"/><path class="cls-170" d="M142,28.49c-62.59,0-113.51,50.92-113.51,113.51s50.92,113.51,113.51,113.51,113.51-50.92,113.51-113.51S204.59,28.49,142,28.49ZM142,256.51c-63.14,0-114.51-51.37-114.51-114.51S78.86,27.49,142,27.49s114.51,51.37,114.51,114.51-51.37,114.51-114.51,114.51Z"/><path class="cls-263" d="M142,28.3c-62.7,0-113.7,51.01-113.7,113.7s51.01,113.7,113.7,113.7,113.7-51.01,113.7-113.7S204.7,28.3,142,28.3ZM142,256.7c-63.25,0-114.7-51.45-114.7-114.7S78.75,27.3,142,27.3s114.7,51.45,114.7,114.7-51.45,114.7-114.7,114.7Z"/><path class="cls-58" d="M142,28.11c-62.8,0-113.89,51.09-113.89,113.89s51.09,113.89,113.89,113.89,113.89-51.09,113.89-113.89S204.8,28.11,142,28.11ZM142,256.89c-63.35,0-114.89-51.54-114.89-114.89S78.65,27.11,142,27.11s114.89,51.54,114.89,114.89-51.54,114.89-114.89,114.89Z"/><path class="cls-176" d="M142,27.92c-62.9,0-114.08,51.18-114.08,114.08s51.18,114.08,114.08,114.08,114.08-51.18,114.08-114.08S204.9,27.92,142,27.92ZM142,257.08c-63.46,0-115.08-51.62-115.08-115.08S78.54,26.92,142,26.92s115.08,51.62,115.08,115.08-51.62,115.08-115.08,115.08Z"/><path class="cls-46" d="M142,27.73c-63.01,0-114.27,51.26-114.27,114.27s51.26,114.27,114.27,114.27,114.27-51.26,114.27-114.27S205.01,27.73,142,27.73ZM142,257.27c-63.56,0-115.27-51.71-115.27-115.27S78.44,26.73,142,26.73s115.27,51.71,115.27,115.27-51.71,115.27-115.27,115.27Z"/><path class="cls-83" d="M142,27.54c-63.11,0-114.46,51.35-114.46,114.46s51.35,114.46,114.46,114.46,114.46-51.35,114.46-114.46S205.11,27.54,142,27.54ZM142,257.46c-63.66,0-115.46-51.79-115.46-115.46S78.34,26.54,142,26.54s115.46,51.79,115.46,115.46-51.79,115.46-115.46,115.46Z"/><path class="cls-89" d="M142,27.35c-63.22,0-114.65,51.43-114.65,114.65s51.43,114.65,114.65,114.65,114.65-51.43,114.65-114.65S205.22,27.35,142,27.35ZM142,257.65c-63.77,0-115.65-51.88-115.65-115.65S78.23,26.35,142,26.35s115.65,51.88,115.65,115.65-51.88,115.65-115.65,115.65Z"/><path class="cls-74" d="M142,27.16c-63.32,0-114.84,51.52-114.84,114.84s51.52,114.84,114.84,114.84,114.84-51.52,114.84-114.84S205.32,27.16,142,27.16ZM142,257.84c-63.87,0-115.84-51.97-115.84-115.84S78.13,26.16,142,26.16s115.84,51.97,115.84,115.84-51.97,115.84-115.84,115.84Z"/><path class="cls-85" d="M142,26.97c-63.43,0-115.03,51.6-115.03,115.03s51.6,115.03,115.03,115.03,115.03-51.6,115.03-115.03S205.43,26.97,142,26.97ZM142,258.03c-63.98,0-116.03-52.05-116.03-116.03S78.02,25.97,142,25.97s116.03,52.05,116.03,116.03-52.05,116.03-116.03,116.03Z"/><path class="cls-234" d="M142,26.78c-63.53,0-115.22,51.69-115.22,115.22s51.69,115.22,115.22,115.22,115.22-51.69,115.22-115.22S205.53,26.78,142,26.78ZM142,258.22c-64.08,0-116.22-52.14-116.22-116.22S77.92,25.78,142,25.78s116.22,52.14,116.22,116.22-52.14,116.22-116.22,116.22Z"/><path class="cls-25" d="M142,26.59c-63.64,0-115.41,51.77-115.41,115.41s51.77,115.41,115.41,115.41,115.41-51.77,115.41-115.41S205.64,26.59,142,26.59ZM142,258.41c-64.19,0-116.41-52.22-116.41-116.41S77.81,25.59,142,25.59s116.41,52.22,116.41,116.41-52.22,116.41-116.41,116.41Z"/><path class="cls-15" d="M142,26.4c-63.74,0-115.6,51.86-115.6,115.6s51.86,115.6,115.6,115.6,115.6-51.86,115.6-115.6S205.74,26.4,142,26.4ZM142,258.6c-64.29,0-116.6-52.31-116.6-116.6S77.71,25.4,142,25.4s116.6,52.31,116.6,116.6-52.31,116.6-116.6,116.6Z"/><path class="cls-205" d="M142,26.21c-63.84,0-115.79,51.94-115.79,115.79s51.94,115.79,115.79,115.79,115.79-51.94,115.79-115.79S205.84,26.21,142,26.21ZM142,258.79c-64.4,0-116.79-52.39-116.79-116.79S77.6,25.21,142,25.21s116.79,52.39,116.79,116.79-52.39,116.79-116.79,116.79Z"/><path class="cls-124" d="M142,26.02c-63.95,0-115.98,52.03-115.98,115.98s52.03,115.98,115.98,115.98,115.98-52.03,115.98-115.98S205.95,26.02,142,26.02ZM142,258.98c-64.5,0-116.98-52.48-116.98-116.98S77.5,25.02,142,25.02s116.98,52.48,116.98,116.98-52.48,116.98-116.98,116.98Z"/><path class="cls-101" d="M142,25.83c-64.05,0-116.17,52.11-116.17,116.17s52.11,116.17,116.17,116.17,116.17-52.11,116.17-116.17S206.05,25.83,142,25.83ZM142,259.17c-64.61,0-117.17-52.56-117.17-117.17S77.39,24.83,142,24.83s117.17,52.56,117.17,117.17-52.56,117.17-117.17,117.17Z"/><path class="cls-235" d="M142,25.64c-64.16,0-116.36,52.2-116.36,116.36s52.2,116.36,116.36,116.36,116.36-52.2,116.36-116.36S206.16,25.64,142,25.64ZM142,259.36c-64.71,0-117.36-52.65-117.36-117.36S77.29,24.64,142,24.64s117.36,52.65,117.36,117.36-52.65,117.36-117.36,117.36Z"/><path class="cls-17" d="M142,25.45c-64.26,0-116.55,52.28-116.55,116.55s52.28,116.55,116.55,116.55,116.55-52.28,116.55-116.55S206.26,25.45,142,25.45ZM142,259.55c-64.81,0-117.55-52.73-117.55-117.55S77.19,24.45,142,24.45s117.55,52.73,117.55,117.55-52.73,117.55-117.55,117.55Z"/><path class="cls-163" d="M142,25.27c-64.37,0-116.73,52.37-116.73,116.73s52.37,116.73,116.73,116.73,116.73-52.37,116.73-116.73S206.37,25.27,142,25.27ZM142,259.73c-64.92,0-117.73-52.82-117.73-117.73S77.08,24.27,142,24.27s117.73,52.82,117.73,117.73-52.82,117.73-117.73,117.73Z"/><path class="cls-24" d="M142,25.08c-64.47,0-116.92,52.45-116.92,116.92s52.45,116.92,116.92,116.92,116.92-52.45,116.92-116.92S206.47,25.08,142,25.08ZM142,259.92c-65.02,0-117.92-52.9-117.92-117.92S76.98,24.08,142,24.08s117.92,52.9,117.92,117.92-52.9,117.92-117.92,117.92Z"/><path class="cls-241" d="M142,24.89c-64.58,0-117.11,52.54-117.11,117.11s52.54,117.11,117.11,117.11,117.11-52.54,117.11-117.11S206.58,24.89,142,24.89ZM142,260.11c-65.13,0-118.11-52.99-118.11-118.11S76.87,23.89,142,23.89s118.11,52.99,118.11,118.11-52.99,118.11-118.11,118.11Z"/><path class="cls-78" d="M142,24.7c-64.68,0-117.3,52.62-117.3,117.3s52.62,117.3,117.3,117.3,117.3-52.62,117.3-117.3S206.68,24.7,142,24.7ZM142,260.3c-65.23,0-118.3-53.07-118.3-118.3S76.77,23.7,142,23.7s118.3,53.07,118.3,118.3-53.07,118.3-118.3,118.3Z"/><path class="cls-154" d="M142,24.51c-64.79,0-117.49,52.71-117.49,117.49s52.71,117.49,117.49,117.49,117.49-52.71,117.49-117.49S206.79,24.51,142,24.51ZM142,260.49c-65.34,0-118.49-53.16-118.49-118.49S76.66,23.51,142,23.51s118.49,53.16,118.49,118.49-53.16,118.49-118.49,118.49Z"/><path class="cls-13" d="M142,24.32c-64.89,0-117.68,52.79-117.68,117.68s52.79,117.68,117.68,117.68,117.68-52.79,117.68-117.68S206.89,24.32,142,24.32ZM142,260.68c-65.44,0-118.68-53.24-118.68-118.68S76.56,23.32,142,23.32s118.68,53.24,118.68,118.68-53.24,118.68-118.68,118.68Z"/><path class="cls-254" d="M142,24.13c-64.99,0-117.87,52.88-117.87,117.87s52.88,117.87,117.87,117.87,117.87-52.88,117.87-117.87S206.99,24.13,142,24.13ZM142,260.87c-65.55,0-118.87-53.33-118.87-118.87S76.45,23.13,142,23.13s118.87,53.33,118.87,118.87-53.33,118.87-118.87,118.87Z"/><path class="cls-117" d="M142,23.94c-65.1,0-118.06,52.96-118.06,118.06s52.96,118.06,118.06,118.06,118.06-52.96,118.06-118.06S207.1,23.94,142,23.94ZM142,261.06c-65.65,0-119.06-53.41-119.06-119.06S76.35,22.94,142,22.94s119.06,53.41,119.06,119.06-53.41,119.06-119.06,119.06Z"/><path class="cls-240" d="M142,23.75c-65.2,0-118.25,53.05-118.25,118.25s53.05,118.25,118.25,118.25,118.25-53.05,118.25-118.25S207.2,23.75,142,23.75ZM142,261.25c-65.76,0-119.25-53.5-119.25-119.25S76.24,22.75,142,22.75s119.25,53.5,119.25,119.25-53.5,119.25-119.25,119.25Z"/><path class="cls-100" d="M142,23.56c-65.31,0-118.44,53.13-118.44,118.44s53.13,118.44,118.44,118.44,118.44-53.13,118.44-118.44S207.31,23.56,142,23.56ZM142,261.44c-65.86,0-119.44-53.58-119.44-119.44S76.14,22.56,142,22.56s119.44,53.58,119.44,119.44-53.58,119.44-119.44,119.44Z"/><path class="cls-27" d="M142,23.37c-65.41,0-118.63,53.22-118.63,118.63s53.22,118.63,118.63,118.63,118.63-53.22,118.63-118.63S207.41,23.37,142,23.37ZM142,261.63c-65.96,0-119.63-53.67-119.63-119.63S76.04,22.37,142,22.37s119.63,53.67,119.63,119.63-53.67,119.63-119.63,119.63Z"/><path class="cls-94" d="M142,23.18c-65.52,0-118.82,53.3-118.82,118.82s53.3,118.82,118.82,118.82,118.82-53.3,118.82-118.82S207.52,23.18,142,23.18ZM142,261.82c-66.07,0-119.82-53.75-119.82-119.82S75.93,22.18,142,22.18s119.82,53.75,119.82,119.82-53.75,119.82-119.82,119.82Z"/><path class="cls-87" d="M142,22.99c-65.62,0-119.01,53.39-119.01,119.01s53.39,119.01,119.01,119.01,119.01-53.39,119.01-119.01S207.62,22.99,142,22.99ZM142,262.01c-66.17,0-120.01-53.84-120.01-120.01S75.83,21.99,142,21.99s120.01,53.84,120.01,120.01-53.84,120.01-120.01,120.01Z"/><path class="cls-262" d="M142,22.8c-65.73,0-119.2,53.47-119.2,119.2s53.47,119.2,119.2,119.2,119.2-53.47,119.2-119.2S207.73,22.8,142,22.8ZM142,262.2c-66.28,0-120.2-53.92-120.2-120.2S75.72,21.8,142,21.8s120.2,53.92,120.2,120.2-53.92,120.2-120.2,120.2Z"/><path class="cls-213" d="M142,22.61c-65.83,0-119.39,53.56-119.39,119.39s53.56,119.39,119.39,119.39,119.39-53.56,119.39-119.39S207.83,22.61,142,22.61ZM142,262.39c-66.38,0-120.39-54.01-120.39-120.39S75.62,21.61,142,21.61s120.39,54.01,120.39,120.39-54.01,120.39-120.39,120.39Z"/><path class="cls-66" d="M142,22.42c-65.94,0-119.58,53.64-119.58,119.58s53.64,119.58,119.58,119.58,119.58-53.64,119.58-119.58S207.94,22.42,142,22.42ZM142,262.58c-66.49,0-120.58-54.09-120.58-120.58S75.51,21.42,142,21.42s120.58,54.09,120.58,120.58-54.09,120.58-120.58,120.58Z"/><path class="cls-48" d="M142,22.23c-66.04,0-119.77,53.73-119.77,119.77s53.73,119.77,119.77,119.77,119.77-53.73,119.77-119.77S208.04,22.23,142,22.23ZM142,262.77c-66.59,0-120.77-54.18-120.77-120.77S75.41,21.23,142,21.23s120.77,54.18,120.77,120.77-54.18,120.77-120.77,120.77Z"/><path class="cls-4" d="M142,22.04c-66.14,0-119.96,53.81-119.96,119.96s53.81,119.96,119.96,119.96,119.96-53.81,119.96-119.96S208.14,22.04,142,22.04ZM142,262.96c-66.7,0-120.96-54.26-120.96-120.96S75.3,21.04,142,21.04s120.96,54.26,120.96,120.96-54.26,120.96-120.96,120.96Z"/><path class="cls-199" d="M142,21.85c-66.25,0-120.15,53.9-120.15,120.15s53.9,120.15,120.15,120.15,120.15-53.9,120.15-120.15S208.25,21.85,142,21.85ZM142,263.15c-66.8,0-121.15-54.35-121.15-121.15S75.2,20.85,142,20.85s121.15,54.35,121.15,121.15-54.35,121.15-121.15,121.15Z"/><path class="cls-221" d="M142,21.66c-66.35,0-120.34,53.98-120.34,120.34s53.98,120.34,120.34,120.34,120.34-53.98,120.34-120.34S208.35,21.66,142,21.66ZM142,263.34c-66.91,0-121.34-54.43-121.34-121.34S75.09,20.66,142,20.66s121.34,54.43,121.34,121.34-54.43,121.34-121.34,121.34Z"/><path class="cls-175" d="M142,21.47c-66.46,0-120.53,54.07-120.53,120.53s54.07,120.53,120.53,120.53,120.53-54.07,120.53-120.53S208.46,21.47,142,21.47ZM142,263.53c-67.01,0-121.53-54.52-121.53-121.53S74.99,20.47,142,20.47s121.53,54.52,121.53,121.53-54.52,121.53-121.53,121.53Z"/><path class="cls-197" d="M142,21.28c-66.56,0-120.72,54.15-120.72,120.72s54.15,120.72,120.72,120.72,120.72-54.15,120.72-120.72S208.56,21.28,142,21.28ZM142,263.72c-67.11,0-121.72-54.6-121.72-121.72S74.89,20.28,142,20.28s121.72,54.6,121.72,121.72-54.6,121.72-121.72,121.72Z"/><path class="cls-251" d="M142,21.09c-66.67,0-120.91,54.24-120.91,120.91s54.24,120.91,120.91,120.91,120.91-54.24,120.91-120.91S208.67,21.09,142,21.09ZM142,263.91c-67.22,0-121.91-54.69-121.91-121.91S74.78,20.09,142,20.09s121.91,54.69,121.91,121.91-54.69,121.91-121.91,121.91Z"/><path class="cls-129" d="M142,20.91c-66.77,0-121.09,54.32-121.09,121.09s54.32,121.09,121.09,121.09,121.09-54.32,121.09-121.09S208.77,20.91,142,20.91ZM142,264.09c-67.32,0-122.09-54.77-122.09-122.09S74.68,19.91,142,19.91s122.09,54.77,122.09,122.09-54.77,122.09-122.09,122.09Z"/><path class="cls-135" d="M142,20.72c-66.88,0-121.28,54.41-121.28,121.28s54.41,121.28,121.28,121.28,121.28-54.41,121.28-121.28S208.88,20.72,142,20.72ZM142,264.28c-67.43,0-122.28-54.86-122.28-122.28S74.57,19.72,142,19.72s122.28,54.86,122.28,122.28-54.86,122.28-122.28,122.28Z"/><path class="cls-195" d="M142,20.53c-66.98,0-121.47,54.49-121.47,121.47s54.49,121.47,121.47,121.47,121.47-54.49,121.47-121.47S208.98,20.53,142,20.53ZM142,264.47c-67.53,0-122.47-54.94-122.47-122.47S74.47,19.53,142,19.53s122.47,54.94,122.47,122.47-54.94,122.47-122.47,122.47Z"/><path class="cls-144" d="M142,20.34c-67.09,0-121.66,54.58-121.66,121.66s54.58,121.66,121.66,121.66,121.66-54.58,121.66-121.66S209.09,20.34,142,20.34ZM142,264.66c-67.64,0-122.66-55.03-122.66-122.66S74.36,19.34,142,19.34s122.66,55.03,122.66,122.66-55.03,122.66-122.66,122.66Z"/><path class="cls-215" d="M142,20.15c-67.19,0-121.85,54.66-121.85,121.85s54.66,121.85,121.85,121.85,121.85-54.66,121.85-121.85S209.19,20.15,142,20.15ZM142,264.85c-67.74,0-122.85-55.11-122.85-122.85S74.26,19.15,142,19.15s122.85,55.11,122.85,122.85-55.11,122.85-122.85,122.85Z"/><path class="cls-23" d="M142,19.96c-67.29,0-122.04,54.75-122.04,122.04s54.75,122.04,122.04,122.04,122.04-54.75,122.04-122.04S209.29,19.96,142,19.96ZM142,265.04c-67.85,0-123.04-55.2-123.04-123.04S74.15,18.96,142,18.96s123.04,55.2,123.04,123.04-55.2,123.04-123.04,123.04Z"/><path class="cls-138" d="M142,19.77c-67.4,0-122.23,54.83-122.23,122.23s54.83,122.23,122.23,122.23,122.23-54.83,122.23-122.23S209.4,19.77,142,19.77ZM142,265.23c-67.95,0-123.23-55.28-123.23-123.23S74.05,18.77,142,18.77s123.23,55.28,123.23,123.23-55.28,123.23-123.23,123.23Z"/><path class="cls-18" d="M142,19.58c-67.5,0-122.42,54.92-122.42,122.42s54.92,122.42,122.42,122.42,122.42-54.92,122.42-122.42S209.5,19.58,142,19.58ZM142,265.42c-68.05,0-123.42-55.37-123.42-123.42S73.95,18.58,142,18.58s123.42,55.37,123.42,123.42-55.37,123.42-123.42,123.42Z"/><path class="cls-115" d="M142,19.39c-67.61,0-122.61,55-122.61,122.61s55,122.61,122.61,122.61,122.61-55,122.61-122.61S209.61,19.39,142,19.39ZM142,265.61c-68.16,0-123.61-55.45-123.61-123.61S73.84,18.39,142,18.39s123.61,55.45,123.61,123.61-55.45,123.61-123.61,123.61Z"/><path class="cls-218" d="M142,19.2c-67.71,0-122.8,55.09-122.8,122.8s55.09,122.8,122.8,122.8,122.8-55.09,122.8-122.8S209.71,19.2,142,19.2ZM142,265.8c-68.26,0-123.8-55.54-123.8-123.8S73.74,18.2,142,18.2s123.8,55.54,123.8,123.8-55.54,123.8-123.8,123.8Z"/><path class="cls-187" d="M142,19.01c-67.82,0-122.99,55.17-122.99,122.99s55.17,122.99,122.99,122.99,122.99-55.17,122.99-122.99S209.82,19.01,142,19.01ZM142,265.99c-68.37,0-123.99-55.62-123.99-123.99S73.63,18.01,142,18.01s123.99,55.62,123.99,123.99-55.62,123.99-123.99,123.99Z"/><path class="cls-161" d="M142,18.82c-67.92,0-123.18,55.26-123.18,123.18s55.26,123.18,123.18,123.18,123.18-55.26,123.18-123.18S209.92,18.82,142,18.82ZM142,266.18c-68.47,0-124.18-55.71-124.18-124.18S73.53,17.82,142,17.82s124.18,55.71,124.18,124.18-55.71,124.18-124.18,124.18Z"/><path class="cls-76" d="M142,18.63c-68.03,0-123.37,55.34-123.37,123.37s55.34,123.37,123.37,123.37,123.37-55.34,123.37-123.37S210.03,18.63,142,18.63ZM142,266.37c-68.58,0-124.37-55.79-124.37-124.37S73.42,17.63,142,17.63s124.37,55.79,124.37,124.37-55.79,124.37-124.37,124.37Z"/><path class="cls-81" d="M142,18.44c-68.13,0-123.56,55.43-123.56,123.56s55.43,123.56,123.56,123.56,123.56-55.43,123.56-123.56S210.13,18.44,142,18.44ZM142,266.56c-68.68,0-124.56-55.88-124.56-124.56S73.32,17.44,142,17.44s124.56,55.88,124.56,124.56-55.88,124.56-124.56,124.56Z"/><path class="cls-165" d="M142,18.25c-68.24,0-123.75,55.51-123.75,123.75s55.51,123.75,123.75,123.75,123.75-55.51,123.75-123.75S210.24,18.25,142,18.25ZM142,266.75c-68.79,0-124.75-55.96-124.75-124.75S73.21,17.25,142,17.25s124.75,55.96,124.75,124.75-55.96,124.75-124.75,124.75Z"/><path class="cls-153" d="M142,18.06c-68.34,0-123.94,55.6-123.94,123.94s55.6,123.94,123.94,123.94,123.94-55.6,123.94-123.94S210.34,18.06,142,18.06ZM142,266.94c-68.89,0-124.94-56.05-124.94-124.94S73.11,17.06,142,17.06s124.94,56.05,124.94,124.94-56.05,124.94-124.94,124.94Z"/><path class="cls-108" d="M142,17.87c-68.44,0-124.13,55.68-124.13,124.13s55.68,124.13,124.13,124.13,124.13-55.68,124.13-124.13S210.44,17.87,142,17.87ZM142,267.13c-69,0-125.13-56.13-125.13-125.13S73,16.87,142,16.87s125.13,56.13,125.13,125.13-56.13,125.13-125.13,125.13Z"/><path class="cls-79" d="M142,17.68c-68.55,0-124.32,55.77-124.32,124.32s55.77,124.32,124.32,124.32,124.32-55.77,124.32-124.32S210.55,17.68,142,17.68ZM142,267.32c-69.1,0-125.32-56.22-125.32-125.32S72.9,16.68,142,16.68s125.32,56.22,125.32,125.32-56.22,125.32-125.32,125.32Z"/><path class="cls-99" d="M142,17.49c-68.65,0-124.51,55.85-124.51,124.51s55.85,124.51,124.51,124.51,124.51-55.85,124.51-124.51S210.65,17.49,142,17.49ZM142,267.51c-69.2,0-125.51-56.3-125.51-125.51S72.8,16.49,142,16.49s125.51,56.3,125.51,125.51-56.3,125.51-125.51,125.51Z"/><path class="cls-150" d="M142,17.3c-68.76,0-124.7,55.94-124.7,124.7s55.94,124.7,124.7,124.7,124.7-55.94,124.7-124.7S210.76,17.3,142,17.3ZM142,267.7c-69.31,0-125.7-56.39-125.7-125.7S72.69,16.3,142,16.3s125.7,56.39,125.7,125.7-56.39,125.7-125.7,125.7Z"/><path class="cls-237" d="M142,17.11c-68.86,0-124.89,56.02-124.89,124.89s56.02,124.89,124.89,124.89,124.89-56.02,124.89-124.89S210.86,17.11,142,17.11ZM142,267.89c-69.41,0-125.89-56.47-125.89-125.89S72.59,16.11,142,16.11s125.89,56.47,125.89,125.89-56.47,125.89-125.89,125.89Z"/><path class="cls-98" d="M142,16.92c-68.97,0-125.08,56.11-125.08,125.08s56.11,125.08,125.08,125.08,125.08-56.11,125.08-125.08S210.97,16.92,142,16.92ZM142,268.08c-69.52,0-126.08-56.56-126.08-126.08S72.48,15.92,142,15.92s126.08,56.56,126.08,126.08-56.56,126.08-126.08,126.08Z"/><path class="cls-169" d="M142,16.73c-69.07,0-125.27,56.19-125.27,125.27s56.19,125.27,125.27,125.27,125.27-56.19,125.27-125.27S211.07,16.73,142,16.73ZM142,268.27c-69.62,0-126.27-56.64-126.27-126.27S72.38,15.73,142,15.73s126.27,56.64,126.27,126.27-56.64,126.27-126.27,126.27Z"/><path class="cls-9" d="M142,16.55c-69.18,0-125.45,56.28-125.45,125.45s56.28,125.45,125.45,125.45,125.45-56.28,125.45-125.45S211.18,16.55,142,16.55ZM142,268.45c-69.73,0-126.45-56.73-126.45-126.45S72.27,15.55,142,15.55s126.45,56.73,126.45,126.45-56.73,126.45-126.45,126.45Z"/><path class="cls-53" d="M142,16.36c-69.28,0-125.64,56.36-125.64,125.64s56.36,125.64,125.64,125.64,125.64-56.36,125.64-125.64S211.28,16.36,142,16.36ZM142,268.64c-69.83,0-126.64-56.81-126.64-126.64S72.17,15.36,142,15.36s126.64,56.81,126.64,126.64-56.81,126.64-126.64,126.64Z"/><path class="cls-44" d="M142,16.17c-69.39,0-125.83,56.45-125.83,125.83s56.45,125.83,125.83,125.83,125.83-56.45,125.83-125.83S211.39,16.17,142,16.17ZM142,268.83c-69.94,0-126.83-56.9-126.83-126.83S72.06,15.17,142,15.17s126.83,56.9,126.83,126.83-56.9,126.83-126.83,126.83Z"/><path class="cls-11" d="M142,15.98c-69.49,0-126.02,56.53-126.02,126.02s56.53,126.02,126.02,126.02,126.02-56.53,126.02-126.02S211.49,15.98,142,15.98ZM142,269.02c-70.04,0-127.02-56.98-127.02-127.02S71.96,14.98,142,14.98s127.02,56.98,127.02,127.02-56.98,127.02-127.02,127.02Z"/><path class="cls-261" d="M142,15.79c-69.59,0-126.21,56.62-126.21,126.21s56.62,126.21,126.21,126.21,126.21-56.62,126.21-126.21S211.59,15.79,142,15.79ZM142,269.21c-70.15,0-127.21-57.07-127.21-127.21S71.85,14.79,142,14.79s127.21,57.07,127.21,127.21-57.07,127.21-127.21,127.21Z"/><path class="cls-162" d="M142,15.6c-69.7,0-126.4,56.7-126.4,126.4s56.7,126.4,126.4,126.4,126.4-56.7,126.4-126.4S211.7,15.6,142,15.6ZM142,269.4c-70.25,0-127.4-57.15-127.4-127.4S71.75,14.6,142,14.6s127.4,57.15,127.4,127.4-57.15,127.4-127.4,127.4Z"/><path class="cls-172" d="M142,15.41c-69.8,0-126.59,56.79-126.59,126.59s56.79,126.59,126.59,126.59,126.59-56.79,126.59-126.59S211.8,15.41,142,15.41ZM142,269.59c-70.35,0-127.59-57.24-127.59-127.59S71.65,14.41,142,14.41s127.59,57.24,127.59,127.59-57.24,127.59-127.59,127.59Z"/><path class="cls-253" d="M142,15.22c-69.91,0-126.78,56.87-126.78,126.78s56.87,126.78,126.78,126.78,126.78-56.87,126.78-126.78S211.91,15.22,142,15.22ZM142,269.78c-70.46,0-127.78-57.32-127.78-127.78S71.54,14.22,142,14.22s127.78,57.32,127.78,127.78-57.32,127.78-127.78,127.78Z"/><path class="cls-148" d="M142,15.03c-70.01,0-126.97,56.96-126.97,126.97s56.96,126.97,126.97,126.97,126.97-56.96,126.97-126.97S212.01,15.03,142,15.03ZM142,269.97c-70.56,0-127.97-57.41-127.97-127.97S71.44,14.03,142,14.03s127.97,57.41,127.97,127.97-57.41,127.97-127.97,127.97Z"/><path class="cls-139" d="M142,14.84c-70.12,0-127.16,57.04-127.16,127.16s57.04,127.16,127.16,127.16,127.16-57.04,127.16-127.16S212.12,14.84,142,14.84ZM142,270.16c-70.67,0-128.16-57.49-128.16-128.16S71.33,13.84,142,13.84s128.16,57.49,128.16,128.16-57.49,128.16-128.16,128.16Z"/><path class="cls-10" d="M142,14.65c-70.22,0-127.35,57.13-127.35,127.35s57.13,127.35,127.35,127.35,127.35-57.13,127.35-127.35S212.22,14.65,142,14.65ZM142,270.35c-70.77,0-128.35-57.58-128.35-128.35S71.23,13.65,142,13.65s128.35,57.58,128.35,128.35-57.58,128.35-128.35,128.35Z"/><path class="cls-91" d="M142,14.46c-70.33,0-127.54,57.21-127.54,127.54s57.21,127.54,127.54,127.54,127.54-57.21,127.54-127.54S212.33,14.46,142,14.46ZM142,270.54c-70.88,0-128.54-57.66-128.54-128.54S71.12,13.46,142,13.46s128.54,57.66,128.54,128.54-57.66,128.54-128.54,128.54Z"/><path class="cls-141" d="M142,14.27c-70.43,0-127.73,57.3-127.73,127.73s57.3,127.73,127.73,127.73,127.73-57.3,127.73-127.73S212.43,14.27,142,14.27ZM142,270.73c-70.98,0-128.73-57.75-128.73-128.73S71.02,13.27,142,13.27s128.73,57.75,128.73,128.73-57.75,128.73-128.73,128.73Z"/><path class="cls-209" d="M142,14.08c-70.53,0-127.92,57.38-127.92,127.92s57.38,127.92,127.92,127.92,127.92-57.38,127.92-127.92S212.53,14.08,142,14.08ZM142,270.92c-71.09,0-128.92-57.83-128.92-128.92S70.91,13.08,142,13.08s128.92,57.83,128.92,128.92-57.83,128.92-128.92,128.92Z"/><path class="cls-214" d="M142,13.89C71.36,13.89,13.89,71.36,13.89,142s57.47,128.11,128.11,128.11,128.11-57.47,128.11-128.11S212.64,13.89,142,13.89ZM142,271.11c-71.19,0-129.11-57.92-129.11-129.11S70.81,12.89,142,12.89s129.11,57.92,129.11,129.11-57.92,129.11-129.11,129.11Z"/><path class="cls-92" d="M142,13.7C71.26,13.7,13.7,71.26,13.7,142s57.55,128.3,128.3,128.3,128.3-57.55,128.3-128.3S212.74,13.7,142,13.7ZM142,271.3c-71.3,0-129.3-58-129.3-129.3S70.7,12.7,142,12.7s129.3,58,129.3,129.3-58,129.3-129.3,129.3Z"/><path class="cls-255" d="M142,13.51C71.15,13.51,13.51,71.15,13.51,142s57.64,128.49,128.49,128.49,128.49-57.64,128.49-128.49S212.85,13.51,142,13.51ZM142,271.49c-71.4,0-129.49-58.09-129.49-129.49S70.6,12.51,142,12.51s129.49,58.09,129.49,129.49-58.09,129.49-129.49,129.49Z"/><path class="cls-207" d="M142,13.32C71.05,13.32,13.32,71.05,13.32,142s57.72,128.68,128.68,128.68,128.68-57.72,128.68-128.68S212.95,13.32,142,13.32ZM142,271.68c-71.5,0-129.68-58.17-129.68-129.68S70.5,12.32,142,12.32s129.68,58.17,129.68,129.68-58.17,129.68-129.68,129.68Z"/><path class="cls-3" d="M142,13.13C70.94,13.13,13.13,70.94,13.13,142s57.81,128.87,128.87,128.87,128.87-57.81,128.87-128.87S213.06,13.13,142,13.13ZM142,271.87c-71.61,0-129.87-58.26-129.87-129.87S70.39,12.13,142,12.13s129.87,58.26,129.87,129.87-58.26,129.87-129.87,129.87Z"/><path class="cls-113" d="M142,12.94C70.84,12.94,12.94,70.84,12.94,142s57.89,129.06,129.06,129.06,129.06-57.89,129.06-129.06S213.16,12.94,142,12.94ZM142,272.06c-71.71,0-130.06-58.34-130.06-130.06S70.29,11.94,142,11.94s130.06,58.34,130.06,130.06-58.34,130.06-130.06,130.06Z"/><path class="cls-12" d="M142,12.75C70.73,12.75,12.75,70.73,12.75,142s57.98,129.25,129.25,129.25,129.25-57.98,129.25-129.25S213.27,12.75,142,12.75ZM142,272.25c-71.82,0-130.25-58.43-130.25-130.25S70.18,11.75,142,11.75s130.25,58.43,130.25,130.25-58.43,130.25-130.25,130.25Z"/><path class="cls-97" d="M142,12.56C70.63,12.56,12.56,70.63,12.56,142s58.06,129.44,129.44,129.44,129.44-58.06,129.44-129.44S213.37,12.56,142,12.56ZM142,272.44c-71.92,0-130.44-58.51-130.44-130.44S70.08,11.56,142,11.56s130.44,58.51,130.44,130.44-58.51,130.44-130.44,130.44Z"/><path class="cls-177" d="M142,12.37C70.52,12.37,12.37,70.52,12.37,142s58.15,129.63,129.63,129.63,129.63-58.15,129.63-129.63S213.48,12.37,142,12.37ZM142,272.63c-72.03,0-130.63-58.6-130.63-130.63S69.97,11.37,142,11.37s130.63,58.6,130.63,130.63-58.6,130.63-130.63,130.63Z"/><path class="cls-6" d="M142,12.18C70.42,12.18,12.18,70.42,12.18,142s58.23,129.82,129.82,129.82,129.82-58.23,129.82-129.82S213.58,12.18,142,12.18ZM142,272.82c-72.13,0-130.82-58.68-130.82-130.82S69.87,11.18,142,11.18s130.82,58.68,130.82,130.82-58.68,130.82-130.82,130.82Z"/><path class="cls-69" d="M142,12C70.32,12,12,70.32,12,142s58.32,130,130,130,130-58.32,130-130S213.68,12,142,12ZM142,273c-72.24,0-131-58.77-131-131S69.76,11,142,11s131,58.77,131,131-58.77,131-131,131Z"/><path class="cls-42" d="M142,11.81C70.21,11.81,11.81,70.21,11.81,142s58.41,130.19,130.19,130.19,130.19-58.41,130.19-130.19S213.79,11.81,142,11.81ZM142,273.19c-72.34,0-131.19-58.85-131.19-131.19S69.66,10.81,142,10.81s131.19,58.85,131.19,131.19-58.85,131.19-131.19,131.19Z"/><path class="cls-22" d="M142,11.62C70.11,11.62,11.62,70.11,11.62,142s58.49,130.38,130.38,130.38,130.38-58.49,130.38-130.38S213.89,11.62,142,11.62ZM142,273.38c-72.45,0-131.38-58.94-131.38-131.38S69.55,10.62,142,10.62s131.38,58.94,131.38,131.38-58.94,131.38-131.38,131.38Z"/><path class="cls-16" d="M142,11.43C70,11.43,11.43,70,11.43,142s58.58,130.57,130.57,130.57,130.57-58.58,130.57-130.57S214,11.43,142,11.43ZM142,273.57c-72.55,0-131.57-59.02-131.57-131.57S69.45,10.43,142,10.43s131.57,59.02,131.57,131.57-59.02,131.57-131.57,131.57Z"/><path class="cls-238" d="M142,11.24C69.9,11.24,11.24,69.9,11.24,142s58.66,130.76,130.76,130.76,130.76-58.66,130.76-130.76S214.1,11.24,142,11.24ZM142,273.76c-72.65,0-131.76-59.11-131.76-131.76S69.35,10.24,142,10.24s131.76,59.11,131.76,131.76-59.11,131.76-131.76,131.76Z"/><path class="cls-204" d="M142,11.05C69.79,11.05,11.05,69.79,11.05,142s58.75,130.95,130.95,130.95,130.95-58.75,130.95-130.95S214.21,11.05,142,11.05ZM142,273.95c-72.76,0-131.95-59.19-131.95-131.95S69.24,10.05,142,10.05s131.95,59.19,131.95,131.95-59.19,131.95-131.95,131.95Z"/><path class="cls-35" d="M142,10.86C69.69,10.86,10.86,69.69,10.86,142s58.83,131.14,131.14,131.14,131.14-58.83,131.14-131.14S214.31,10.86,142,10.86ZM142,274.14c-72.86,0-132.14-59.28-132.14-132.14S69.14,9.86,142,9.86s132.14,59.28,132.14,132.14-59.28,132.14-132.14,132.14Z"/><path class="cls-224" d="M142,10.67C69.58,10.67,10.67,69.58,10.67,142s58.92,131.33,131.33,131.33,131.33-58.92,131.33-131.33S214.42,10.67,142,10.67ZM142,274.33c-72.97,0-132.33-59.36-132.33-132.33S69.03,9.67,142,9.67s132.33,59.36,132.33,132.33-59.36,132.33-132.33,132.33Z"/><path class="cls-14" d="M142,10.48C69.48,10.48,10.48,69.48,10.48,142s59,131.52,131.52,131.52,131.52-59,131.52-131.52S214.52,10.48,142,10.48ZM142,274.52c-73.07,0-132.52-59.45-132.52-132.52S68.93,9.48,142,9.48s132.52,59.45,132.52,132.52-59.45,132.52-132.52,132.52Z"/><path class="cls-65" d="M142,10.29C69.37,10.29,10.29,69.37,10.29,142s59.09,131.71,131.71,131.71,131.71-59.09,131.71-131.71S214.63,10.29,142,10.29ZM142,274.71c-73.18,0-132.71-59.53-132.71-132.71S68.82,9.29,142,9.29s132.71,59.53,132.71,132.71-59.53,132.71-132.71,132.71Z"/><path class="cls-216" d="M142,10.1C69.27,10.1,10.1,69.27,10.1,142s59.17,131.9,131.9,131.9,131.9-59.17,131.9-131.9S214.73,10.1,142,10.1ZM142,274.9c-73.28,0-132.9-59.62-132.9-132.9S68.72,9.1,142,9.1s132.9,59.62,132.9,132.9-59.62,132.9-132.9,132.9Z"/><path class="cls-30" d="M142,9.91C69.17,9.91,9.91,69.17,9.91,142s59.26,132.09,132.09,132.09,132.09-59.26,132.09-132.09S214.83,9.91,142,9.91ZM142,275.09c-73.39,0-133.09-59.7-133.09-133.09S68.61,8.91,142,8.91s133.09,59.7,133.09,133.09-59.7,133.09-133.09,133.09Z"/><path class="cls-80" d="M142,9.72C69.06,9.72,9.72,69.06,9.72,142s59.34,132.28,132.28,132.28,132.28-59.34,132.28-132.28S214.94,9.72,142,9.72ZM142,275.28c-73.49,0-133.28-59.79-133.28-133.28S68.51,8.72,142,8.72s133.28,59.79,133.28,133.28-59.79,133.28-133.28,133.28Z"/><path class="cls-257" d="M142,9.53C68.96,9.53,9.53,68.96,9.53,142s59.43,132.47,132.47,132.47,132.47-59.43,132.47-132.47S215.04,9.53,142,9.53ZM142,275.47c-73.6,0-133.47-59.87-133.47-133.47S68.4,8.53,142,8.53s133.47,59.87,133.47,133.47-59.87,133.47-133.47,133.47Z"/><path class="cls-243" d="M142,9.34C68.85,9.34,9.34,68.85,9.34,142s59.51,132.66,132.66,132.66,132.66-59.51,132.66-132.66S215.15,9.34,142,9.34ZM142,275.66c-73.7,0-133.66-59.96-133.66-133.66S68.3,8.34,142,8.34s133.66,59.96,133.66,133.66-59.96,133.66-133.66,133.66Z"/><path class="cls-252" d="M142,9.15C68.75,9.15,9.15,68.75,9.15,142s59.6,132.85,132.85,132.85,132.85-59.6,132.85-132.85S215.25,9.15,142,9.15ZM142,275.85c-73.8,0-133.85-60.04-133.85-133.85S68.2,8.15,142,8.15s133.85,60.04,133.85,133.85-60.04,133.85-133.85,133.85Z"/><path class="cls-182" d="M142,8.96C68.64,8.96,8.96,68.64,8.96,142s59.68,133.04,133.04,133.04,133.04-59.68,133.04-133.04S215.36,8.96,142,8.96ZM142,276.04c-73.91,0-134.04-60.13-134.04-134.04S68.09,7.96,142,7.96s134.04,60.13,134.04,134.04-60.13,134.04-134.04,134.04Z"/><path class="cls-157" d="M142,8.77C68.54,8.77,8.77,68.54,8.77,142s59.77,133.23,133.23,133.23,133.23-59.77,133.23-133.23S215.46,8.77,142,8.77ZM142,276.23c-74.01,0-134.23-60.21-134.23-134.23S67.99,7.77,142,7.77s134.23,60.21,134.23,134.23-60.21,134.23-134.23,134.23Z"/><path class="cls-178" d="M142,8.58C68.43,8.58,8.58,68.43,8.58,142s59.85,133.42,133.42,133.42,133.42-59.85,133.42-133.42S215.57,8.58,142,8.58ZM142,276.42c-74.12,0-134.42-60.3-134.42-134.42S67.88,7.58,142,7.58s134.42,60.3,134.42,134.42-60.3,134.42-134.42,134.42Z"/><path class="cls-191" d="M142,8.39C68.33,8.39,8.39,68.33,8.39,142s59.94,133.61,133.61,133.61,133.61-59.94,133.61-133.61S215.67,8.39,142,8.39ZM142,276.61c-74.22,0-134.61-60.38-134.61-134.61S67.78,7.39,142,7.39s134.61,60.38,134.61,134.61-60.38,134.61-134.61,134.61Z"/><path class="cls-47" d="M142,8.2C68.22,8.2,8.2,68.22,8.2,142s60.02,133.8,133.8,133.8,133.8-60.02,133.8-133.8S215.78,8.2,142,8.2ZM142,276.8c-74.33,0-134.8-60.47-134.8-134.8S67.67,7.2,142,7.2s134.8,60.47,134.8,134.8-60.47,134.8-134.8,134.8Z"/><path class="cls-52" d="M142,8.01C68.12,8.01,8.01,68.12,8.01,142s60.11,133.99,133.99,133.99,133.99-60.11,133.99-133.99S215.88,8.01,142,8.01ZM142,276.99c-74.43,0-134.99-60.55-134.99-134.99S67.57,7.01,142,7.01s134.99,60.55,134.99,134.99-60.55,134.99-134.99,134.99Z"/><path class="cls-32" d="M142,7.82C68.02,7.82,7.82,68.02,7.82,142s60.19,134.18,134.18,134.18,134.18-60.19,134.18-134.18S215.98,7.82,142,7.82ZM142,277.18c-74.54,0-135.18-60.64-135.18-135.18S67.46,6.82,142,6.82s135.18,60.64,135.18,135.18-60.64,135.18-135.18,135.18Z"/><path class="cls-239" d="M142,7.64C67.91,7.64,7.64,67.91,7.64,142s60.28,134.36,134.36,134.36,134.36-60.28,134.36-134.36S216.09,7.64,142,7.64ZM142,277.36c-74.64,0-135.36-60.72-135.36-135.36S67.36,6.64,142,6.64s135.36,60.72,135.36,135.36-60.72,135.36-135.36,135.36Z"/><path class="cls-236" d="M142,7.45C67.81,7.45,7.45,67.81,7.45,142s60.36,134.55,134.55,134.55,134.55-60.36,134.55-134.55S216.19,7.45,142,7.45ZM142,277.55c-74.74,0-135.55-60.81-135.55-135.55S67.26,6.45,142,6.45s135.55,60.81,135.55,135.55-60.81,135.55-135.55,135.55Z"/><path class="cls-228" d="M142,7.26C67.7,7.26,7.26,67.7,7.26,142s60.45,134.74,134.74,134.74,134.74-60.45,134.74-134.74S216.3,7.26,142,7.26ZM142,277.74c-74.85,0-135.74-60.89-135.74-135.74S67.15,6.26,142,6.26s135.74,60.89,135.74,135.74-60.89,135.74-135.74,135.74Z"/><path class="cls-142" d="M142,7.07C67.6,7.07,7.07,67.6,7.07,142s60.53,134.93,134.93,134.93,134.93-60.53,134.93-134.93S216.4,7.07,142,7.07ZM142,277.93c-74.95,0-135.93-60.98-135.93-135.93S67.05,6.07,142,6.07s135.93,60.98,135.93,135.93-60.98,135.93-135.93,135.93Z"/><path class="cls-164" d="M142,6.88C67.49,6.88,6.88,67.49,6.88,142s60.62,135.12,135.12,135.12,135.12-60.62,135.12-135.12S216.51,6.88,142,6.88ZM142,278.12c-75.06,0-136.12-61.06-136.12-136.12S66.94,5.88,142,5.88s136.12,61.06,136.12,136.12-61.06,136.12-136.12,136.12Z"/><path class="cls-196" d="M142,6.69C67.39,6.69,6.69,67.39,6.69,142s60.7,135.31,135.31,135.31,135.31-60.7,135.31-135.31S216.61,6.69,142,6.69ZM142,278.31c-75.16,0-136.31-61.15-136.31-136.31S66.84,5.69,142,5.69s136.31,61.15,136.31,136.31-61.15,136.31-136.31,136.31Z"/><path class="cls-230" d="M142,6.5C67.28,6.5,6.5,67.28,6.5,142s60.79,135.5,135.5,135.5,135.5-60.79,135.5-135.5S216.72,6.5,142,6.5ZM142,278.5c-75.27,0-136.5-61.23-136.5-136.5S66.73,5.5,142,5.5s136.5,61.23,136.5,136.5-61.23,136.5-136.5,136.5Z"/><path class="cls-133" d="M142,6.31C67.18,6.31,6.31,67.18,6.31,142s60.87,135.69,135.69,135.69,135.69-60.87,135.69-135.69S216.82,6.31,142,6.31ZM142,278.69c-75.37,0-136.69-61.32-136.69-136.69S66.63,5.31,142,5.31s136.69,61.32,136.69,136.69-61.32,136.69-136.69,136.69Z"/><path class="cls-156" d="M142,6.12C67.07,6.12,6.12,67.07,6.12,142s60.96,135.88,135.88,135.88,135.88-60.96,135.88-135.88S216.93,6.12,142,6.12ZM142,278.88c-75.48,0-136.88-61.4-136.88-136.88S66.52,5.12,142,5.12s136.88,61.4,136.88,136.88-61.4,136.88-136.88,136.88Z"/><path class="cls-260" d="M142,5.93C66.97,5.93,5.93,66.97,5.93,142s61.04,136.07,136.07,136.07,136.07-61.04,136.07-136.07S217.03,5.93,142,5.93ZM142,279.07c-75.58,0-137.07-61.49-137.07-137.07S66.42,4.93,142,4.93s137.07,61.49,137.07,137.07-61.49,137.07-137.07,137.07Z"/><path class="cls-233" d="M142,5.74C66.87,5.74,5.74,66.87,5.74,142s61.13,136.26,136.26,136.26,136.26-61.13,136.26-136.26S217.13,5.74,142,5.74ZM142,279.26c-75.69,0-137.26-61.58-137.26-137.26S66.31,4.74,142,4.74s137.26,61.58,137.26,137.26-61.58,137.26-137.26,137.26Z"/><path class="cls-36" d="M142,5.55C66.76,5.55,5.55,66.76,5.55,142s61.21,136.45,136.45,136.45,136.45-61.21,136.45-136.45S217.24,5.55,142,5.55ZM142,279.45c-75.79,0-137.45-61.66-137.45-137.45S66.21,4.55,142,4.55s137.45,61.66,137.45,137.45-61.66,137.45-137.45,137.45Z"/><path class="cls-127" d="M142,5.36C66.66,5.36,5.36,66.66,5.36,142s61.3,136.64,136.64,136.64,136.64-61.3,136.64-136.64S217.34,5.36,142,5.36ZM142,279.64c-75.89,0-137.64-61.75-137.64-137.64S66.11,4.36,142,4.36s137.64,61.75,137.64,137.64-61.75,137.64-137.64,137.64Z"/><path class="cls-67" d="M142,5.17C66.55,5.17,5.17,66.55,5.17,142s61.38,136.83,136.83,136.83,136.83-61.38,136.83-136.83S217.45,5.17,142,5.17ZM142,279.83c-76,0-137.83-61.83-137.83-137.83S66,4.17,142,4.17s137.83,61.83,137.83,137.83-61.83,137.83-137.83,137.83Z"/><path class="cls-21" d="M142,4.98C66.45,4.98,4.98,66.45,4.98,142s61.47,137.02,137.02,137.02,137.02-61.47,137.02-137.02S217.55,4.98,142,4.98ZM142,280.02C65.9,280.02,3.98,218.1,3.98,142S65.9,3.98,142,3.98s138.02,61.92,138.02,138.02-61.92,138.02-138.02,138.02Z"/><path class="cls-106" d="M142,4.79C66.34,4.79,4.79,66.34,4.79,142s61.55,137.21,137.21,137.21,137.21-61.55,137.21-137.21S217.66,4.79,142,4.79ZM142,280.21C65.79,280.21,3.79,218.21,3.79,142S65.79,3.79,142,3.79s138.21,62,138.21,138.21-62,138.21-138.21,138.21Z"/><path class="cls-193" d="M142,4.6C66.24,4.6,4.6,66.24,4.6,142s61.64,137.4,137.4,137.4,137.4-61.64,137.4-137.4S217.76,4.6,142,4.6ZM142,280.4C65.69,280.4,3.6,218.31,3.6,142S65.69,3.6,142,3.6s138.4,62.09,138.4,138.4-62.09,138.4-138.4,138.4Z"/><path class="cls-173" d="M142,4.41C66.13,4.41,4.41,66.13,4.41,142s61.72,137.59,137.59,137.59,137.59-61.72,137.59-137.59S217.87,4.41,142,4.41ZM142,280.59C65.58,280.59,3.41,218.42,3.41,142S65.58,3.41,142,3.41s138.59,62.17,138.59,138.59-62.17,138.59-138.59,138.59Z"/><path class="cls-114" d="M142,4.22C66.03,4.22,4.22,66.03,4.22,142s61.81,137.78,137.78,137.78,137.78-61.81,137.78-137.78S217.97,4.22,142,4.22ZM142,280.78C65.48,280.78,3.22,218.52,3.22,142S65.48,3.22,142,3.22s138.78,62.26,138.78,138.78-62.26,138.78-138.78,138.78Z"/><path class="cls-137" d="M142,4.03C65.92,4.03,4.03,65.92,4.03,142s61.89,137.97,137.97,137.97,137.97-61.89,137.97-137.97S218.08,4.03,142,4.03ZM142,280.97C65.37,280.97,3.03,218.63,3.03,142S65.37,3.03,142,3.03s138.97,62.34,138.97,138.97-62.34,138.97-138.97,138.97Z"/><path class="cls-231" d="M142,3.84C65.82,3.84,3.84,65.82,3.84,142s61.98,138.16,138.16,138.16,138.16-61.98,138.16-138.16S218.18,3.84,142,3.84ZM142,281.16C65.27,281.16,2.84,218.73,2.84,142S65.27,2.84,142,2.84s139.16,62.43,139.16,139.16-62.43,139.16-139.16,139.16Z"/><path class="cls-155" d="M142,3.65C65.72,3.65,3.65,65.72,3.65,142s62.06,138.35,138.35,138.35,138.35-62.06,138.35-138.35S218.28,3.65,142,3.65ZM142,281.35C65.16,281.35,2.65,218.84,2.65,142S65.16,2.65,142,2.65s139.35,62.51,139.35,139.35-62.51,139.35-139.35,139.35Z"/><path class="cls-217" d="M142,3.46C65.61,3.46,3.46,65.61,3.46,142s62.15,138.54,138.54,138.54,138.54-62.15,138.54-138.54S218.39,3.46,142,3.46ZM142,281.54C65.06,281.54,2.46,218.94,2.46,142S65.06,2.46,142,2.46s139.54,62.6,139.54,139.54-62.6,139.54-139.54,139.54Z"/><path class="cls-121" d="M142,3.27C65.51,3.27,3.27,65.51,3.27,142s62.23,138.73,138.73,138.73,138.73-62.23,138.73-138.73S218.49,3.27,142,3.27ZM142,281.73C64.96,281.73,2.27,219.04,2.27,142S64.96,2.27,142,2.27s139.73,62.68,139.73,139.73-62.68,139.73-139.73,139.73Z"/><path class="cls-149" d="M142,3.09C65.4,3.09,3.09,65.4,3.09,142s62.32,138.91,138.91,138.91,138.91-62.32,138.91-138.91S218.6,3.09,142,3.09ZM142,281.91C64.85,281.91,2.09,219.15,2.09,142S64.85,2.09,142,2.09s139.91,62.77,139.91,139.91-62.77,139.91-139.91,139.91Z"/><path class="cls-151" d="M142,2.9C65.3,2.9,2.9,65.3,2.9,142s62.4,139.1,139.1,139.1,139.1-62.4,139.1-139.1S218.7,2.9,142,2.9ZM142,282.1C64.75,282.1,1.9,219.25,1.9,142S64.75,1.9,142,1.9s140.1,62.85,140.1,140.1-62.85,140.1-140.1,140.1Z"/><path class="cls-68" d="M142,2.71C65.19,2.71,2.71,65.19,2.71,142s62.49,139.29,139.29,139.29,139.29-62.49,139.29-139.29S218.81,2.71,142,2.71ZM142,282.29C64.64,282.29,1.71,219.36,1.71,142S64.64,1.71,142,1.71s140.29,62.94,140.29,140.29-62.94,140.29-140.29,140.29Z"/><path class="cls-7" d="M142,2.52C65.09,2.52,2.52,65.09,2.52,142s62.57,139.48,139.48,139.48,139.48-62.57,139.48-139.48S218.91,2.52,142,2.52ZM142,282.48C64.54,282.48,1.52,219.46,1.52,142S64.54,1.52,142,1.52s140.48,63.02,140.48,140.48-63.02,140.48-140.48,140.48Z"/><path class="cls-88" d="M142,2.33C64.98,2.33,2.33,64.98,2.33,142s62.66,139.67,139.67,139.67,139.67-62.66,139.67-139.67S219.02,2.33,142,2.33ZM142,282.67C64.43,282.67,1.33,219.57,1.33,142S64.43,1.33,142,1.33s140.67,63.11,140.67,140.67-63.11,140.67-140.67,140.67Z"/><path class="cls-28" d="M142,2.14C64.88,2.14,2.14,64.88,2.14,142s62.74,139.86,139.86,139.86,139.86-62.74,139.86-139.86S219.12,2.14,142,2.14ZM142,282.86C64.33,282.86,1.14,219.67,1.14,142S64.33,1.14,142,1.14s140.86,63.19,140.86,140.86-63.19,140.86-140.86,140.86Z"/><path class="cls-93" d="M142,1.95C64.78,1.95,1.95,64.78,1.95,142s62.83,140.05,140.05,140.05,140.05-62.83,140.05-140.05S219.22,1.95,142,1.95ZM142,283.05C64.22,283.05.95,219.78.95,142S64.22.95,142,.95s141.05,63.28,141.05,141.05-63.28,141.05-141.05,141.05Z"/><path class="cls-245" d="M142,1.76C64.67,1.76,1.76,64.67,1.76,142s62.91,140.24,140.24,140.24,140.24-62.91,140.24-140.24S219.33,1.76,142,1.76ZM142,283.24C64.12,283.24.76,219.88.76,142S64.12.76,142,.76s141.24,63.36,141.24,141.24-63.36,141.24-141.24,141.24Z"/><path class="cls-120" d="M142,1.57C64.57,1.57,1.57,64.57,1.57,142s63,140.43,140.43,140.43,140.43-63,140.43-140.43S219.43,1.57,142,1.57ZM142,283.43C64.01,283.43.57,219.99.57,142S64.01.57,142,.57s141.43,63.45,141.43,141.43-63.45,141.43-141.43,141.43Z"/><path class="cls-180" d="M142,1.38C64.46,1.38,1.38,64.46,1.38,142s63.08,140.62,140.62,140.62,140.62-63.08,140.62-140.62S219.54,1.38,142,1.38ZM142,283.62C63.91,283.62.38,220.09.38,142S63.91.38,142,.38s141.62,63.53,141.62,141.62-63.53,141.62-141.62,141.62Z"/><path class="cls-247" d="M142,1.19C64.36,1.19,1.19,64.36,1.19,142s63.17,140.81,140.81,140.81,140.81-63.17,140.81-140.81S219.64,1.19,142,1.19ZM142,283.81C63.81,283.81.19,220.19.19,142S63.81.19,142,.19s141.81,63.62,141.81,141.81-63.62,141.81-141.81,141.81Z"/><path class="cls-256" d="M142,1C64.25,1,1,64.25,1,142s63.25,141,141,141,141-63.25,141-141S219.75,1,142,1ZM142,284C63.7,284,0,220.3,0,142S63.7,0,142,0s142,63.7,142,142-63.7,142-142,142Z"/></g></svg>