<?xml version="1.0" encoding="UTF-8"?><svg id="Layer_2" xmlns="http://www.w3.org/2000/svg" xmlns:xlink="http://www.w3.org/1999/xlink" viewBox="0 0 332.2 127.06"><defs><style>.cls-1{fill:url(#Degradado_sin_nombre_2416);stroke-width:0px;}</style><radialGradient id="Degradado_sin_nombre_2416" cx="166.1" cy="63.53" fx="166.1" fy="63.53" r="125.75" gradientUnits="userSpaceOnUse"><stop offset="0" stop-color="#fefcfd"/><stop offset=".2" stop-color="rgba(218,201,249,.73)" stop-opacity=".73"/><stop offset=".42" stop-color="rgba(185,153,246,.47)" stop-opacity=".47"/><stop offset=".61" stop-color="rgba(158,114,244,.27)" stop-opacity=".27"/><stop offset=".78" stop-color="rgba(139,87,242,.12)" stop-opacity=".12"/><stop offset=".91" stop-color="rgba(127,70,241,.03)" stop-opacity=".03"/><stop offset="1" stop-color="#7b40f1" stop-opacity="0"/></radialGradient></defs><g id="OBJECTS"><path class="cls-1" d="M332.2,1.44h-.59v-.24h-120.97c-6.81,0-14.53,0-22.14-.1-3.91.12-8.02-.19-12.38-.52-7.18-.54-14.6-1.1-21.54.27l-2.06.11c-3.3.17-6.72.35-10.12.46-.9.01-1.81.02-2.71.03,0-.05,0-.09,0-.09l-.69-.02s0,.05,0,.12c-3.35.04-6.73.07-10.13.1,0-.19,0-.3,0-.3h-.69s0,.11,0,.3c-3.31.02-6.64.03-9.97.03,0-.25,0-.39,0-.39h-.69s0,.14,0,.39c-3.33,0-6.66-.01-9.98-.03,0-.22,0-.35,0-.35h-.69s0,.12,0,.34c-3.34-.02-6.67-.05-10-.08,0-.1,0-.17,0-.17h-.69s0,.06,0,.16c-5.59-.07-11.14-.16-16.59-.27-3.27,0-6.47,0-9.61,0H.32v.24h-.32v125.04h.32v.24h143.12c3.96,0,7.99.07,11.9.13,1.63.03,3.28.05,4.94.08,0,.02,0,.05,0,.07l.6-.06c1.69.02,3.39.04,5.08.05.96,0,1.93,0,2.89,0,.73,0,1.46,0,2.19,0,0,.01,0,.02,0,.04l.68.04s0-.05,0-.08c5.69-.02,11.37-.08,16.79-.15,7.6-.1,15.32-.1,22.13-.1h120.97v-.24h.59V1.44ZM194.45,116.93c-1.83.18-3.67.35-5.52.52-1.55.04-3.15.08-4.78.12.4-2.37.79-4.73,1.14-7.1,3.58-.37,7.15-.8,10.69-1.24-.45,2.57-.94,5.13-1.47,7.69-.02,0-.04,0-.06,0ZM203.79,12.21c.04.45.09.92.14,1.39.56,2.3,1.07,4.6,1.55,6.91-2.93-.37-5.84-.77-8.73-1.18-.45-2.62-.94-5.25-1.48-7.87,2.87.33,5.67.62,8.52.75ZM195.14,10.75c-.61-2.97-1.26-5.95-1.98-8.92,3.39.03,6.76.04,10.02.05.02,1.2.12,4.78.55,9.64-2.86-.14-5.7-.43-8.59-.77ZM106.41,75.69c.05,1.64.11,3.26.17,4.87.06,1.71.12,3.37.17,5-1.81-.3-3.62-.6-5.43-.9l-1.43-.23h-3.02v-9.72h2.99c2.18.16,4.36.34,6.55.51,0,.16,0,.31,0,.47ZM268.03,63.62v-9.72h9.98v9.72h-9.98ZM278.01,64.31v9.71h-9.98v-9.71h9.98ZM268.03,53.22v-9.72h9.98v9.72h-9.98ZM267.34,53.22h-10.14v-9.72h10.14v9.72ZM267.34,53.9v9.72h-10.14v-9.72h10.14ZM256.52,63.62h-9.98v-9.72h9.98v9.72ZM245.85,63.62h-9.85c0-3.23-.02-6.47-.04-9.72h9.89v9.72ZM235.31,63.62h-8.91c0-3.26-.01-6.56-.03-9.88,1.74.1,3.59.16,5.67.16h3.22c.03,3.25.04,6.49.04,9.72ZM225.72,63.62h-6.05c-.01-3.51-.14-7.02-.36-10.53,2.07.25,4.13.46,6.37.61.02,3.33.03,6.64.03,9.92ZM218.99,63.62h-3.64c-1.54-.02-3.09-.02-4.63-.04-.01-3.96-.13-7.92-.36-11.89,1.52.27,3.03.54,4.55.85l1.36.17c.8.1,1.59.2,2.36.29.23,3.53.35,7.07.36,10.61ZM210.03,63.58c-3.13-.03-6.27-.06-9.4-.08-.01-4.44-.15-8.88-.39-13.32,3.14.39,6.28.84,9.42,1.39.24,4.01.36,8.01.37,12.01ZM199.94,63.49c-3.75-.03-7.49-.08-11.25-.1-.01-4.78-.13-9.56-.36-14.34,3.74.24,7.48.59,11.22,1.04.24,4.47.38,8.93.39,13.4ZM188.01,63.38c-4.95-.03-9.91-.04-14.87-.05-.04-4.92-.11-9.85-.2-14.78,4.9.02,9.81.16,14.71.47.23,4.79.35,9.58.36,14.37ZM172.45,63.32c-4.95-.02-9.91-.04-14.86-.04,0-4.82.07-9.62.19-14.43,4.82-.21,9.65-.31,14.47-.31.09,4.93.16,9.86.2,14.78ZM156.91,63.28c-4.79,0-9.57.03-14.35.04.01-4.52.16-9.05.41-13.57,4.7-.36,9.41-.66,14.13-.88-.12,4.8-.19,9.6-.19,14.4ZM141.87,63.33c-3.3.01-6.61.01-9.91.03-.1-4.21-.05-8.44.15-12.69,3.38-.31,6.78-.6,10.17-.86-.25,4.51-.39,9.01-.41,13.52ZM131.26,63.36c-2.77.01-5.54.04-8.31.06.08-3.89.29-7.87.61-11.92,2.61-.26,5.23-.52,7.85-.76-.2,4.23-.24,8.44-.15,12.62ZM122.27,63.42c-2.08.02-4.15.04-6.22.06.01-3.74.05-7.49.13-11.23,2.23-.23,4.46-.46,6.7-.68-.32,4.03-.52,7.99-.6,11.86ZM115.36,63.48c-2.76.02-5.52.04-8.27.07,0-3.54.01-6.99.03-10.39,1.95-.2,3.9-.39,5.85-.6.84-.09,1.67-.17,2.51-.26-.08,3.72-.12,7.45-.13,11.17ZM106.4,63.56c-2.17.02-4.35.03-6.52.06h-3.02v-9.72h3.05c2.17-.21,4.34-.44,6.52-.66-.02,3.38-.03,6.8-.03,10.32ZM96.17,63.62h-9.98v-9.72s9.98,0,9.98,0v9.72ZM64.7,64.31h10.14v9.72h-10.14v-9.72ZM64.01,74.02h-9.98v-9.72h9.98v9.72ZM75.52,64.31h9.98v9.72h-9.98v-9.72ZM86.19,64.31h9.98v9.72h-9.98v-9.72ZM85.51,63.62h-9.98v-9.72h9.98s0,9.72,0,9.72ZM74.84,63.62h-10.14v-9.72h10.14s0,9.72,0,9.72ZM64.01,63.62h-9.98v-9.72h9.98s0,9.72,0,9.72ZM53.34,63.62h-9.98v-9.72h9.98s0,9.72,0,9.72ZM53.34,64.31v9.72h-9.98v-9.72h9.98ZM53.34,74.71v9.72h-9.98v-9.72h9.98ZM54.03,74.71h9.98v9.72h-9.98v-9.72ZM64.7,74.71h10.14s0,9.72,0,9.72h-10.14v-9.72ZM75.52,74.71h9.98s0,9.72,0,9.72h-9.98v-9.72ZM86.19,74.71h9.98s0,9.72,0,9.72h-9.98v-9.72ZM99.88,74.02h-3.02v-9.72h3.02c2.16-.03,4.34-.03,6.51-.06,0,3.33,0,6.75,0,10.28-2.18-.18-4.35-.35-6.52-.51ZM107.08,64.24c2.75-.03,5.51-.05,8.27-.07,0,3.71.03,7.42.09,11.12-2.76-.24-5.55-.47-8.35-.7,0-3.55-.01-6.99,0-10.35ZM116.03,64.16c2.07-.02,4.14-.04,6.21-.06-.07,4.01.01,7.93.21,11.78-.83-.07-1.67-.14-2.5-.22-1.27-.11-2.55-.22-3.83-.33-.06-3.73-.1-7.45-.09-11.18ZM122.93,64.1c2.78-.02,5.56-.04,8.35-.06.11,4.25.36,8.47.71,12.66-2.96-.24-5.91-.49-8.85-.75-.2-3.87-.28-7.81-.21-11.85ZM131.97,64.04c3.29-.02,6.59-.02,9.88-.03,0,4.49.14,8.99.37,13.47-3.19-.23-6.37-.47-9.54-.73-.36-4.2-.61-8.45-.72-12.71ZM142.54,64.01c4.79-.01,9.57-.04,14.36-.04,0,4.79.07,9.59.19,14.39-4.74-.21-9.46-.49-14.18-.83-.24-4.51-.38-9.01-.38-13.53ZM157.59,63.97c4.96,0,9.91.03,14.87.04.04,4.91.05,9.83.03,14.75-4.91-.02-9.81-.16-14.71-.37-.12-4.82-.19-9.62-.19-14.43ZM173.15,64.01c4.96.02,9.92.02,14.87.05,0,4.79-.12,9.58-.34,14.36-4.83.24-9.67.36-14.5.35.02-4.92,0-9.84-.03-14.76ZM188.7,64.07c3.76.02,7.5.07,11.25.1,0,4.45-.14,8.91-.37,13.35-3.73.38-7.47.66-11.22.86.21-4.77.34-9.54.34-14.32ZM200.64,64.18c3.13.03,6.27.05,9.4.08,0,4-.13,8-.36,11.99-3.13.48-6.27.87-9.41,1.2.23-4.42.37-8.85.37-13.28ZM210.72,64.27c1.54.02,3.08.02,4.62.04h3.65c0,3.55-.13,7.08-.35,10.61-.79.1-1.58.2-2.38.3l-1.38.18c-1.5.27-3,.51-4.5.75.23-3.95.35-7.91.35-11.87ZM219.68,64.31h6.04c0,3.32-.01,6.62-.03,9.91-2.24.15-4.29.36-6.36.61.22-3.49.34-7,.34-10.52ZM226.41,64.31h8.91c0,3.26-.02,6.49-.04,9.71h-3.23c-2.08,0-3.93.06-5.67.16.02-3.28.03-6.57.03-9.87ZM236,64.31h9.85s0,9.71,0,9.71h-9.89c.03-3.22.04-6.46.04-9.71ZM246.54,64.31h9.98s0,9.71,0,9.71h-9.98v-9.71ZM257.2,64.31h10.14s0,9.71,0,9.71h-10.14v-9.71ZM267.34,74.71v9.72h-10.14v-9.72h10.14ZM268.03,74.71h9.98v9.72h-9.98v-9.72ZM278.7,74.71h9.98v9.72h-9.98v-9.72ZM278.7,74.02v-9.71h9.98s0,9.71,0,9.71h-9.98ZM278.7,63.62v-9.72h9.98v9.72h-9.98ZM278.7,53.22v-9.72h9.98v9.72h-9.98ZM278.7,42.81v-9.72h9.98v9.72h-9.98ZM278.01,42.81h-9.98v-9.72h9.98v9.72ZM267.34,42.81h-10.14v-9.72h10.14v9.72ZM256.52,42.81h-9.98v-9.72h9.98v9.72ZM256.52,43.5v9.72h-9.98v-9.72h9.98ZM245.85,53.22h-9.9c-.02-2.58-.05-5.17-.08-7.76v-1.96h9.98v9.72ZM235.26,53.22h-3.22c-2.09,0-3.94-.06-5.68-.16-.02-2.61-.04-5.22-.06-7.87-.04-.66-.09-1.28-.14-1.92,1.84.15,3.78.24,5.88.24h3.13v1.96c.04,2.59.06,5.17.08,7.76ZM225.62,45.21c.03,2.63.05,5.22.06,7.81-2.26-.15-4.33-.37-6.41-.62-.23-3.4-.56-6.8-.99-10.17,2.31.4,4.67.74,7.2.97.05.67.1,1.33.14,2.01ZM218.57,52.31c-.73-.09-1.47-.18-2.23-.28l-1.33-.17c-1.57-.32-3.14-.6-4.7-.88-.23-3.62-.56-7.25-.97-10.87,1.5.41,3,.83,4.5,1.31,1.25.24,2.49.47,3.74.69.44,3.38.77,6.79,1,10.21ZM209.61,50.86c-3.13-.54-6.26-1-9.4-1.38-.22-3.85-.53-7.71-.92-11.56,3.12.53,6.23,1.18,9.33,1.99.42,3.65.75,7.3.99,10.95ZM199.52,49.39c-3.73-.44-7.47-.79-11.21-1.03-.2-3.96-.49-7.93-.84-11.89,3.72.28,7.42.71,11.11,1.32.39,3.87.71,7.74.93,11.61ZM187.62,48.32c-4.89-.3-9.79-.45-14.69-.46-.07-3.92-.15-7.84-.24-11.77,4.71-.08,9.41.01,14.1.34.35,3.96.64,7.93.84,11.89ZM172.24,47.85c-4.82,0-9.64.1-14.45.31.1-3.77.25-7.55.42-11.32,4.59-.38,9.19-.65,13.78-.75.09,3.93.17,7.85.24,11.76ZM157.11,48.19c-4.71.21-9.42.52-14.11.87.21-3.58.52-7.17.88-10.75,4.54-.54,9.09-1.03,13.66-1.41-.17,3.76-.32,7.53-.42,11.29ZM142.31,49.12c-3.4.26-6.79.55-10.18.86.18-3.42.46-6.86.86-10.29,3.38-.44,6.78-.88,10.19-1.29-.36,3.57-.66,7.15-.87,10.72ZM131.44,50.04c-2.61.24-5.22.5-7.82.76.27-3.29.62-6.63,1.05-10.03,1.75-.23,3.51-.46,5.24-.69.79-.1,1.58-.21,2.37-.31-.4,3.43-.67,6.85-.84,10.27ZM122.92,50.87c-2.25.23-4.49.45-6.73.68.08-3.25.18-6.5.31-9.75,2.5-.3,4.99-.61,7.46-.93-.43,3.39-.78,6.73-1.04,10ZM115.51,51.62c-.87.09-1.74.18-2.6.27-1.93.2-3.85.39-5.78.59.02-3.24.05-6.45.1-9.64,2.87-.29,5.73-.61,8.6-.96-.13,3.25-.24,6.49-.31,9.74ZM106.43,52.55c-2.19.22-4.38.45-6.55.67h-3.02v-9.72h3.05c2.2-.17,4.41-.38,6.63-.6-.05,3.2-.08,6.4-.1,9.65ZM96.17,53.22h-9.98v-9.72s9.98,0,9.98,0v9.72ZM85.51,53.22h-9.98v-9.72h9.98s0,9.72,0,9.72ZM74.84,53.22h-10.14v-9.72h10.14s0,9.72,0,9.72ZM64.01,53.22h-9.98v-9.72h9.98s0,9.72,0,9.72ZM53.34,53.22h-9.98v-9.72h9.98s0,9.72,0,9.72ZM42.67,53.22h-9.98v-9.72h9.98s0,9.72,0,9.72ZM42.67,53.9v9.72h-9.98v-9.72h9.98ZM42.67,64.31v9.72h-9.98v-9.72h9.98ZM42.67,74.71v9.72h-9.98v-9.72h9.98ZM42.67,85.11v9.72h-9.98v-9.72h9.98ZM43.36,85.11h9.98s0,9.72,0,9.72h-9.98v-9.72ZM54.03,85.11h9.98s0,9.72,0,9.72h-9.98v-9.72ZM64.7,85.11h10.14s0,9.72,0,9.72h-10.14v-9.72ZM75.52,85.11h9.98s0,9.72,0,9.72h-9.98v-9.72ZM86.19,85.11h9.98s0,9.72,0,9.72h-9.98v-9.72ZM96.86,85.11h2.96s1.38.23,1.38.23c1.85.31,3.71.62,5.56.93.05,1.69.08,3.35.08,4.99v4.62c-2.33-.34-4.65-.69-6.96-1.05h-3.02v-9.72ZM107.45,86.38c2.77.46,5.54.91,8.32,1.35.12,3.16.27,6.31.44,9.46-2.91-.39-5.8-.8-8.68-1.22v-4.72c0-1.61-.03-3.23-.08-4.88ZM107.44,85.68c-.05-1.68-.11-3.39-.17-5.14-.06-1.6-.12-3.23-.17-4.86,0-.14,0-.27,0-.4,2.79.23,5.59.46,8.35.7.06,3.69.17,7.38.31,11.06-2.78-.44-5.55-.9-8.31-1.36ZM116.13,76.04c1.26.11,2.52.22,3.76.32.86.07,1.73.15,2.6.22.22,3.96.55,7.85,1.05,11.66-2.37-.35-4.73-.72-7.1-1.1-.13-3.7-.24-7.4-.31-11.11ZM123.18,76.64c2.95.25,5.91.51,8.88.75.36,4.12.83,8.21,1.38,12.24-3.07-.4-6.13-.83-9.2-1.29-.5-3.82-.84-7.72-1.06-11.7ZM132.76,77.45c3.16.26,6.33.5,9.5.72.23,4.21.58,8.42,1.02,12.62-3.05-.32-6.09-.68-9.14-1.07-.55-4.04-1.02-8.14-1.39-12.27ZM142.95,78.22c4.71.33,9.43.61,14.16.83.11,4.3.28,8.6.49,12.92-4.54-.25-9.08-.63-13.62-1.1-.45-4.21-.8-8.43-1.03-12.65ZM157.8,79.08c4.89.21,9.79.35,14.69.37-.02,4.28-.07,8.57-.14,12.87-4.68.05-9.36-.06-14.05-.31-.21-4.32-.38-8.62-.49-12.92ZM173.17,79.45c.23,0,.46,0,.69,0,4.6,0,9.19-.11,13.79-.34-.2,4.16-.49,8.31-.85,12.46-4.57.42-9.16.65-13.77.72.08-4.29.12-8.57.14-12.85ZM188.34,79.09c3.74-.2,7.48-.47,11.21-.85-.21,3.93-.53,7.86-.92,11.78-3.7.64-7.41,1.13-11.14,1.49.36-4.14.65-8.28.85-12.43ZM200.24,78.16c3.14-.33,6.27-.72,9.4-1.2-.23,3.65-.56,7.3-.98,10.94-3.1.78-6.21,1.44-9.33,2,.39-3.91.7-7.82.91-11.74ZM210.34,76.85c1.55-.24,3.1-.5,4.64-.78l1.36-.17c.76-.1,1.51-.19,2.25-.28-.23,3.42-.56,6.83-1,10.2-1.27.22-2.53.46-3.8.7-1.47.43-2.95.83-4.43,1.21.41-3.62.75-7.24.97-10.87ZM219.29,75.53c2.08-.25,4.14-.47,6.4-.62-.02,2.6-.04,5.19-.07,7.79-.05.69-.1,1.35-.14,2.03-2.52.23-4.87.57-7.17.96.43-3.36.76-6.75.98-10.16ZM226.3,82.73c.03-2.62.05-5.24.07-7.85,1.74-.1,3.59-.16,5.68-.16h3.22c-.02,2.6-.05,5.19-.09,7.76v1.96h-3.13c-2.1,0-4.04.09-5.88.24.05-.64.09-1.28.14-1.94ZM235.87,82.47c.04-2.57.06-5.16.09-7.77h9.9v9.72h-9.98v-1.95ZM246.54,74.71h9.98v9.72h-9.98v-9.72ZM256.52,85.11v9.72h-9.98s0-9.72,0-9.72h9.98ZM257.2,85.11h10.14v9.72h-10.14s0-9.72,0-9.72ZM268.03,85.11h9.98v9.72h-9.98s0-9.72,0-9.72ZM278.7,85.11h9.98v9.72h-9.98s0-9.72,0-9.72ZM289.37,85.11h9.98v9.72h-9.98s0-9.72,0-9.72ZM289.37,84.43v-9.72h9.98v9.72h-9.98ZM289.37,74.02v-9.71h9.98s0,9.71,0,9.71h-9.98ZM289.37,63.62v-9.72h9.98v9.72h-9.98ZM289.37,53.22v-9.72h9.98v9.72h-9.98ZM289.37,42.81v-9.72h9.98v9.72h-9.98ZM289.37,32.42v-9.72h9.98v9.72h-9.98ZM288.68,32.42h-9.98s0-9.72,0-9.72h9.98v9.72ZM278.01,32.42h-9.98s0-9.72,0-9.72h9.98v9.72ZM267.34,32.42h-10.14s0-9.72,0-9.72h10.14v9.72ZM256.52,32.42h-9.98s0-9.72,0-9.72h9.98v9.72ZM245.85,32.42h-9.98s0-9.73,0-9.73h9.98v9.73ZM245.85,33.1v9.72h-9.98v-9.72h9.98ZM235.18,42.81h-3.13c-2.12,0-4.07-.1-5.93-.25-.07-1.02-.14-2.06-.22-3.06-.2-2.73-.39-5.34-.54-7.87,2.24.46,4.47.94,6.68,1.46h3.13v9.72ZM225.22,39.56c.07.96.14,1.96.21,2.95-2.54-.23-4.91-.58-7.23-.98-.52-3.9-1.18-7.76-1.96-11.58,2.83.47,5.65.98,8.44,1.54.15,2.59.35,5.27.55,8.07ZM217.49,41.4c-1.16-.21-2.32-.42-3.48-.64-1.58-.5-3.16-.96-4.75-1.38-.42-3.57-.95-7.13-1.55-10.69,2.62.35,5.22.73,7.8,1.15.79,3.81,1.46,7.67,1.98,11.56ZM208.55,39.19c-3.1-.81-6.21-1.45-9.33-1.98-.33-3.2-.72-6.4-1.17-9.61,3.01.28,6,.62,8.95,1,.6,3.53,1.13,7.06,1.55,10.59ZM198.51,37.07c-3.69-.6-7.39-1.02-11.1-1.3-.27-3.02-.58-6.03-.93-9.04,3.67.19,7.28.47,10.86.8.45,3.18.84,6.36,1.17,9.54ZM186.72,35.73c-4.67-.32-9.36-.42-14.05-.34-.07-3.01-.15-6.03-.23-9.05,4.52.02,8.97.14,13.35.36.36,3.01.66,6.02.93,9.03ZM171.98,35.4c-4.58.1-9.16.37-13.73.75.15-3.19.33-6.38.53-9.57,4.39-.16,8.72-.25,12.97-.24.08,3.03.16,6.05.23,9.07ZM157.56,36.2c-4.55.38-9.09.86-13.61,1.4.36-3.43.78-6.86,1.28-10.29,4.36-.32,8.64-.55,12.86-.71-.2,3.2-.38,6.4-.53,9.6ZM143.25,37.69c-3.4.41-6.79.84-10.17,1.29.43-3.58,1-7.16,1.71-10.73,3.28-.33,6.54-.63,9.74-.87-.5,3.44-.92,6.88-1.28,10.32ZM132.37,39.07c-.85.11-1.7.22-2.55.33-1.68.22-3.37.44-5.07.66.46-3.57,1.01-7.2,1.65-10.9,2.58-.31,5.13-.59,7.66-.85-.71,3.58-1.27,7.17-1.7,10.75ZM124.06,40.16c-2.5.32-5.01.64-7.53.94.15-3.57.34-7.14.55-10.71,2.91-.41,5.78-.78,8.62-1.13-.63,3.7-1.18,7.33-1.64,10.9ZM115.84,41.19c-2.87.34-5.74.67-8.61.96.05-3.42.12-6.85.21-10.3,3.01-.48,5.99-.93,8.94-1.35-.21,3.56-.4,7.13-.54,10.69ZM106.54,42.21c-2.23.22-4.45.43-6.66.6h-3.02v-9.72h3.08c2.3-.4,4.55-.76,6.81-1.13-.09,3.44-.16,6.85-.21,10.25ZM96.17,42.81h-9.98v-9.72s9.98,0,9.98,0v9.72ZM85.51,42.81h-9.98v-9.72h9.98s0,9.72,0,9.72ZM74.84,42.81h-10.14v-9.72h10.14s0,9.72,0,9.72ZM64.01,42.81h-9.98v-9.72h9.98s0,9.72,0,9.72ZM53.34,42.81h-9.98v-9.72h9.98s0,9.72,0,9.72ZM42.67,42.81h-9.98v-9.72h9.98s0,9.72,0,9.72ZM32.69,32.41v-9.72h9.98s0,9.72,0,9.72h-9.98ZM32.01,32.41h-9.98v-9.72h9.98s0,9.72,0,9.72ZM32.01,33.1v9.72h-9.98v-9.72h9.98ZM32.01,43.5v9.72h-9.98v-9.72h9.98ZM32.01,53.9v9.72h-9.98v-9.72h9.98ZM32.01,64.31v9.72h-9.98v-9.72h9.98ZM32.01,74.71v9.72h-9.98v-9.72h9.98ZM32.01,85.11v9.72h-9.98v-9.72h9.98ZM32.01,95.51v9.72h-9.98v-9.72h9.98ZM32.69,95.51h9.98s0,9.72,0,9.72h-9.98v-9.72ZM43.36,95.51h9.98s0,9.72,0,9.72h-9.98v-9.72ZM54.03,95.51h9.98s0,9.72,0,9.72h-9.98v-9.72ZM64.7,95.51h10.14s0,9.72,0,9.72h-10.14v-9.72ZM75.52,95.51h9.98s0,9.72,0,9.72h-9.98v-9.72ZM86.19,95.51h9.98s0,9.72,0,9.72h-9.98v-9.72ZM96.86,95.51h2.97c2.33.36,4.67.7,7.01,1.05v8.67h-9.98v-9.72ZM107.53,96.66c2.89.42,5.8.83,8.72,1.22.13,2.45.26,4.9.43,7.35h-9.15v-8.57ZM116.94,97.98c2.8.37,5.61.72,8.43,1.06.49,2.36,1.03,4.69,1.63,6.98-1.89-.3-3.77-.58-5.71-.79h-3.93c-.16-2.41-.29-4.84-.42-7.26ZM116.9,97.28c-.17-3.14-.32-6.29-.44-9.44,2.39.38,4.78.75,7.17,1.11.43,3.18.96,6.31,1.58,9.39-2.78-.33-5.56-.68-8.32-1.05ZM124.35,89.05c3.06.45,6.13.88,9.19,1.28.42,3.06.89,6.08,1.39,9.08-3.01-.3-6.01-.64-9-.99-.63-3.07-1.16-6.19-1.59-9.37ZM134.25,90.43c3.04.39,6.07.75,9.11,1.07.32,2.93.68,5.86,1.1,8.78-2.95-.24-5.89-.5-8.82-.79-.5-2.99-.97-6.01-1.4-9.06ZM144.06,91.57c4.53.46,9.05.83,13.58,1.08.14,2.82.3,5.65.48,8.48-4.33-.19-8.65-.47-12.95-.8-.42-2.92-.79-5.84-1.1-8.76ZM158.32,92.69c3.96.21,7.91.33,11.85.33.72,0,1.44-.02,2.16-.03-.05,2.82-.12,5.66-.19,8.49-4.46-.01-8.91-.12-13.34-.32-.18-2.83-.34-5.66-.48-8.48ZM173.02,92.98c4.58-.07,9.16-.27,13.72-.69-.27,2.98-.57,5.96-.92,8.93-4.34.19-8.67.27-12.99.27.08-2.84.14-5.68.19-8.51ZM187.43,92.21c3.72-.36,7.43-.85,11.12-1.48-.34,3.25-.73,6.49-1.19,9.73-3.62.32-7.24.55-10.86.72.35-2.99.66-5.98.92-8.97ZM199.26,90.6c3.12-.55,6.23-1.18,9.32-1.96-.43,3.6-.96,7.2-1.58,10.79-2.98.38-5.96.7-8.94.97.46-3.27.86-6.53,1.19-9.81ZM209.29,88.45c1.56-.4,3.11-.81,4.66-1.27,1.19-.22,2.37-.44,3.55-.65-.53,3.94-1.21,7.84-2.02,11.67-2.59.43-5.18.8-7.77,1.14.62-3.62,1.15-7.26,1.58-10.89ZM218.22,86.4c2.31-.4,4.68-.74,7.21-.98-.07.95-.13,1.91-.2,2.84-.21,2.85-.41,5.58-.56,8.23-2.82.59-5.63,1.12-8.45,1.59.81-3.83,1.48-7.73,2-11.67ZM225.91,88.31c.07-.97.14-1.95.21-2.95,1.86-.15,3.81-.25,5.93-.25h3.13v9.73h-3.21c-2.2.54-4.4,1.03-6.61,1.5.15-2.58.34-5.25.55-8.03ZM235.87,85.11h9.98v9.73h-9.98s0-9.73,0-9.73ZM245.85,95.51v9.72h-9.98v-9.72h9.98ZM246.54,95.51h9.98v9.72h-9.98v-9.72ZM257.2,95.51h10.14v9.72h-10.14v-9.72ZM268.03,95.51h9.98v9.72h-9.98v-9.72ZM278.7,95.51h9.98v9.72h-9.98v-9.72ZM289.37,95.51h9.98v9.72h-9.98v-9.72ZM300.04,95.51h9.98v9.72h-9.98v-9.72ZM300.04,94.83v-9.72h9.98v9.72h-9.98ZM300.04,84.43v-9.72h9.98v9.72h-9.98ZM300.04,74.02v-9.72h9.98s0,9.72,0,9.72h-9.98ZM300.04,63.62v-9.72h9.98v9.72h-9.98ZM300.04,53.22v-9.72h9.98v9.72h-9.98ZM300.04,42.81v-9.72h9.98v9.72h-9.98ZM300.04,32.41v-9.72h9.98v9.72h-9.98ZM300.04,22.01v-9.72h9.98v9.72h-9.98ZM299.35,22.01h-9.98v-9.72h9.98v9.72ZM288.68,22.01h-9.98v-9.72h9.98v9.72ZM278.01,22.01h-9.98v-9.72h9.98v9.72ZM267.34,22.01h-10.14v-9.72h10.14v9.72ZM256.52,22.01h-9.98v-9.72h9.98v9.72ZM245.85,22.01h-9.98v-9.72h9.98v9.72ZM235.18,22.01h-3.15c-2.28.1-4.56.1-6.83.07v-9.78h9.98v9.72ZM227.21,22.8c1.61,0,3.22-.03,4.83-.11h3.13v9.73h-3.05c-2.25-.53-4.52-1.02-6.8-1.49-.05-.84-.09-1.67-.12-2.48v-5.68c.67.01,1.34.03,2.02.03ZM224.63,30.79c-2.82-.57-5.68-1.08-8.54-1.56-.11-.53-.21-1.06-.33-1.59-.26-1.92-.5-3.7-.69-5.4,3.13.27,6.29.44,9.45.51v5.71c.03.76.07,1.54.12,2.32ZM215.08,27.76c.1.45.18.91.28,1.36-2.57-.42-5.16-.8-7.77-1.14-.38-2.22-.8-4.45-1.25-6.67,2.66.33,5.34.62,8.03.86.2,1.75.44,3.6.72,5.59ZM206.88,27.89c-2.95-.38-5.93-.71-8.93-.99-.33-2.29-.69-4.57-1.08-6.86,2.9.41,5.81.81,8.75,1.18.46,2.22.87,4.45,1.26,6.67ZM197.25,26.83c-3.58-.33-7.18-.6-10.84-.79-.3-2.53-.64-5.06-1-7.58,3.24.41,6.45.87,9.65,1.33.37.05.74.1,1.1.16.39,2.3.76,4.59,1.09,6.89ZM185.71,26.01c-4.36-.22-8.79-.33-13.29-.35-.08-2.84-.15-5.68-.23-8.54,4.2.28,8.37.73,12.51,1.25.37,2.55.71,5.09,1.01,7.64ZM171.73,25.65c-4.23-.01-8.55.08-12.91.24.19-2.99.41-5.99.65-8.99,4.03-.15,8.04-.07,12.03.18.08,2.86.16,5.72.23,8.57ZM158.14,25.91c-4.21.16-8.47.38-12.81.71.41-2.78.86-5.56,1.36-8.34,4.05-.74,8.08-1.18,12.09-1.35-.24,3-.45,6-.65,8.99ZM144.63,26.68c-3.19.24-6.43.54-9.7.86.5-2.46,1.07-4.91,1.71-7.36,1.74-.31,3.51-.63,5.36-.92,1.33-.33,2.65-.61,3.98-.86-.49,2.76-.94,5.52-1.35,8.28ZM134.21,27.62c-2.54.26-5.09.54-7.68.85.09-.54.18-1.07.28-1.62.28-1.55.58-2.96.88-4.32.06-.26.11-.51.16-.76,1.94-.33,3.89-.68,5.89-1.05.7-.13,1.43-.26,2.15-.39-.63,2.43-1.19,4.86-1.68,7.3ZM127.02,22.38c-.3,1.37-.61,2.78-.89,4.35-.11.62-.21,1.22-.31,1.83-2.87.35-5.77.73-8.71,1.14.14-2.34.3-4.67.47-7h3.74c1.96-.22,3.88-.5,5.8-.81-.04.17-.07.33-.11.5ZM116.42,29.8c-2.96.42-5.94.87-8.96,1.36.02-.9.04-1.8.07-2.7v-5.76h9.36c-.17,2.37-.33,4.74-.47,7.11ZM106.84,28.44c-.03.95-.05,1.89-.07,2.83-2.28.37-4.56.74-6.89,1.14h-3.02v-9.72h9.98s0,5.75,0,5.75ZM96.17,32.41h-9.98v-9.72s9.98,0,9.98,0v9.72ZM85.51,32.41h-9.98v-9.72h9.98s0,9.72,0,9.72ZM74.84,32.41h-10.14v-9.72h10.14s0,9.72,0,9.72ZM64.01,32.41h-9.98v-9.72h9.98s0,9.72,0,9.72ZM53.34,32.41h-9.98v-9.72h9.98s0,9.72,0,9.72ZM43.36,22.01v-9.72h9.98s0,9.72,0,9.72h-9.98ZM42.67,22.01h-9.98v-9.72h9.98s0,9.72,0,9.72ZM32.01,22.01h-9.98v-9.72h9.98s0,9.72,0,9.72ZM21.34,22.01h-9.98v-9.72h9.98s0,9.72,0,9.72ZM21.34,22.69v9.72h-9.98v-9.72h9.98ZM21.34,33.1v9.72h-9.98v-9.72h9.98ZM21.34,43.5v9.72h-9.98v-9.72h9.98ZM21.34,53.9v9.72h-9.98v-9.72h9.98ZM21.34,64.31v9.72h-9.98v-9.72h9.98ZM21.34,74.71v9.72h-9.98v-9.72h9.98ZM21.34,85.11v9.72h-9.98v-9.72h9.98ZM21.34,95.51v9.72h-9.98v-9.72h9.98ZM21.34,105.92v9.72h-9.98v-9.72h9.98ZM22.02,105.92h9.98s0,9.72,0,9.72h-9.98v-9.72ZM32.69,105.92h9.98s0,9.72,0,9.72h-9.98v-9.72ZM43.36,105.92h9.98s0,9.72,0,9.72h-9.98v-9.72ZM54.03,105.92h9.98s0,9.72,0,9.72h-9.98v-9.72ZM64.7,105.92h10.14s0,9.72,0,9.72h-10.14v-9.72ZM75.52,105.92h9.98s0,9.72,0,9.72h-9.98v-9.72ZM86.19,105.92h9.98s0,9.72,0,9.72h-9.98v-9.72ZM96.86,105.92h9.98s0,9.73,0,9.73c-2.36,0-4.69,0-6.96,0h-3.02v-9.72ZM107.53,105.91h9.2c.22,3.27.46,6.54.74,9.79-3.35-.03-6.67-.05-9.94-.06v-9.73ZM118.15,115.72c-.28-3.26-.52-6.53-.74-9.8h3.84c1.99.22,3.93.5,5.88.82.57,3.54,1.05,6.62,1.05,9.6v.04c-2.31-.19-4.62-.39-6.93-.63-1.04-.01-2.07-.02-3.1-.04ZM127.84,106.85c1.92.32,3.84.67,5.82,1.04.95.17,1.93.35,2.9.53.56,2.93,1.15,5.81,1.74,8.65-3.13-.17-6.28-.38-9.44-.63v-.1c0-2.97-.47-6.01-1.02-9.49ZM133.78,107.21c-2.06-.38-4.06-.75-6.06-1.08v-.06c-.62-2.28-1.15-4.6-1.64-6.94,2.98.35,5.97.68,8.97.98.43,2.55.89,5.08,1.37,7.59-.88-.16-1.78-.32-2.64-.48ZM135.76,100.18c2.92.29,5.85.55,8.79.78.41,2.82.86,5.63,1.37,8.44-1.31-.23-2.63-.48-3.95-.77-1.65-.26-3.25-.54-4.83-.82-.48-2.52-.94-5.07-1.38-7.64ZM145.26,101.03c4.28.33,8.58.58,12.89.77.19,3,.4,6.01.64,9.03-4.02-.2-8.06-.62-12.15-1.3-.51-2.83-.97-5.66-1.38-8.5ZM158.84,101.83c4.41.19,8.84.32,13.28.33-.08,2.89-.18,5.78-.29,8.68-4.11.18-8.21.22-12.35.03-.24-3.02-.45-6.03-.65-9.04ZM172.81,102.17c.12,0,.23,0,.35,0,4.19,0,8.38-.1,12.58-.28-.32,2.66-.67,5.32-1.06,7.97-4.07.42-8.11.75-12.16.95.11-2.89.21-5.77.29-8.64ZM186.43,101.86c3.61-.16,7.22-.41,10.84-.72-.36,2.46-.75,4.93-1.18,7.39-3.6.45-7.17.88-10.71,1.25.38-2.64.73-5.28,1.05-7.92ZM197.97,101.08c2.97-.27,5.94-.59,8.92-.96-.42,2.42-.88,4.83-1.39,7.24-2.09.25-4.18.51-6.24.77-.82.1-1.64.21-2.46.31.42-2.45.81-4.91,1.17-7.36ZM207.6,100.03c2.58-.33,5.16-.71,7.74-1.13-.09.43-.18.87-.27,1.3-.3,2.21-.57,4.25-.77,6.17-2.71.28-5.4.58-8.07.9.51-2.41.96-4.83,1.38-7.24ZM215.74,100.31c.11-.51.21-1.02.32-1.53,2.85-.48,5.71-.99,8.56-1.59-.04.77-.08,1.53-.11,2.28v6.05c-3.19.19-6.36.45-9.52.77.21-1.87.46-3.84.75-5.98ZM225.2,99.49c.03-.81.08-1.63.12-2.45,2.24-.47,4.49-.97,6.73-1.52h3.13v9.72h-3.14c-2.29.03-4.57.13-6.84.26v-6ZM232.05,105.92h3.13v9.72h-9.98s0-9.46,0-9.46c2.28-.13,4.56-.23,6.85-.26ZM235.87,105.92h9.98v9.72h-9.98v-9.72ZM246.54,105.92h9.98v9.72h-9.98s0-9.72,0-9.72ZM257.2,105.92h10.14v9.72h-10.14v-9.72ZM268.03,105.92h9.98v9.72h-9.98v-9.72ZM278.7,105.92h9.98v9.72h-9.98v-9.72ZM289.37,105.92h9.98v9.72h-9.98s0-9.72,0-9.72ZM300.04,105.92h9.98v9.72h-9.98s0-9.72,0-9.72ZM310.7,105.92h9.98v9.72h-9.98v-9.72ZM310.7,105.23v-9.72h9.98v9.72h-9.98ZM310.7,94.83v-9.72h9.98v9.72h-9.98ZM310.7,84.43v-9.72h9.98v9.72h-9.98ZM310.7,74.02v-9.72h9.98s0,9.72,0,9.72h-9.98ZM310.7,63.62v-9.72h9.98v9.72h-9.98ZM310.7,53.22v-9.72h9.98v9.72h-9.98ZM310.7,42.81v-9.72h9.98v9.72h-9.98ZM310.7,32.41v-9.72h9.98v9.72h-9.98ZM310.7,22.01v-9.72h9.98v9.72h-9.98ZM310.7,11.61V1.89h9.98v9.72h-9.98ZM310.02,11.61h-9.98V1.89h9.98v9.72ZM299.35,11.61h-9.98V1.89h9.98v9.72ZM288.68,11.61h-9.98V1.89h9.98v9.72ZM278.01,11.61h-9.98V1.89h9.98v9.72ZM267.34,11.61h-10.14V1.89h10.14v9.72ZM256.52,11.61h-9.98V1.89h9.98v9.72ZM245.85,11.61h-9.98V1.89h9.98v9.72ZM235.18,11.61h-9.98V1.89h9.98v9.72ZM224.51,11.61h-9.98V1.89h9.98v9.72ZM224.51,12.29v9.77c-3.19-.07-6.37-.26-9.53-.53-.28-2.54-.46-4.87-.46-7.09v-2.15h9.98ZM214.29,21.48c-2.71-.24-5.41-.55-8.09-.88-.49-2.37-1.02-4.74-1.59-7.11-.04-.43-.08-.85-.12-1.26.83.03,1.66.07,2.51.07h6.85v2.15c0,2.21.17,4.52.45,7.03ZM196.04,19.23c-.3-.04-.59-.08-.89-.13-3.26-.46-6.54-.93-9.84-1.35-.37-2.52-.77-5.03-1.19-7.54.96.11,1.93.19,2.89.33,2.05.2,4.08.44,6.04.67.51.06,1.01.12,1.51.17.53,2.62,1.03,5.23,1.48,7.85ZM184.6,17.66c-4.12-.52-8.26-.96-12.43-1.24-.07-2.31-.13-4.62-.2-6.94,3.82.04,7.63.25,11.43.64.43,2.51.83,5.02,1.2,7.54ZM171.48,16.39c-3.96-.24-7.95-.33-11.95-.18.18-2.15.37-4.3.56-6.46,3.76-.19,7.48-.3,11.19-.27.07,2.31.13,4.61.2,6.91ZM158.84,16.23c-3.99.17-8,.6-12.03,1.33.43-2.35.9-4.69,1.4-7.03,3.78-.28,7.51-.54,11.2-.73-.2,2.15-.39,4.29-.56,6.44ZM146.09,17.68c-1.41.27-2.82.56-4.23.91-1.73.27-3.39.56-5.03.86.58-2.16,1.21-4.31,1.91-6.45.07-.61.14-1.2.21-1.78,1.93-.14,3.85-.29,5.76-.43.94-.07,1.86-.14,2.79-.21-.5,2.37-.97,4.74-1.4,7.11ZM138.07,12.85c-.73,2.24-1.39,4.49-1.99,6.74-.82.15-1.66.3-2.46.45-1.91.35-3.76.69-5.61,1.01.48-2.26.86-4.36.86-6.62,0-.9,0-1.77,0-2.59,3.14-.15,6.28-.35,9.39-.57-.06.52-.12,1.04-.18,1.59ZM128.18,14.42c0,2.28-.4,4.41-.9,6.74-1.99.33-3.98.62-5.99.84h-3.66c.18-2.53.35-5.06.57-7.58,0-.81,0-1.58,0-2.32,1.12,0,2.22-.01,3.34-.01,2.21-.04,4.43-.12,6.64-.22,0,.82,0,1.67,0,2.56ZM117.51,14.4c-.22,2.54-.38,5.07-.57,7.61h-9.42v-7.58c0-.78,0-1.53,0-2.25,1.02-.01,2.04-.03,3.07-.04,2.29-.02,4.61-.02,6.92-.03,0,.74,0,1.49,0,2.29ZM106.84,14.43v7.58h-9.98v-7.56c0-.75,0-1.46,0-2.16h3.03c2.29-.04,4.62-.08,6.96-.11,0,.72,0,1.47,0,2.25ZM96.17,14.45v7.56h-9.98v-9.72s9.98,0,9.98,0c0,.7,0,1.41,0,2.16ZM85.51,22.01h-9.98v-9.72h9.98s0,9.72,0,9.72ZM74.84,22.01h-10.14v-9.72h10.14s0,9.72,0,9.72ZM64.01,22.01h-9.98v-9.72h9.98s0,9.72,0,9.72ZM54.03,11.6V1.89h9.98v9.71h-9.98ZM53.34,11.6h-9.98s0-9.71,0-9.71h9.98v9.71ZM42.67,11.6h-9.98s0-9.71,0-9.71h9.98v9.71ZM32.01,11.6h-9.98s0-9.71,0-9.71h9.98v9.71ZM21.34,11.6h-9.98s0-9.72,0-9.72h9.98v9.72ZM10.67,11.61H.69S.69,1.89.69,1.89h9.98v9.72ZM10.67,12.29v9.72H.69v-9.72h9.98ZM10.67,22.69v9.72H.69v-9.72h9.98ZM10.67,33.1v9.72H.69v-9.72h9.98ZM10.67,43.5v9.72H.69v-9.72h9.98ZM10.67,53.9v9.72H.69v-9.72h9.98ZM10.67,64.31v9.72H.69v-9.72h9.98ZM10.67,74.71v9.72H.69v-9.72h9.98ZM10.67,85.11v9.72H.69v-9.72h9.98ZM10.67,95.51v9.72H.69v-9.72h9.98ZM10.67,105.92v9.72H.69v-9.72h9.98ZM10.67,116.32v9.72H.69v-9.72h9.98ZM11.35,116.32h9.98v9.72h-9.98v-9.72ZM22.02,116.32h9.98v9.72h-9.98v-9.72ZM32.69,116.32h9.98v9.72h-9.98v-9.72ZM43.36,116.32h9.98v9.72h-9.98v-9.72ZM54.03,116.32h9.98v9.72h-9.98v-9.72ZM64.7,116.32h10.14v9.72h-10.14v-9.72ZM75.52,116.32h9.98v9.72h-9.98v-9.72ZM86.19,116.32h9.98v9.72h-9.98v-9.72ZM96.86,116.32h3.02c2.27,0,4.6,0,6.96,0v9.71h-9.98v-9.72ZM107.53,116.33c3.29,0,6.62.03,9.98.06v9.64h-9.98v-9.71ZM118.2,116.4c1.01.01,2.01.02,3.02.03,2.32.24,4.64.44,6.97.63v8.97h-9.98v-9.63ZM128.87,117.12c3.19.25,6.38.47,9.55.65.42,4.09.55,7.16.58,8.27h-10.13v-8.92ZM139.01,117.11c-.59-2.81-1.17-5.67-1.73-8.56,1.49.27,3.01.53,4.56.77,1.4.3,2.8.56,4.2.8.45,2.46.94,4.91,1.46,7.36-2.81-.1-5.64-.22-8.5-.37ZM146.77,110.24c4.05.66,8.07,1.06,12.08,1.26.17,2.08.35,4.16.54,6.25-3.66-.04-7.39-.12-11.17-.24-.52-2.42-1-4.84-1.45-7.27ZM159.54,111.54c1.88.08,3.76.12,5.63.12,2.22,0,4.43-.07,6.64-.16-.08,2.09-.18,4.18-.28,6.28-3.71.03-7.53.03-11.45-.01-.19-2.08-.37-4.15-.54-6.22ZM172.49,111.47c4.05-.19,8.08-.52,12.09-.92-.35,2.35-.73,4.7-1.13,7.05-3.58.08-7.34.14-11.24.18.1-2.1.2-4.21.28-6.3ZM195.08,117.56c2.93-.28,5.79-.55,8.61-.78-.4,4.65-.49,8.08-.51,9.25-3.26,0-6.63.02-10.02.05.69-2.84,1.32-5.68,1.92-8.52ZM195.22,116.86c.53-2.57,1.02-5.14,1.47-7.72.89-.11,1.78-.22,2.66-.33,1.99-.25,4-.5,6.02-.75-.45,2.1-.93,4.2-1.45,6.3-.06.59-.11,1.17-.17,1.73-2.81.23-5.63.49-8.54.77ZM204.59,114.48c.53-2.16,1.03-4.33,1.49-6.5,2.7-.33,5.41-.64,8.14-.91-.23,2.27-.38,4.38-.38,6.42v2.15h-3.22c-2.07.1-4.13.25-6.18.41.05-.51.1-1.03.15-1.56ZM214.53,113.48c0-2.05.15-4.19.39-6.49,3.18-.32,6.38-.59,9.6-.78v9.42h-9.98s0-2.15,0-2.15ZM224.51,116.32v9.72h-9.98v-9.72h9.98ZM225.2,116.32h9.98v9.72h-9.98v-9.72ZM235.87,116.32h9.98v9.72h-9.98v-9.72ZM246.54,116.32h9.98v9.72h-9.98v-9.72ZM257.2,116.32h10.14v9.72h-10.14v-9.72ZM268.03,116.32h9.98v9.72h-9.98v-9.72ZM278.7,116.32h9.98v9.72h-9.98v-9.72ZM289.37,116.32h9.98v9.72h-9.98v-9.72ZM300.04,116.32h9.98v9.72h-9.98v-9.72ZM310.7,116.32h9.98v9.72h-9.98v-9.72ZM321.37,116.32h10.14v9.72h-10.14v-9.72ZM321.37,115.63v-9.72h10.14v9.72h-10.14ZM321.37,105.23v-9.72h10.14v9.72h-10.14ZM321.37,94.83v-9.72h10.14v9.72h-10.14ZM321.37,84.43v-9.72h10.14v9.72h-10.14ZM321.37,74.02v-9.72h10.14s0,9.72,0,9.72h-10.14ZM321.37,63.62v-9.72h10.14v9.72h-10.14ZM321.37,53.22v-9.72h10.14v9.72h-10.14ZM321.37,42.81v-9.72h10.14v9.72h-10.14ZM321.37,32.41v-9.72h10.14v9.72h-10.14ZM321.37,22.01v-9.72h10.14v9.72h-10.14ZM321.37,11.61V1.89h10.14v9.72h-10.14ZM213.84,1.89v9.72h-6.85c-.87,0-1.72-.03-2.57-.07-.43-4.85-.53-8.45-.55-9.65,2.33,0,4.6,0,6.78,0h3.2ZM188.51,1.79c1.31.02,2.63.03,3.95.04.71,2.94,1.36,5.89,1.97,8.84-.43-.05-.86-.1-1.29-.15-1.97-.23-4-.47-6.04-.67-1.02-.14-2.06-.23-3.09-.34-.45-2.6-.93-5.21-1.44-7.81,2.04.1,4.02.15,5.95.09ZM181.85,1.66c.51,2.59.99,5.18,1.44,7.77-3.75-.38-7.54-.57-11.34-.61-.02-.72-.04-1.43-.06-2.16l-.16-5.7c1.46.09,2.91.2,4.35.31,1.98.15,3.9.29,5.78.39ZM152.56,1.65l2.11-.11c5.28-1.04,10.85-.95,16.37-.62l.17,5.77c.02.71.04,1.41.06,2.12-3.7-.02-7.41.09-11.11.26.25-2.69.52-5.38.81-8.07l-.68-.07c-.29,2.73-.57,5.46-.82,8.19-3.72.19-7.43.44-11.12.72.57-2.69,1.19-5.37,1.85-8.06.79-.04,1.59-.08,2.36-.12ZM142.42,2.1c2.37-.08,4.73-.19,7.06-.3-.66,2.69-1.27,5.38-1.85,8.07-1,.07-1.99.15-2.99.22-1.86.14-3.74.28-5.63.42.42-3.98.59-7.03.65-8.39.91-.01,1.84-.02,2.75-.03ZM138.98,2.14c-.06,1.38-.23,4.46-.65,8.43-3.14.22-6.3.42-9.46.58,0-4.28.01-7.41.01-8.9,3.39-.02,6.75-.06,10.1-.1ZM128.2,2.24c0,1.5-.01,4.64-.01,8.94-2.22.1-4.44.19-6.65.22-1.12,0-2.22.01-3.33.01,0-4.37.02-7.57.02-9.14,3.33,0,6.66-.01,9.97-.04ZM117.37,2.28c.06,0,.11,0,.17,0,0,1.57-.02,4.78-.02,9.14-2.31,0-4.63.01-6.92.03-1.03,0-2.04.02-3.06.04,0-4.43.01-7.68.02-9.23,3.27.02,6.54.03,9.81.03ZM106.87,2.25c0,1.56-.02,4.8-.02,9.24-2.34.03-4.67.06-6.96.11h-3.02c0-4.63,0-7.96,0-9.44,3.32.04,6.65.07,9.99.09ZM96.17,11.6h-9.98s0-9.59,0-9.59c3.31.06,6.64.11,9.99.15,0,1.47,0,4.81,0,9.45ZM85.51,1.99v9.61s-9.98,0-9.98,0V1.89c1.35,0,2.7,0,4.06,0,1.96.04,3.94.08,5.92.11ZM74.84,1.89v9.71h-10.14s0-9.71,0-9.71h5.29c1.6,0,3.22,0,4.85,0ZM139.68,126.04c-.04-1.09-.16-4.15-.58-8.23,2.87.15,5.72.27,8.54.37.57,2.64,1.18,5.28,1.83,7.91-2.01-.02-4.03-.04-6.04-.04h-3.76ZM155.35,126.17c-1.7-.03-3.43-.05-5.16-.08-.65-2.63-1.26-5.26-1.83-7.89,3.76.12,7.46.2,11.09.24.24,2.59.49,5.2.76,7.8-1.63-.02-3.26-.05-4.86-.07ZM165.96,126.29c-1.68,0-3.37-.02-5.06-.04-.27-2.61-.53-5.21-.76-7.8,2.1.02,4.18.03,6.22.03,1.74,0,3.44-.01,5.14-.02-.13,2.6-.27,5.21-.42,7.83-1.71,0-3.42,0-5.12,0ZM172.18,118.45c3.87-.03,7.59-.1,11.15-.18-.46,2.65-.95,5.29-1.48,7.94-3.33.04-6.71.07-10.1.08.15-2.62.29-5.23.42-7.84ZM188.51,126.13c-1.95.03-3.94.05-5.95.07.53-2.65,1.02-5.29,1.48-7.94,1.68-.04,3.33-.08,4.93-.12,1.82-.17,3.62-.34,5.4-.51-.59,2.82-1.22,5.65-1.91,8.46-1.32.01-2.63.02-3.95.04ZM203.87,126.04c.02-1.18.11-4.64.51-9.31,2.09-.16,4.17-.31,6.26-.41h3.2v9.72h-3.2c-2.17,0-4.45,0-6.78,0Z"/></g></svg>