<?xml version="1.0" encoding="UTF-8"?><svg id="Layer_2" xmlns="http://www.w3.org/2000/svg" viewBox="0 0 75.44 89.88"><defs><style>.cls-1{fill:#26292b;}.cls-1,.cls-2,.cls-3{stroke-width:0px;}.cls-2{fill:#c6c6c6;}.cls-3{fill:#424547;}</style></defs><g id="pic"><path class="cls-2" d="M6.31,11.77c-.63.95-1.28,1.9-1.89,2.86-.29.45.41.85.71.41.65-.94,1.27-1.91,1.9-2.86.29-.44-.42-.86-.71-.42h0Z"/><path class="cls-2" d="M8.61,11.51c-1.38,1.67-2.68,3.41-3.86,5.23-.29.45.42.86.71.42,1.17-1.74,2.4-3.44,3.73-5.06.34-.41-.25-1-.59-.59h0Z"/><path class="cls-2" d="M10.95,11.9c-1.8,2.12-3.49,4.31-5.04,6.62-.3.45.42.86.72.42,1.54-2.23,3.16-4.39,4.9-6.45.34-.41-.24-1-.59-.59h0Z"/><path class="cls-2" d="M10.76,15.4c-.79.87-1.7,1.57-2.74,2.11-.47.25-.06.95.41.71,1.1-.56,2.08-1.32,2.91-2.24.35-.39-.23-.98-.58-.58h0Z"/><path class="cls-2" d="M35.48,38.53c-.29.49-.58.97-.86,1.46-.19.34-.45.75-.25,1.15.31.6,1.29.3,1.12-.39-.13-.53-.91-.3-.81.22v.07c.03-.11.04-.22.06-.33.28.13.46.09.54-.11.05-.09.1-.17.15-.26.08-.15.16-.29.24-.44.18-.32.34-.65.51-.97.25-.46-.43-.86-.7-.41h0Z"/><path class="cls-2" d="M38.4,37.4c-1.37,1.38-2.64,2.98-3.51,4.73-.24.49.45.9.74.43,1.01-1.63,2.05-3.17,3.35-4.59.35-.39-.2-.95-.58-.58h0Z"/><path class="cls-2" d="M40.41,37c-1.09,1.31-2.16,2.63-3.23,3.96-.75.93-1.56,1.76-1.69,2.99-.06.49.76.6.87.12.3-1.33,1.45-2.41,2.27-3.46.79-1.01,1.58-2.01,2.37-3.03.32-.41-.24-.99-.58-.58h0Z"/><path class="cls-2" d="M41.53,37.66c-1.62,1.91-3.21,3.87-4.78,5.82-.43.53-1.48,1.91-.23,2.22.54.13.75-.66.23-.83.33.11,2.48-2.99,2.77-3.34.87-1.09,1.75-2.18,2.6-3.29.31-.41-.23-.99-.58-.58h0Z"/><path class="cls-2" d="M43.2,37.85c-2.81,3-5.35,6.33-7.43,9.88-.28.48.34.9.74.57.23-.2.46-.39.69-.58.38-.32-.13-.99-.53-.69-.24.18-.49.36-.73.54.21.21.43.43.64.64,2.2-3.43,4.56-6.66,7.2-9.77.34-.4-.22-.98-.58-.58h0Z"/><path class="cls-2" d="M44.95,38.07c-3.19,3.72-6.31,7.7-8.62,12.04-.27.51.45.92.77.45,2.72-4.07,5.32-8.12,8.44-11.9.33-.4-.24-.99-.58-.58h0Z"/><path class="cls-2" d="M45.42,39.57c-1.55,2.22-3.09,4.44-4.62,6.68-1.13,1.65-3.12,3.67-3.63,5.61-.05.19.03.41.21.52.05.03.11.06.16.09.19.11.39.06.55-.07.04-.03.08-.07.12-.1.38-.32-.13-.99-.54-.7,1.21-.87,1.76-1.63,2.62-2.9.62-.92,1.25-1.84,1.87-2.76,1.33-1.98,2.66-3.96,3.98-5.94.3-.45-.42-.86-.72-.42h0Z"/><path class="cls-2" d="M46.6,41.02c-1.52,2.12-3.02,4.26-4.51,6.41-1.25,1.8-2.78,3.55-3.34,5.71-.14.56.67.77.85.24.8-2.28,2.48-4.25,3.83-6.22,1.3-1.9,2.6-3.8,3.89-5.7.31-.45-.41-.86-.73-.42h0Z"/><path class="cls-2" d="M46.3,43.5c-2.05,3.06-4.04,6.23-5.73,9.51-.26.5.46.93.76.45,1.93-3.15,3.77-6.37,5.69-9.53.28-.46-.42-.86-.72-.42h0Z"/><path class="cls-2" d="M46.94,45.44c-1.35,2.21-2.78,4.4-3.99,6.68-.27.51.45.92.76.45,1.43-2.15,2.67-4.46,3.97-6.69.28-.48-.46-.91-.75-.44h0Z"/><path class="cls-2" d="M47.88,47.31c-1.37,1.46-2.55,3.19-3.12,5.12-.14.46.59.79.79.33.78-1.77,1.64-3.39,2.96-4.83.38-.42-.23-1.04-.63-.63h0Z"/><path class="cls-2" d="M48.02,49.35c-.5.73-1.03,1.44-1.49,2.19-.3.49.43.88.76.44.53-.71,1-1.46,1.5-2.19.32-.47-.44-.91-.76-.44h0Z"/><path class="cls-2" d="M19.17,42.7c-.43.38-.84.78-1.23,1.2-.35.37-.78.76-1.03,1.2-.41.71.53,1.45.99.73.31-.48-.42-.86-.74-.44-.02.02-.03.04-.05.07.13-.07.25-.14.38-.22.08.11.15.21.23.32.04-.05.09-.11.13-.16.09-.07.17-.2.24-.29.18-.22.37-.43.57-.65.36-.4.74-.79,1.11-1.18.37-.39-.19-.93-.58-.58h0Z"/><path class="cls-2" d="M22.57,41.11c-1.96,1.89-3.86,4.19-5.11,6.63-.27.52.44.92.77.45,1.58-2.24,3.1-4.43,4.92-6.49.35-.4-.2-.97-.59-.59h0Z"/><path class="cls-2" d="M24.63,41.01c-2.61,2.87-4.92,6.07-6.74,9.51-.22.42.23.91.66.66.41-.24.82-.48,1.23-.71.49-.28.06-1.01-.44-.76-.42.22-.85.43-1.27.63.22.22.44.44.66.66,1.93-3.32,4.04-6.44,6.51-9.39.35-.42-.23-1.02-.61-.61h0Z"/><path class="cls-2" d="M26.51,41.34c-3.11,3.53-5.87,7.51-7.78,11.82-.23.53.51.99.79.46,2.22-4.15,4.6-8.03,7.59-11.69.34-.42-.23-1.01-.6-.6h0Z"/><path class="cls-2" d="M27.91,43.19c-3.23,3.55-6.29,7.55-8.29,11.93-.24.52.47.96.78.45,2.49-4.14,4.94-8.11,8.13-11.77.36-.42-.23-1.03-.61-.61h0Z"/><path class="cls-2" d="M28.69,45.51c-3.01,3.5-5.96,7.2-8.35,11.16-.31.51.45.93.79.46,2.66-3.73,5.25-7.47,8.17-11.01.35-.42-.24-1.03-.61-.61h0Z"/><path class="cls-2" d="M28.77,47.97c-1.52,1.9-3.04,3.81-4.51,5.74-.76,1-1.52,2.01-2.27,3.03-.38.52-.89.96-.84,1.63.02.2.14.44.36.48l.21.04c.25.04.53-.06.59-.34.01-.05.02-.11.04-.16.11-.5-.56-.81-.83-.35.56.33.94.18,1.13-.47.3-.41.6-.81.9-1.22.6-.81,1.2-1.62,1.8-2.43,1.34-1.78,2.68-3.56,4.05-5.32.35-.44-.27-1.08-.63-.63h0Z"/><path class="cls-2" d="M29.43,50.36c-2.31,2.59-4.65,5.3-6.49,8.25-.27.44.4.99.73.57,2.13-2.74,4.11-5.57,6.37-8.21.36-.42-.24-1.03-.61-.61h0Z"/><path class="cls-2" d="M29.91,52.8c-2.11,2.03-4.08,4.27-5.62,6.77-.2.33.07.69.41.72.15.01.3.02.45.04.5.04.59-.75.12-.87-.15-.04-.29-.07-.44-.11.1.23.19.47.29.7,1.65-2.35,3.39-4.59,5.43-6.62.41-.41-.22-1.04-.64-.64h0Z"/><path class="cls-2" d="M29.82,55.46c-1.05,1.41-2.19,2.79-3.13,4.28-.27.42.37.94.71.55,1.16-1.38,2.15-2.9,3.2-4.37.34-.48-.44-.92-.79-.46h0Z"/><path class="cls-2" d="M31.1,55.87c-.67,1.29-1.36,2.58-1.98,3.9-.23.51.48.95.76.44.71-1.27,1.34-2.59,1.99-3.89.26-.51-.51-.96-.77-.45h0Z"/><path class="cls-2" d="M43.56,64.92c-.36.4-.55.84-.57,1.37-.02.54.78.52.82,0,.02-.3.13-.56.33-.79.34-.4-.22-.98-.58-.58h0Z"/><path class="cls-2" d="M44.97,64.01c-.17.79-.35,1.58-.47,2.38-.08.52.69.76.81.22.18-.79.31-1.59.45-2.39.09-.51-.68-.74-.79-.22h0Z"/><path class="cls-2" d="M46.86,63.18c-.34,1.19-.66,2.41-.9,3.63-.11.53.66.75.81.22.35-1.19.63-2.42.88-3.64.11-.51-.64-.73-.79-.22h0Z"/><path class="cls-2" d="M49.32,62.16c-.83,1.54-1.57,3.18-1.99,4.89-.13.53.64.74.81.22.54-1.62,1.1-3.18,1.89-4.69.25-.47-.46-.89-.71-.42h0Z"/><path class="cls-2" d="M51.38,60.91c-.87,1.86-1.67,3.75-2.3,5.71-.17.52.63.72.81.22.68-1.86,1.39-3.71,2.21-5.51.22-.48-.49-.9-.71-.42h0Z"/><path class="cls-2" d="M52.78,61.41c-.72,1.74-1.45,3.47-2.13,5.23-.17.44.59.77.77.33.75-1.77,1.45-3.55,2.17-5.33.2-.5-.61-.72-.81-.22h0Z"/><path class="cls-2" d="M54.53,61.2c-.72,1.81-1.44,3.62-2.12,5.45-.19.51.61.71.8.22.74-1.81,1.42-3.63,2.12-5.45.19-.5-.61-.72-.81-.22h0Z"/><path class="cls-2" d="M59.05,57.79c.51,0,.52-.8,0-.8s-.52.8,0,.8h0Z"/><path class="cls-2" d="M59.98,56.53c-.1.9-.36,1.75-.71,2.58-.21.48.47.91.72.42.48-.94.72-1.96.8-3,.04-.53-.76-.51-.82,0h0Z"/><path class="cls-2" d="M61.49,56.2c-.18.86-.36,1.72-.51,2.59-.09.51.68.74.8.22.19-.86.35-1.73.51-2.59.1-.52-.69-.74-.79-.22h0Z"/><path class="cls-2" d="M58.52,57.08c-.61.48-1.06,1.17-1.18,1.94-.08.52.68.76.81.22.16-.64.44-1.15.96-1.58.41-.34-.17-.91-.59-.59h0Z"/><path class="cls-2" d="M3.67,12.65c-.5,0-.99,0-1.49,0-.19,0-.4.14-.44.34C-.23,22.17.34,31.73.3,41.06c-.04,10.26-.04,20.52-.01,30.79,0,2.37.01,4.74.02,7.1,0,2.2-.44,4.96.04,7.11.54,2.41,3.07,2.8,5.24,2.63,2.36-.19,4.44-.73,6.83-.23,1.89.4,3.39.85,5.32.71,4.64-.35,9.06,1.18,13.7.56,11.82-1.57,23.38-2.69,35.32-2.21.71.03.7-1.07,0-1.1-11.38-.46-22.61.36-33.86,2.02-3.96.58-7.09-.06-10.98-.48-2.44-.26-4.77.45-7.2-.02-2.22-.42-3.93-.97-6.23-.75-1.28.12-2.57.57-3.86.49-3.33-.21-3.27-1.95-3.29-4.59-.1-11.84-.08-23.68-.06-35.52.01-5.92.03-11.84.07-17.76.02-2.71-.79-16.18,2.33-16.28.56-.02.57-.88,0-.88h0Z"/><path class="cls-2" d="M3.31,15.56c-.77.83-1.61,1.59-2.5,2.28-.37.29.12.93.51.66.96-.68,1.81-1.47,2.58-2.35.35-.4-.22-.99-.59-.59h0Z"/><path class="cls-2" d="M3.14,17.77c-.73.64-1.47,1.28-2.18,1.94-.4.38.19.95.6.6.74-.63,1.46-1.29,2.18-1.95.4-.36-.19-.95-.59-.59h0Z"/><path class="cls-2" d="M3.32,19.68c-.88.86-1.77,1.7-2.62,2.6-.37.39.2.96.59.59.9-.84,1.75-1.73,2.61-2.6.38-.38-.2-.96-.59-.59h0Z"/><path class="cls-2" d="M3.13,22.11c-1,.88-1.88,1.93-2.49,3.12-.25.49.46.91.74.43.66-1.1,1.4-2.09,2.34-2.96.4-.37-.19-.94-.59-.59h0Z"/><path class="cls-2" d="M2.94,24.65c-.7,1-1.46,1.92-2.25,2.84-.35.41.21.99.6.6.9-.9,1.68-1.95,2.36-3.03.28-.45-.41-.84-.7-.41h0Z"/><path class="cls-2" d="M2.51,27.35c-.9.84-1.7,1.79-2.31,2.86-.27.48.43.88.73.43.64-.97,1.34-1.88,2.17-2.7.38-.38-.2-.95-.59-.59h0Z"/><path class="cls-2" d="M2.88,29.39c-.81,1.08-1.61,2.16-2.39,3.26-.31.44.4.84.72.42.81-1.07,1.6-2.17,2.38-3.26.31-.44-.4-.83-.71-.42h0Z"/><path class="cls-2" d="M2.48,32.22c-.5,1.14-1.16,2.17-1.96,3.13-.35.42.21,1.01.61.61.95-.97,1.64-2.14,2.1-3.42.16-.43-.56-.74-.75-.32h0Z"/><path class="cls-2" d="M2.9,34.91c-.89,1.12-1.79,2.22-2.62,3.38-.28.39.36.89.67.52.91-1.1,1.76-2.25,2.62-3.39.28-.38-.36-.88-.66-.51h0Z"/><path class="cls-2" d="M2.61,37.61c-.53.91-1.15,1.75-1.84,2.55-.35.42.22,1.01.61.61.78-.81,1.43-1.74,1.95-2.74.25-.48-.45-.89-.72-.42h0Z"/><path class="cls-2" d="M2.95,39.73c-.9,1.11-1.8,2.21-2.65,3.36-.29.38.36.89.67.51.91-1.1,1.77-2.23,2.64-3.37.28-.37-.36-.87-.65-.5h0Z"/><path class="cls-2" d="M2.71,42.75c-.76.89-1.52,1.77-2.23,2.7-.29.39.35.88.67.52.75-.85,1.44-1.74,2.14-2.63.32-.41-.23-1-.59-.59h0Z"/><path class="cls-2" d="M2.57,45.64c-.73.92-1.44,1.87-2.12,2.84-.32.46.41.85.74.43.7-.9,1.38-1.83,2.02-2.77.26-.38-.35-.86-.65-.5h0Z"/><path class="cls-2" d="M2.25,49.03c-.66.79-1.24,1.62-1.72,2.53-.26.48.46.91.74.43.47-.82.99-1.62,1.59-2.36.34-.42-.25-1.03-.6-.6h0Z"/><path class="cls-2" d="M2.92,51.44c-.82,1.04-1.66,2.07-2.44,3.14-.28.39.36.89.67.52.84-1.03,1.62-2.1,2.42-3.15.28-.37-.36-.87-.65-.5h0Z"/><path class="cls-2" d="M3.06,54.26c-1.07.75-2,1.75-2.64,2.89-.27.48.43.88.73.43.69-1.02,1.46-1.88,2.41-2.66.36-.3-.12-.92-.5-.65h0Z"/><path class="cls-2" d="M2.82,56.74c-.94,1.14-1.71,2.39-2.2,3.78-.16.45.59.78.79.33.57-1.28,1.23-2.49,2.08-3.61.28-.38-.36-.87-.66-.51h0Z"/><path class="cls-2" d="M2.94,59.62c-.75,1.08-1.58,2.09-2.42,3.1-.34.41.21,1,.6.6.96-1,1.79-2.13,2.54-3.28.29-.45-.41-.85-.72-.42h0Z"/><path class="cls-2" d="M3.12,62.5c-.87,1.01-1.74,2.02-2.58,3.07-.34.42.24,1.02.6.6.88-1.01,1.72-2.04,2.56-3.08.34-.41-.24-1-.59-.59h0Z"/><path class="cls-2" d="M2.86,65.86c-.74,1-1.48,2.01-2.18,3.04-.31.46.41.85.73.43.75-1,1.46-2.02,2.17-3.04.31-.44-.41-.84-.72-.42h0Z"/><path class="cls-2" d="M3.21,68.49c-.94.69-1.74,1.55-2.28,2.59-.25.49.45.91.74.43.55-.91,1.2-1.71,2.05-2.37.37-.29-.12-.93-.5-.65h0Z"/><path class="cls-2" d="M3.08,70.92c-1.08,1.15-2.11,2.35-3.01,3.65-.27.39.37.9.67.52.94-1.22,1.9-2.43,2.93-3.58.36-.4-.22-.98-.59-.59h0Z"/><path class="cls-2" d="M2.72,74.03c-1.03.9-1.96,1.95-2.65,3.14-.28.49.43.89.74.43.74-1.09,1.53-2.09,2.5-2.98.4-.37-.19-.95-.59-.59h0Z"/><path class="cls-2" d="M2.7,76.31c-.77,1.2-1.58,2.38-2.28,3.62-.27.48.43.88.74.43.81-1.17,1.53-2.41,2.27-3.63.28-.46-.43-.87-.72-.42h0Z"/><path class="cls-2" d="M2.86,79.32c-.88,1.15-1.78,2.29-2.59,3.48-.27.4.37.91.68.52.93-1.16,1.78-2.37,2.65-3.58.32-.45-.41-.85-.73-.43h0Z"/><path class="cls-2" d="M2.94,82.41c-.78,1.27-1.65,2.42-2.61,3.56-.36.42.21,1.01.62.62,1.1-1.06,2.04-2.39,2.73-3.75.24-.48-.44-.89-.73-.43h0Z"/><path class="cls-2" d="M3.51,85.83c-.38.56-.77,1.13-1.11,1.72-.28.49.42.87.74.43.39-.55.75-1.15,1.1-1.73.29-.47-.43-.88-.73-.43h0Z"/><path class="cls-2" d="M6.87,85.78c-.54.7-1.02,1.46-1.27,2.32-.13.44.58.77.77.32.33-.76.67-1.47,1.15-2.14.28-.38-.36-.88-.65-.5h0Z"/><path class="cls-2" d="M9.8,86.12c-.71.6-1.31,1.45-1.49,2.38-.1.54.62.73.81.22.29-.79.64-1.44,1.26-2.02.4-.37-.18-.93-.59-.59h0Z"/><path class="cls-2" d="M12.5,85.98c-.57.65-.91,1.38-1.01,2.24-.05.47.74.58.83.11.13-.65.35-1.24.78-1.76.34-.41-.24-1.01-.6-.6h0Z"/><path class="cls-2" d="M15.76,85.98c-.75.7-1.21,1.64-1.25,2.68-.02.56.78.53.85,0,.09-.8.43-1.51,1-2.08.39-.39-.2-.97-.6-.6h0Z"/><path class="cls-2" d="M18.83,86.46c-.77.67-1.41,1.52-1.74,2.5-.15.45.57.76.77.33.4-.84.87-1.59,1.56-2.23.4-.37-.19-.95-.6-.6h0Z"/><path class="cls-2" d="M21.77,86.29c-.58.76-1.05,1.58-1.37,2.48-.16.45.58.77.78.33.37-.83.79-1.63,1.32-2.38.32-.45-.41-.86-.73-.43h0Z"/><path class="cls-2" d="M24.97,86.24c-.58.79-1.19,1.59-1.67,2.43-.23.4.36.9.67.52.64-.79,1.19-1.67,1.74-2.52.3-.47-.42-.86-.73-.43h0Z"/><path class="cls-2" d="M28.81,86.06c-1,.74-1.92,1.73-2.33,2.92-.16.47.55.75.79.33.58-.99,1.14-1.87,2.05-2.59.37-.3-.13-.95-.51-.66h0Z"/><path class="cls-2" d="M32.08,86.06c-1.07.64-2.05,1.68-2.35,2.92-.11.46.58.8.8.34.48-1.02,1.01-1.89,1.98-2.52.45-.3.04-1.01-.43-.73h0Z"/><path class="cls-2" d="M35.27,85.72c-1.02.81-1.95,1.84-2.43,3.07-.18.47.54.74.79.33.65-1.05,1.29-2,2.24-2.79.43-.36-.18-.94-.61-.61h0Z"/><path class="cls-2" d="M37.82,85.9c-.63.66-1.28,1.33-1.85,2.05-.34.42.21,1.01.61.61.65-.64,1.26-1.35,1.85-2.05.36-.42-.22-1.02-.61-.61h0Z"/><path class="cls-2" d="M41.56,85.64c-.95.15-1.68.97-1.69,1.93,0,.48.78.61.86.12.1-.61.44-1.09,1.06-1.22.55-.12.31-.92-.23-.83h0Z"/><path class="cls-2" d="M43.69,85.62c-.22.36-.44.72-.65,1.09-.27.48.44.88.73.43.23-.35.44-.72.66-1.08.29-.48-.46-.91-.74-.43h0Z"/><path class="cls-2" d="M46.14,86.18c-.3.28-.59.57-.86.87-.37.41.2.98.61.61.31-.28.59-.57.87-.86.39-.41-.21-1.01-.62-.62h0Z"/><path class="cls-2" d="M69.27,70.42c-.03,4.7-.06,9.41-.02,14.12,0,.56.86.56.87,0,.04-4.7.02-9.41-.02-14.12,0-.53-.82-.53-.83,0h0Z"/><path class="cls-2" d="M70.36,79.98c-.03,2.1-.07,4.2-.01,6.3.02.55.83.55.85,0,.06-2.1.01-4.2-.01-6.3,0-.53-.82-.53-.82,0h0Z"/><path class="cls-2" d="M66.91,87.34c.22-.16.8.33,1.04.41.37.13.78.11,1.1-.15.6-.49.55-1.51.28-2.16-.16-.39-.86-.2-.81.22.06.45.34,1.54-.46,1.18-.58-.26-1.07-.62-1.66-.16-.36.29.12.92.5.65h0Z"/><path class="cls-2" d="M49.12,87.21c.44-.42.9-.84,1.31-1.29.37-.4-.19-.95-.59-.59-.46.4-.89.85-1.32,1.28-.39.39.21.99.61.61h0Z"/><path class="cls-2" d="M51.09,87.65c.45-.56,1-.95,1.65-1.24.43-.19.12-.93-.32-.76-.76.29-1.41.77-1.91,1.42-.32.41.25,1,.58.58h0Z"/><path class="cls-2" d="M53.83,87.08c.65-.43,1.31-.86,1.96-1.3.43-.3.04-.99-.41-.71-.66.42-1.31.86-1.96,1.3-.44.29-.03,1,.41.71h0Z"/><path class="cls-2" d="M56.87,87.29c.51-.36,1.02-.72,1.52-1.09.42-.31.03-1.02-.42-.71-.51.35-1.01.72-1.52,1.09-.43.31-.02,1.03.42.72h0Z"/><path class="cls-2" d="M59.63,87.35c.29-.52.71-.9,1.27-1.11.48-.19.29-.97-.22-.79-.76.27-1.37.78-1.77,1.48-.26.47.45.88.72.42h0Z"/><path class="cls-2" d="M62.49,87.02c.45-.26.9-.52,1.35-.79.45-.27.05-.97-.41-.71-.45.26-.9.52-1.35.78-.46.27-.04.98.41.71h0Z"/><path class="cls-2" d="M65.42,87.22c.14-.15.29-.29.43-.44.37-.37-.2-.95-.58-.58-.15.14-.29.29-.44.43-.38.37.21.96.58.58h0Z"/><path class="cls-2" d="M67.59,87.22c.29-.29.58-.57.87-.87.36-.38-.2-.94-.58-.58-.3.28-.58.58-.87.87-.38.38.21.96.58.58h0Z"/><path class="cls-2" d="M68.45,87.65c.29-.36.58-.73.86-1.09.32-.41-.25-.99-.58-.58-.29.36-.58.72-.87,1.09-.33.41.25,1,.58.58h0Z"/><path class="cls-2" d="M6.07,62.39c-.01,5.79-.03,11.58,0,17.37,0,.54.83.54.84,0,.03-5.79.01-11.58,0-17.37,0-.54-.84-.54-.84,0h0Z"/><path class="cls-2" d="M7.97,74.54c-.26,3.55-.29,7.1-.03,10.65.04.54.88.54.84,0-.21-3.55-.21-7.1.03-10.65.04-.54-.8-.54-.84,0h0Z"/><path class="cls-2" d="M4.54,83.21c2.32.09,4.63.18,6.95.25.54.02.53-.81,0-.83-2.32-.1-4.63-.17-6.95-.25-.54-.02-.54.81,0,.83h0Z"/><path class="cls-2" d="M72.63,11.76c.41.88.84,1.75,1.27,2.62.24.48.94.06.72-.42-.41-.88-.83-1.75-1.26-2.62-.24-.48-.94-.06-.72.42h0Z"/><path class="cls-2" d="M71.01,12.68c.67,1.15,1.34,2.29,2.03,3.43.28.46.99.05.72-.42-.66-1.15-1.35-2.29-2.04-3.43-.28-.46-.98-.04-.71.42h0Z"/><path class="cls-2" d="M70.55,16.6c.82,1.51,1.64,3.02,2.47,4.51.26.47.97.05.72-.42-.81-1.51-1.64-3.01-2.46-4.52-.26-.48-.99-.05-.73.43h0Z"/><path class="cls-3" d="M75.44,10.94c.02-.41-.46-.49-.69-.26-.06-.13-.18-.23-.38-.21-1.14.08-2.28.13-3.41.18.42-1.08.87-2.15,1.36-3.21.13,0,.24-.06.31-.15.92-.02,1.79-.66,1.97-1.66.23-1.3-.68-2.46-1.99-2.54-1.15-.07-2.28.69-2.38,1.89-.08.94.44,1.82,1.23,2.23-.55,1.15-1.07,2.31-1.53,3.49-10.18.41-20.35-.04-30.53-.27-10.46-.24-20.93-.25-31.38.02-.97-2.11-1.98-4.19-2.97-6.28,1.01-.51,1.42-1.83.85-2.93C5.19-.12,3.34-.36,2.15.51c-1.12.82-1.46,2.62-.51,3.71.68.79,1.82.94,2.69.51.85,1.92,1.69,3.85,2.56,5.76-.89.03-1.78.04-2.67.07-.03,0-.05.01-.08.02-.21-.23-.7-.15-.71.26-.89,24.88-.65,49.79-.21,74.68,0,.24.16.38.35.43.05.04.12.07.2.09,5.8.74,11.84.25,17.68.2,5.91-.05,11.83-.1,17.74-.15,11.81-.1,23.61-.13,35.41.39.38.02.51-.36.4-.64-.39-24.97-1.02-49.94.43-74.89ZM72.42,3.58c1.83,0,1.92,2.68.29,2.97h0c-.09.02-.19.03-.29.03-.12,0-.22-.01-.32-.03-.1-.02-.19-.05-.28-.09h0c-1.3-.55-1.1-2.88.6-2.88ZM3.61,4.01c-.06,0-.12-.01-.18-.02-.35.02-.71-.08-.98-.35-.37-.36-.45-.92-.32-1.42.04-.25.16-.47.33-.66.02-.03.04-.06.06-.09.58-.63,1.72-.74,2.32-.09.44.47.49,1.22.16,1.71-.1.23-.28.42-.48.58-.04.03-.08.07-.12.09-.07.04-.14.07-.21.1-.04.02-.07.04-.11.05,0,0,0,0,0,0-.15.05-.3.08-.46.08h0ZM39.19,85.21c-5.91.05-11.83.11-17.74.16-5.72.05-11.59.46-17.29-.11-.75-24.63-.44-49.27.07-73.9,1.01-.02,2.03-.04,3.04-.06.43.93.87,1.85,1.33,2.77.23.47,1.07.13.86-.36-.34-.81-.7-1.62-1.06-2.43,10.33-.19,20.67-.24,31,.02,10.07.26,20.14.68,30.21.29-.39,1.08-.76,2.18-1.06,3.29-.15.56.69.79.86.24.37-1.21.78-2.4,1.22-3.57,1.25-.06,2.5-.12,3.75-.2.1,0,.17-.05.24-.09-1.7,24.7-.9,49.52-.51,74.26-11.63-.51-23.27-.41-34.91-.31Z"/><path class="cls-3" d="M68.05,16.37c-.34-.18-.56-.48-.49-.88.1-.54-.72-.77-.82-.23-.15.74.16,1.52.88,1.84.49.22.93-.48.43-.74Z"/><path class="cls-3" d="M9.77,13.09c.23.86-.04,1.73-.68,2.35-.41.39.2,1,.62.62.89-.81,1.22-2.04.89-3.19-.15-.53-.96-.31-.82.23Z"/><path class="cls-3" d="M8.12,15.45c-.33-.12-.52-.36-.61-.7-.13-.53-.94-.31-.82.23.15.63.59,1.09,1.2,1.29.52.17.73-.63.23-.82Z"/><path class="cls-3" d="M69.71,15.5c-.32.47-.64.94-.94,1.42-.29.47.42.86.73.42.33-.46.64-.93.95-1.41.3-.47-.43-.89-.74-.43Z"/><path class="cls-1" d="M17.65,55.05c1.54,1.73,3.17,3.37,4.89,4.92.17.15.41-.1.25-.25-1.72-1.55-3.35-3.19-4.89-4.92-.15-.17-.4.08-.25.25h0Z"/><path class="cls-1" d="M17.56,53.94c1.65,1.73,3.34,3.42,5.08,5.07.16.15.41-.09.25-.25-1.74-1.65-3.43-3.34-5.08-5.07-.16-.16-.4.08-.25.25h0Z"/><path class="cls-1" d="M17.6,53.1c1.64,1.6,3.29,3.18,4.96,4.75.16.15.41-.09.25-.25-1.67-1.56-3.32-3.15-4.96-4.75-.16-.16-.41.09-.25.25h0Z"/><path class="cls-1" d="M17.59,51.65c1.69,1.5,3.34,3.06,4.93,4.67.16.16.41-.09.25-.25-1.59-1.61-3.24-3.17-4.93-4.67-.17-.15-.42.1-.25.25h0Z"/><path class="cls-1" d="M17.62,50.7c1.52,1.63,3.15,3.13,4.89,4.51.17.14.42-.11.25-.25-1.74-1.38-3.37-2.88-4.89-4.51-.15-.16-.4.08-.25.25h0Z"/><path class="cls-1" d="M17.63,49.72c1.61,1.62,3.28,3.19,5.01,4.69.17.15.42-.1.25-.25-1.73-1.5-3.39-3.07-5.01-4.69-.16-.16-.41.09-.25.25h0Z"/><path class="cls-1" d="M17.6,48.91c1.6,1.57,3.26,3.07,4.99,4.49.17.14.42-.1.25-.25-1.73-1.42-3.39-2.92-4.99-4.49-.16-.16-.41.09-.25.25h0Z"/><path class="cls-1" d="M17.58,47.77c1.64,1.54,3.31,3.04,5.03,4.49.17.14.42-.1.25-.25-1.72-1.45-3.4-2.95-5.03-4.49-.16-.15-.41.09-.25.25h0Z"/><path class="cls-1" d="M17.68,46.67c1.55,1.5,3.16,2.93,4.82,4.31.17.14.42-.1.25-.25-1.66-1.38-3.27-2.81-4.82-4.31-.16-.16-.41.09-.25.25h0Z"/><path class="cls-1" d="M17.66,45.52c1.59,1.46,3.21,2.9,4.85,4.31.17.15.42-.1.25-.25-1.64-1.41-3.25-2.84-4.85-4.31-.17-.15-.41.09-.25.25h0Z"/><path class="cls-1" d="M34.78,49.62c2,1.69,4.07,3.31,6.19,4.85.18.13.36-.17.18-.3-2.1-1.52-4.14-3.12-6.12-4.79-.17-.14-.42.1-.25.25h0Z"/><path class="cls-1" d="M34.6,47.48c1.97,2.02,4.08,3.9,6.31,5.63.18.14.42-.11.25-.25-2.23-1.73-4.33-3.61-6.31-5.63-.16-.16-.4.09-.25.25h0Z"/><path class="cls-1" d="M34.73,46.72c1.99,1.87,4.06,3.64,6.2,5.33.17.14.42-.11.25-.25-2.15-1.68-4.21-3.46-6.2-5.33-.16-.15-.41.09-.25.25h0Z"/><path class="cls-1" d="M34.67,45.87c2.02,1.74,4.12,3.37,6.31,4.9.18.13.36-.17.18-.3-2.16-1.5-4.24-3.12-6.24-4.84-.17-.15-.42.1-.25.25h0Z"/><path class="cls-1" d="M34.78,44.69c1.98,1.66,4.01,3.26,6.1,4.79.18.13.36-.17.18-.3-2.06-1.51-4.07-3.09-6.03-4.74-.17-.14-.42.1-.25.25h0Z"/><path class="cls-1" d="M34.69,43.82c2.04,1.64,4.14,3.2,6.29,4.7.19.13.36-.17.18-.3-2.13-1.47-4.2-3.02-6.22-4.64-.17-.14-.42.11-.25.25h0Z"/><path class="cls-1" d="M34.71,42.2c2.08,1.65,4.19,3.27,6.32,4.86.18.13.35-.17.18-.3-2.11-1.57-4.19-3.17-6.25-4.8-.17-.14-.42.11-.25.25h0Z"/><path class="cls-1" d="M34.7,41.26c2.15,1.35,4.03,3.07,6.22,4.35.19.11.37-.19.18-.3-2.19-1.28-4.07-3.01-6.22-4.35-.19-.12-.37.18-.18.3h0Z"/><path class="cls-1" d="M34.67,39.61c2.06,1.74,4.16,3.43,6.32,5.04.18.13.35-.17.18-.3-2.13-1.6-4.22-3.26-6.25-4.99-.17-.14-.42.1-.25.25h0Z"/><path class="cls-1" d="M48.81,45.72c.28.18.57.37.85.56v-.3c.22-.1.13.03,0-.12-.06-.06-.17-.11-.24-.16-.14-.09-.29-.18-.42-.28-.06.1-.12.2-.18.3,1.89,1.22,3.82,2.38,5.79,3.46.2.11.37-.19.18-.3-1.97-1.08-3.9-2.23-5.79-3.46-.19-.13-.35.17-.18.3.19.15.77.67,1.03.56.13-.06.1-.23,0-.3-.28-.19-.57-.37-.85-.56-.19-.12-.36.18-.18.3h0Z"/><path class="cls-1" d="M48.3,43.6c2.11,1.47,4.22,2.95,6.33,4.42.18.13.36-.17.18-.3-2.11-1.47-4.22-2.95-6.33-4.42-.18-.13-.36.17-.18.3h0Z"/><path class="cls-1" d="M48.24,42.22c2.08,1.56,4.2,3.06,6.38,4.48.19.12.36-.18.18-.3-2.17-1.42-4.3-2.92-6.38-4.48-.18-.14-.35.17-.18.3h0Z"/><path class="cls-1" d="M48.26,40.99c2.08,1.36,4.18,2.71,6.28,4.05.19.12.37-.18.18-.3-2.1-1.34-4.19-2.69-6.27-4.05-.19-.12-.36.18-.18.3h0Z"/><path class="cls-1" d="M48.22,39.34c2.11,1.44,4.23,2.87,6.34,4.31.19.13.36-.18.18-.3-2.11-1.44-4.23-2.87-6.34-4.31-.19-.13-.36.18-.18.3h0Z"/><path class="cls-1" d="M48.33,37.9c1.97,1.6,4.03,3.08,6.17,4.45.19.12.37-.18.18-.3-2.11-1.35-4.15-2.82-6.1-4.4-.17-.14-.42.11-.25.25h0Z"/><path class="cls-1" d="M48.29,35.66c2.02,1.66,4.09,3.25,6.23,4.77.18.13.36-.17.18-.3-2.11-1.5-4.16-3.07-6.16-4.71-.17-.14-.42.1-.25.25h0Z"/><path class="cls-1" d="M48.32,34.05c2.06,1.54,4.13,3.07,6.19,4.61.18.13.35-.17.18-.3-2.06-1.54-4.13-3.07-6.19-4.61-.18-.13-.35.17-.18.3h0Z"/><path class="cls-1" d="M48.3,32.8c2.13,1.34,4.19,2.78,6.18,4.31.18.14.35-.17.18-.3-2-1.53-4.06-2.97-6.18-4.31-.19-.12-.37.18-.18.3h0Z"/><path class="cls-1" d="M48.19,30.88c2.02,1.66,4.12,3.2,6.31,4.63.19.12.36-.18.18-.3-2.16-1.41-4.24-2.93-6.24-4.57-.17-.14-.42.1-.25.25h0Z"/><path class="cls-1" d="M48.36,29.74c2.22,1.27,3.98,3.17,6.11,4.58.19.12.36-.18.18-.3-2.13-1.41-3.89-3.31-6.11-4.58-.2-.11-.37.19-.18.3h0Z"/><path class="cls-1" d="M48.28,28.91c2.12,1.53,4.23,3.08,6.32,4.66.18.14.35-.17.18-.3-2.09-1.57-4.2-3.13-6.32-4.66-.18-.13-.36.17-.18.3h0Z"/><path class="cls-1" d="M48.22,27.31c2.06,1.64,4.17,3.22,6.31,4.75.18.13.36-.17.18-.3-2.12-1.51-4.2-3.08-6.24-4.7-.17-.14-.42.11-.25.25h0Z"/><path class="cls-1" d="M22.62,47.79c-.11,4.7.03,9.44.16,14.14.01.4.61.4.62,0,.03-4.69-.01-9.46-.38-14.14-.02-.25-.39-.26-.4,0h0Z"/><path class="cls-1" d="M22.87,47.98c2.66-.72,5.5-2.23,7.74-3.82.28-.2.04-.62-.27-.46-1.28.65-2.49,1.41-3.77,2.05-1.27.64-2.61,1.17-3.84,1.89-.18.11-.06.4.14.34h0Z"/><path class="cls-1" d="M30.67,43.73c-.29,4.79-.07,9.66.02,14.45,0,.44.68.44.68,0-.02-4.79.07-9.67-.33-14.45-.02-.24-.36-.24-.37,0h0Z"/><path class="cls-1" d="M23.43,61.94s-.02,0-.03-.01c-.1-.04-.21-.03-.27.07,0,.01-.01.03-.02.04-.07.13,0,.27.13.31.73.26,2.45-.97,3.07-1.29,1.57-.79,3.13-1.62,4.65-2.5.33-.19.03-.7-.3-.51-1.29.72-2.59,1.44-3.91,2.12-.66.34-1.32.67-1.99,1-.33.16-.66.33-1,.49-.49.05-.62.26-.38.61.14-.04.2-.27.04-.33h0Z"/><path class="cls-1" d="M17.52,43.59c2.92-.97,5.75-2.28,8.59-3.46.31-.13.17-.64-.14-.51-2.87,1.18-5.82,2.24-8.6,3.62-.19.1-.06.42.15.35h0Z"/><path class="cls-1" d="M17.34,43.63c1.54,1.64,3.32,3.28,5.24,4.47.29.18.55-.27.27-.46-1.9-1.26-3.42-2.91-5.19-4.33-.22-.18-.52.1-.32.32h0Z"/><path class="cls-1" d="M25.9,40.05c1.61,1.28,3.13,2.65,4.7,3.97.2.17.46-.04.35-.27-.19-.42-.62-.63-.96-.92-.47-.39-.92-.82-1.37-1.24-.76-.7-1.56-1.48-2.55-1.85-.16-.06-.31.19-.17.3h0Z"/><path class="cls-1" d="M17.19,43.42c-.2,4.1-.08,8.23-.06,12.34,0,.39.6.39.6,0-.02-4.11.07-8.24-.16-12.34-.01-.24-.37-.24-.38,0h0Z"/><path class="cls-1" d="M17.22,56.09c1.82,2.16,3.87,4.12,5.68,6.3.22.27.6-.12.38-.38-1.74-2.16-3.6-4.47-5.77-6.21-.21-.16-.46.09-.29.29h0Z"/><path class="cls-1" d="M34.65,39.05c-.27,3.67-.39,7.64-.07,11.31.03.33.48.33.51,0,.32-3.67.2-7.64-.07-11.31-.02-.23-.35-.23-.36,0h0Z"/><path class="cls-1" d="M40.92,43.37c-.22,1.93-.1,3.92-.11,5.86,0,1.95-.1,3.92.05,5.86.02.31.46.31.48,0,.14-1.94.05-3.92.05-5.86,0-1.94.12-3.93-.11-5.86-.03-.23-.33-.23-.36,0h0Z"/><path class="cls-1" d="M41.17,55.46c2.59-1.08,5.05-2.58,7.47-4,.3-.18.03-.64-.27-.46-2.41,1.43-4.95,2.66-7.34,4.13-.17.1-.06.42.14.34h0Z"/><path class="cls-1" d="M48.47,39.2c-.27,1.83-.12,3.74-.12,5.58,0,2.04-.12,4.11.05,6.14.03.34.51.34.53,0,.17-2.03.05-4.11.05-6.14,0-1.84.15-3.75-.12-5.58-.03-.19-.36-.19-.38,0h0Z"/><path class="cls-1" d="M41.19,43.48c2.57-.99,5-2.39,7.34-3.84.28-.17.02-.61-.26-.44-2.34,1.46-4.79,2.66-7.23,3.93-.19.1-.06.43.15.35h0Z"/><path class="cls-1" d="M34.76,50.54c1.69,1.91,4.12,3.45,6.22,4.88.3.2.57-.28.28-.48-2.13-1.49-4.09-3.31-6.28-4.68-.18-.11-.35.13-.22.28h0Z"/><path class="cls-1" d="M34.81,39.17c1.12.83,2.32,1.55,3.4,2.44.86.7,1.64,1.48,2.6,2.04.3.17.57-.29.27-.47-2.17-1.25-3.75-3.28-6.09-4.32-.21-.1-.37.17-.18.31h0Z"/><path class="cls-1" d="M34.94,39.2c2.62-.94,5.15-2.17,7.7-3.28.29-.13.04-.56-.25-.43-2.53,1.1-5.14,2.12-7.59,3.38-.18.09-.05.4.14.33h0Z"/><path class="cls-1" d="M42.42,35.82c1.85,1.36,3.95,2.46,5.92,3.62.28.16.53-.27.25-.43-1.98-1.16-3.93-2.49-5.99-3.51-.22-.11-.38.18-.19.32h0Z"/><path class="cls-1" d="M54.62,30.36c-.27,3.2-.08,6.48-.08,9.69,0,3.22-.13,6.47.04,9.69.02.33.49.33.51,0,.16-3.22.04-6.47.04-9.69,0-3.21.19-6.49-.08-9.69-.02-.27-.39-.27-.41,0h0Z"/><path class="cls-1" d="M61.39,26.71c-.19,3.19-.11,6.42-.12,9.62,0,3.19-.16,6.43.04,9.62.02.34.5.34.52,0,.2-3.18.04-6.43.04-9.62,0-3.2.08-6.42-.12-9.62-.01-.23-.35-.24-.37,0h0Z"/><path class="cls-1" d="M48.01,26.35c-.19,2.08-.1,4.19-.1,6.27,0,2.09-.08,4.19.04,6.27.02.32.48.32.5,0,.13-2.08.04-4.19.04-6.27,0-2.09.08-4.19-.1-6.27-.02-.24-.35-.24-.38,0h0Z"/><path class="cls-1" d="M48.93,46.49c1.68,1.45,3.57,2.68,5.36,3.99.27.2.53-.25.26-.45-1.78-1.29-3.51-2.7-5.39-3.84-.18-.11-.4.16-.23.3h0Z"/><path class="cls-1" d="M61.42,45.81c-2.24,1.58-4.48,3.08-6.95,4.28-.31.15-.04.61.27.46,2.46-1.2,4.86-2.62,6.93-4.42.17-.15-.06-.46-.25-.32h0Z"/><path class="cls-1" d="M54.95,30.51c2.26-.85,4.43-2.07,6.5-3.32.31-.19.03-.66-.28-.48-2.09,1.2-4.27,2.27-6.36,3.47-.17.1-.06.4.14.33h0Z"/><path class="cls-1" d="M48.26,26.53c2.31,1.11,3.98,3.11,6.21,4.33.29.16.55-.28.26-.45-2.17-1.29-3.89-3.41-6.32-4.25-.22-.07-.36.27-.16.37h0Z"/><path class="cls-1" d="M48.18,26.64c2.55-.8,5.05-2,7.44-3.18.32-.16.04-.62-.28-.48-2.42,1.11-4.93,2.12-7.3,3.33-.18.09-.06.39.14.33h0Z"/><path class="cls-1" d="M55.35,23.34c2.19,1.03,4.16,2.57,6.23,3.82.28.17.52-.26.25-.44-1.16-.76-2.34-1.49-3.52-2.23-.91-.57-1.79-1.18-2.82-1.51-.2-.06-.35.26-.15.35h0Z"/><path class="cls-1" d="M66.48,53c-6.66,3.11-13.14,6.64-19.68,9.99-6.55,3.35-13.13,6.65-19.62,10.1-.41.22-.05.82.36.62,6.58-3.29,13.08-6.74,19.6-10.13,6.52-3.38,13.15-6.62,19.54-10.23.23-.13.03-.45-.2-.34h0Z"/><path class="cls-1" d="M10.76,56.9c4.81,6.03,10.43,11.53,16.1,16.75.36.33.89-.21.53-.53-5.73-5.25-10.99-10.88-16.38-16.47-.17-.17-.4.08-.26.26h0Z"/><path class="cls-1" d="M10.69,56.98c2.14-.75,4.2-1.76,6.26-2.68.38-.17.05-.73-.33-.56-2.04.92-4.13,1.8-6.09,2.89-.19.11-.06.43.15.36h0Z"/><path class="cls-1" d="M31.04,49.82c1.28-.58,2.75-1.21,3.86-2.08.17-.14-.01-.44-.22-.37-1.33.46-2.66,1.37-3.83,2.13-.21.13-.03.42.19.32h0Z"/><path class="cls-1" d="M60.5,47c-.1.04,2.34,2.72,2.6,2.98.95.98,1.86,2.05,2.91,2.92.26.22.57-.11.37-.37-1.07-1.36-2.43-2.56-3.65-3.79-.52-.52-1.48-2-2.31-1.89-.06,0-.11.07-.13.13-.05.16-.02.21.08.34.05.06.15.06.22.03.02,0,.04-.02.06-.03.18-.09.05-.4-.14-.32h0Z"/><path class="cls-1" d="M63.68,54.52c-.11,1.3.12,2.92.64,4.11.15.35.63.08.58-.24-.11-.66-.33-1.3-.46-1.96-.13-.65-.19-1.32-.33-1.97-.05-.26-.41-.17-.43.06h0Z"/><path class="cls-1" d="M64.87,58.42c-2.27.06-4.56.52-6.79.92-2.42.44-4.87.89-7.24,1.57-.38.11-.22.65.16.58,2.32-.45,4.62-1.03,6.95-1.47,2.32-.43,4.69-.69,6.98-1.24.2-.05.16-.37-.05-.37h0Z"/><path class="cls-1" d="M40.28,66.98c2.32.17,4.66.17,6.98.16,2.3-.01,4.7.1,6.98-.21.33-.04.35-.51,0-.53-2.31-.13-4.67.1-6.98.13-2.33.03-4.66,0-6.98.07-.24,0-.23.35,0,.37h0Z"/><path class="cls-1" d="M56.45,60.14c-1.12,1.98-1.84,4.26-2.44,6.45.24.03.48.06.72.1-.02-.14-.03-.28-.05-.42-.04-.3-.45-.4-.55-.07-.04.13-.08.26-.12.4-.14.45.58.65.71.19.59-2.21,1.4-4.32,2.07-6.5.06-.2-.23-.32-.34-.14h0Z"/><path class="cls-1" d="M25.14,63.87c3.09-1.44,6.24-2.91,9.21-4.6.25-.14.03-.49-.22-.38-3.12,1.38-6.17,3.03-9.17,4.66-.21.11-.03.41.18.32h0Z"/><path class="cls-1" d="M26.54,64.89c1.08-.96,2.45-1.21,3.76-1.71,1.14-.43,2.25-.97,3.26-1.65.27-.18.03-.61-.26-.44-1.42.82-2.82,1.52-4.38,2.06-1,.34-1.92.7-2.65,1.49-.16.18.08.42.26.26h0Z"/><path class="cls-1" d="M27.11,65.3c-.31.02-.31.02-.54.23-.16.15.04.38.23.29.84-.39,1.65-.85,2.49-1.25.84-.39,1.73-.69,2.54-1.12.25-.13.07-.51-.19-.44-1.73.44-3.6,1.45-5.04,2.49.08.1.15.2.23.29.09-.05.18-.09.28-.14.22-.02.23-.37,0-.35h0Z"/><path class="cls-1" d="M41.87,56.94c.45-.04.6-.17.91-.5.48-.52.27-.59,1.19-.76.51-.09.43.06.97-.09.83-.23,1.5-.89,2.2-1.34.9-.58,1.87-.97,2.83-1.42.31-.15.08-.59-.22-.53-.83.17-1.57.47-2.31.88-.88.49-1.73,1.4-2.7,1.68-.55.16-1.2-.03-1.71.29-.52.33-.63,1.18-1.22,1.39-.19.07-.18.4.05.39h0Z"/><path class="cls-1" d="M43.29,57.44c.51-.31.95-.7,1.47-.99.56-.31,1.16-.54,1.77-.75.28-.1.17-.5-.12-.44-1.22.22-2.64.91-3.37,1.94-.11.15.1.34.25.25h0Z"/><path class="cls-1" d="M43.89,58.36c1.14-.74,2.28-1.43,3.5-2.04.23-.11.07-.5-.17-.41-1.29.47-2.55,1.2-3.56,2.14-.16.15.05.43.24.31h0Z"/><path class="cls-1" d="M55.58,51.47c.75-.42,1.47-.87,2.22-1.28.74-.41,1.57-.71,2.28-1.17.23-.15.09-.52-.19-.44-1.59.41-3.29,1.56-4.54,2.6-.17.14.05.4.23.3h0Z"/><path class="cls-1" d="M31.68,65.59c-.87-.58-1.73.4-1.7,1.26.03,1.05.94,1.82,1.96,1.77,1.03-.05,2.12-.92,2.16-2,.06-1.48-1.62-1.66-2.7-1.53-.29.04-.31.48,0,.47.65-.03,1.62-.05,1.99.61.39.71-.36,1.48-.97,1.72-.56.22-1.22.14-1.6-.37-.16-.22-.26-.48-.27-.75-.01-.44.33-1.16.96-.87.21.1.38-.18.18-.31h0Z"/><path class="cls-1" d="M48.26,58.49c-.01-.13-.02-.26-.03-.38,0-.11-.09-.21-.21-.21-.87.03-1.49.94-1.25,1.77.24.86,1.25,1.31,2.08,1.07.88-.26,1.51-1.21,1.4-2.12-.1-.85-.86-1.67-1.76-1.41-.24.07-.2.48.06.45,1.39-.17,1.34,1.87.38,2.41-.49.28-1.19.16-1.52-.33-.38-.59.04-1.28.66-1.43-.08-.05-.17-.1-.25-.14.03.13.05.25.07.38.04.2.37.16.36-.05h0Z"/><path class="cls-1" d="M59.42,52.03c-1.03-.41-1.7.78-1.33,1.65.39.91,1.46,1.26,2.36,1,.97-.27,1.67-1.25,1.38-2.27-.27-.96-1.49-1.36-2.16-.55-.19.23.11.54.33.33.66-.63,1.41.25,1.26.95-.11.49-.5.82-.97.96-.41.12-.88.09-1.24-.15-.6-.39-.79-1.81.26-1.56.24.06.32-.27.1-.36h0Z"/></g></svg>