<?xml version="1.0" encoding="UTF-8"?><svg id="Layer_2" xmlns="http://www.w3.org/2000/svg" viewBox="0 0 56.33 50.8"><defs><style>.cls-1{fill:#26292b;stroke-width:0px;}</style></defs><g id="pic"><path class="cls-1" d="M7.2,32.09c1.54,1.73,3.17,3.37,4.89,4.92.17.15.41-.1.25-.25-1.72-1.55-3.35-3.19-4.89-4.92-.15-.17-.4.08-.25.25h0Z"/><path class="cls-1" d="M7.12,30.98c1.65,1.73,3.34,3.42,5.08,5.07.16.15.41-.09.25-.25-1.74-1.65-3.43-3.34-5.08-5.07-.16-.16-.4.08-.25.25h0Z"/><path class="cls-1" d="M7.16,30.15c1.64,1.6,3.29,3.18,4.96,4.75.16.15.41-.09.25-.25-1.67-1.56-3.32-3.15-4.96-4.75-.16-.16-.41.09-.25.25h0Z"/><path class="cls-1" d="M7.15,28.69c1.69,1.5,3.34,3.06,4.93,4.67.16.16.41-.09.25-.25-1.59-1.61-3.24-3.17-4.93-4.67-.17-.15-.42.1-.25.25h0Z"/><path class="cls-1" d="M7.17,27.74c1.52,1.63,3.15,3.13,4.89,4.51.17.14.42-.11.25-.25-1.74-1.38-3.37-2.88-4.89-4.51-.15-.16-.4.08-.25.25h0Z"/><path class="cls-1" d="M7.19,26.77c1.61,1.62,3.28,3.19,5.01,4.69.17.15.42-.1.25-.25-1.73-1.5-3.39-3.07-5.01-4.69-.16-.16-.41.09-.25.25h0Z"/><path class="cls-1" d="M7.16,25.96c1.6,1.57,3.26,3.07,4.99,4.49.17.14.42-.1.25-.25-1.73-1.42-3.39-2.92-4.99-4.49-.16-.16-.41.09-.25.25h0Z"/><path class="cls-1" d="M7.14,24.81c1.64,1.54,3.31,3.04,5.03,4.49.17.14.42-.1.25-.25-1.72-1.45-3.4-2.95-5.03-4.49-.16-.15-.41.09-.25.25h0Z"/><path class="cls-1" d="M7.23,23.72c1.55,1.5,3.16,2.93,4.82,4.31.17.14.42-.1.25-.25-1.66-1.38-3.27-2.81-4.82-4.31-.16-.16-.41.09-.25.25h0Z"/><path class="cls-1" d="M7.22,22.56c1.59,1.46,3.21,2.9,4.85,4.31.17.15.42-.1.25-.25-1.64-1.41-3.25-2.84-4.85-4.31-.17-.15-.41.09-.25.25h0Z"/><path class="cls-1" d="M24.34,26.66c2,1.69,4.07,3.31,6.19,4.85.18.13.36-.17.18-.3-2.1-1.52-4.14-3.12-6.12-4.79-.17-.14-.42.1-.25.25h0Z"/><path class="cls-1" d="M24.16,24.52c1.97,2.02,4.08,3.9,6.31,5.63.18.14.42-.11.25-.25-2.23-1.73-4.33-3.61-6.31-5.63-.16-.16-.4.09-.25.25h0Z"/><path class="cls-1" d="M24.29,23.76c1.99,1.87,4.06,3.64,6.2,5.33.17.14.42-.11.25-.25-2.15-1.68-4.21-3.46-6.2-5.33-.16-.15-.41.09-.25.25h0Z"/><path class="cls-1" d="M24.23,22.91c2.02,1.74,4.12,3.37,6.31,4.9.18.13.36-.17.18-.3-2.16-1.5-4.24-3.12-6.24-4.84-.17-.15-.42.1-.25.25h0Z"/><path class="cls-1" d="M24.34,21.74c1.98,1.66,4.01,3.26,6.1,4.79.18.13.36-.17.18-.3-2.06-1.51-4.07-3.09-6.03-4.74-.17-.14-.42.1-.25.25h0Z"/><path class="cls-1" d="M24.24,20.86c2.04,1.64,4.14,3.2,6.29,4.7.19.13.36-.17.18-.3-2.13-1.47-4.2-3.02-6.22-4.64-.17-.14-.42.11-.25.25h0Z"/><path class="cls-1" d="M24.27,19.24c2.08,1.65,4.19,3.27,6.32,4.86.18.13.35-.17.18-.3-2.11-1.57-4.19-3.17-6.25-4.8-.17-.14-.42.11-.25.25h0Z"/><path class="cls-1" d="M24.26,18.31c2.15,1.35,4.03,3.07,6.22,4.35.19.11.37-.19.18-.3-2.19-1.28-4.07-3.01-6.22-4.35-.19-.12-.37.18-.18.3h0Z"/><path class="cls-1" d="M24.23,16.65c2.06,1.74,4.16,3.43,6.32,5.04.18.13.35-.17.18-.3-2.13-1.6-4.22-3.26-6.25-4.99-.17-.14-.42.1-.25.25h0Z"/><path class="cls-1" d="M38.37,22.76c.28.18.57.37.85.56v-.3c.22-.1.13.03,0-.12-.06-.06-.17-.11-.24-.16-.14-.09-.29-.18-.42-.28-.06.1-.12.2-.18.3,1.89,1.22,3.82,2.38,5.79,3.46.2.11.37-.19.18-.3-1.97-1.08-3.9-2.23-5.79-3.46-.19-.13-.35.17-.18.3.19.15.77.67,1.03.56.13-.06.1-.23,0-.3-.28-.19-.57-.37-.85-.56-.19-.12-.36.18-.18.3h0Z"/><path class="cls-1" d="M37.86,20.64c2.11,1.47,4.22,2.95,6.33,4.42.18.13.36-.17.18-.3-2.11-1.47-4.22-2.95-6.33-4.42-.18-.13-.36.17-.18.3h0Z"/><path class="cls-1" d="M37.8,19.26c2.08,1.56,4.2,3.06,6.38,4.48.19.12.36-.18.18-.3-2.17-1.42-4.3-2.92-6.38-4.48-.18-.14-.35.17-.18.3h0Z"/><path class="cls-1" d="M37.82,18.04c2.08,1.36,4.18,2.71,6.28,4.05.19.12.37-.18.18-.3-2.1-1.34-4.19-2.69-6.27-4.05-.19-.12-.36.18-.18.3h0Z"/><path class="cls-1" d="M37.78,16.38c2.11,1.44,4.23,2.87,6.34,4.31.19.13.36-.18.18-.3-2.11-1.44-4.23-2.87-6.34-4.31-.19-.13-.36.18-.18.3h0Z"/><path class="cls-1" d="M37.89,14.94c1.97,1.6,4.03,3.08,6.17,4.45.19.12.37-.18.18-.3-2.11-1.35-4.15-2.82-6.1-4.4-.17-.14-.42.11-.25.25h0Z"/><path class="cls-1" d="M37.85,12.7c2.02,1.66,4.09,3.25,6.23,4.77.18.13.36-.17.18-.3-2.11-1.5-4.16-3.07-6.16-4.71-.17-.14-.42.1-.25.25h0Z"/><path class="cls-1" d="M37.88,11.09c2.06,1.54,4.13,3.07,6.19,4.61.18.13.35-.17.18-.3-2.06-1.54-4.13-3.07-6.19-4.61-.18-.13-.35.17-.18.3h0Z"/><path class="cls-1" d="M37.86,9.84c2.13,1.34,4.19,2.78,6.18,4.31.18.14.35-.17.18-.3-2-1.53-4.06-2.97-6.18-4.31-.19-.12-.37.18-.18.3h0Z"/><path class="cls-1" d="M37.75,7.93c2.02,1.66,4.12,3.2,6.31,4.63.19.12.36-.18.18-.3-2.16-1.41-4.24-2.93-6.24-4.57-.17-.14-.42.1-.25.25h0Z"/><path class="cls-1" d="M37.92,6.79c2.22,1.27,3.98,3.17,6.11,4.58.19.12.36-.18.18-.3-2.13-1.41-3.89-3.31-6.11-4.58-.2-.11-.37.19-.18.3h0Z"/><path class="cls-1" d="M37.84,5.96c2.12,1.53,4.23,3.08,6.32,4.66.18.14.35-.17.18-.3-2.09-1.57-4.2-3.13-6.32-4.66-.18-.13-.36.17-.18.3h0Z"/><path class="cls-1" d="M37.78,4.35c2.06,1.64,4.17,3.22,6.31,4.75.18.13.36-.17.18-.3-2.12-1.51-4.2-3.08-6.24-4.7-.17-.14-.42.11-.25.25h0Z"/><path class="cls-1" d="M12.18,24.83c-.11,4.7.03,9.44.16,14.14.01.4.61.4.62,0,.03-4.69-.01-9.46-.38-14.14-.02-.25-.39-.26-.4,0h0Z"/><path class="cls-1" d="M12.43,25.02c2.66-.72,5.5-2.23,7.74-3.82.28-.2.04-.62-.27-.46-1.28.65-2.49,1.41-3.77,2.05-1.27.64-2.61,1.17-3.84,1.89-.18.11-.06.4.14.34h0Z"/><path class="cls-1" d="M20.22,20.77c-.29,4.79-.07,9.66.02,14.45,0,.44.68.44.68,0-.02-4.79.07-9.67-.33-14.45-.02-.24-.36-.24-.37,0h0Z"/><path class="cls-1" d="M12.99,38.98s-.02,0-.03-.01c-.1-.04-.21-.03-.27.07,0,.01-.01.03-.02.04-.07.13,0,.27.13.31.73.26,2.45-.97,3.07-1.29,1.57-.79,3.13-1.62,4.65-2.5.33-.19.03-.7-.3-.51-1.29.72-2.59,1.44-3.91,2.12-.66.34-1.32.67-1.99,1-.33.16-.66.33-1,.49-.49.05-.62.26-.38.61.14-.04.2-.27.04-.33h0Z"/><path class="cls-1" d="M7.07,20.63c2.92-.97,5.75-2.28,8.59-3.46.31-.13.17-.64-.14-.51-2.87,1.18-5.82,2.24-8.6,3.62-.19.1-.06.42.15.35h0Z"/><path class="cls-1" d="M6.9,20.67c1.54,1.64,3.32,3.28,5.24,4.47.29.18.55-.27.27-.46-1.9-1.26-3.42-2.91-5.19-4.33-.22-.18-.52.1-.32.32h0Z"/><path class="cls-1" d="M15.46,17.09c1.61,1.28,3.13,2.65,4.7,3.97.2.17.46-.04.35-.27-.19-.42-.62-.63-.96-.92-.47-.39-.92-.82-1.37-1.24-.76-.7-1.56-1.48-2.55-1.85-.16-.06-.31.19-.17.3h0Z"/><path class="cls-1" d="M6.75,20.46c-.2,4.1-.08,8.23-.06,12.34,0,.39.6.39.6,0-.02-4.11.07-8.24-.16-12.34-.01-.24-.37-.24-.38,0h0Z"/><path class="cls-1" d="M6.77,33.14c1.82,2.16,3.87,4.12,5.68,6.3.22.27.6-.12.38-.38-1.74-2.16-3.6-4.47-5.77-6.21-.21-.16-.46.09-.29.29h0Z"/><path class="cls-1" d="M24.21,16.09c-.27,3.67-.39,7.64-.07,11.31.03.33.48.33.51,0,.32-3.67.2-7.64-.07-11.31-.02-.23-.35-.23-.36,0h0Z"/><path class="cls-1" d="M30.48,20.41c-.22,1.93-.1,3.92-.11,5.86,0,1.95-.1,3.92.05,5.86.02.31.46.31.48,0,.14-1.94.05-3.92.05-5.86,0-1.94.12-3.93-.11-5.86-.03-.23-.33-.23-.36,0h0Z"/><path class="cls-1" d="M30.73,32.5c2.59-1.08,5.05-2.58,7.47-4,.3-.18.03-.64-.27-.46-2.41,1.43-4.95,2.66-7.34,4.13-.17.1-.06.42.14.34h0Z"/><path class="cls-1" d="M38.03,16.24c-.27,1.83-.12,3.74-.12,5.58,0,2.04-.12,4.11.05,6.14.03.34.51.34.53,0,.17-2.03.05-4.11.05-6.14,0-1.84.15-3.75-.12-5.58-.03-.19-.36-.19-.38,0h0Z"/><path class="cls-1" d="M30.75,20.52c2.57-.99,5-2.39,7.34-3.84.28-.17.02-.61-.26-.44-2.34,1.46-4.79,2.66-7.23,3.93-.19.1-.06.43.15.35h0Z"/><path class="cls-1" d="M24.31,27.58c1.69,1.91,4.12,3.45,6.22,4.88.3.2.57-.28.28-.48-2.13-1.49-4.09-3.31-6.28-4.68-.18-.11-.35.13-.22.28h0Z"/><path class="cls-1" d="M24.37,16.21c1.12.83,2.32,1.55,3.4,2.44.86.7,1.64,1.48,2.6,2.04.3.17.57-.29.27-.47-2.17-1.25-3.75-3.28-6.09-4.32-.21-.1-.37.17-.18.31h0Z"/><path class="cls-1" d="M24.5,16.25c2.62-.94,5.15-2.17,7.7-3.28.29-.13.04-.56-.25-.43-2.53,1.1-5.14,2.12-7.59,3.38-.18.09-.05.4.14.33h0Z"/><path class="cls-1" d="M31.98,12.87c1.85,1.36,3.95,2.46,5.92,3.62.28.16.53-.27.25-.43-1.98-1.16-3.93-2.49-5.99-3.51-.22-.11-.38.18-.19.32h0Z"/><path class="cls-1" d="M44.18,7.4c-.27,3.2-.08,6.48-.08,9.69,0,3.22-.13,6.47.04,9.69.02.33.49.33.51,0,.16-3.22.04-6.47.04-9.69,0-3.21.19-6.49-.08-9.69-.02-.27-.39-.27-.41,0h0Z"/><path class="cls-1" d="M50.94,3.75c-.19,3.19-.11,6.42-.12,9.62,0,3.19-.16,6.43.04,9.62.02.34.5.34.52,0,.2-3.18.04-6.43.04-9.62,0-3.2.08-6.42-.12-9.62-.01-.23-.35-.24-.37,0h0Z"/><path class="cls-1" d="M37.57,3.39c-.19,2.08-.1,4.19-.1,6.27,0,2.09-.08,4.19.04,6.27.02.32.48.32.5,0,.13-2.08.04-4.19.04-6.27,0-2.09.08-4.19-.1-6.27-.02-.24-.35-.24-.38,0h0Z"/><path class="cls-1" d="M38.49,23.53c1.68,1.45,3.57,2.68,5.36,3.99.27.2.53-.25.26-.45-1.78-1.29-3.51-2.7-5.39-3.84-.18-.11-.4.16-.23.3h0Z"/><path class="cls-1" d="M50.98,22.85c-2.24,1.58-4.48,3.08-6.95,4.28-.31.15-.04.61.27.46,2.46-1.2,4.86-2.62,6.93-4.42.17-.15-.06-.46-.25-.32h0Z"/><path class="cls-1" d="M44.5,7.56c2.26-.85,4.43-2.07,6.5-3.32.31-.19.03-.66-.28-.48-2.09,1.2-4.27,2.27-6.36,3.47-.17.1-.06.4.14.33h0Z"/><path class="cls-1" d="M37.82,3.57c2.31,1.11,3.98,3.11,6.21,4.33.29.16.55-.28.26-.45-2.17-1.29-3.89-3.41-6.32-4.25-.22-.07-.36.27-.16.37h0Z"/><path class="cls-1" d="M37.74,3.69c2.55-.8,5.05-2,7.44-3.18.32-.16.04-.62-.28-.48-2.42,1.11-4.93,2.12-7.3,3.33-.18.09-.06.39.14.33h0Z"/><path class="cls-1" d="M44.91.38c2.19,1.03,4.16,2.57,6.23,3.82.28.17.52-.26.25-.44-1.16-.76-2.34-1.49-3.52-2.23-.91-.57-1.79-1.18-2.82-1.51-.2-.06-.35.26-.15.35h0Z"/><path class="cls-1" d="M56.03,30.04c-6.66,3.11-13.14,6.64-19.68,9.99-6.55,3.35-13.13,6.65-19.62,10.1-.41.22-.05.82.36.62,6.58-3.29,13.08-6.74,19.6-10.13,6.52-3.38,13.15-6.62,19.54-10.23.23-.13.03-.45-.2-.34h0Z"/><path class="cls-1" d="M.32,33.95c4.81,6.03,10.43,11.53,16.1,16.75.36.33.89-.21.53-.53-5.73-5.25-10.99-10.88-16.38-16.47-.17-.17-.4.08-.26.26H.32Z"/><path class="cls-1" d="M.24,34.03c2.14-.75,4.2-1.76,6.26-2.68.38-.17.05-.73-.33-.56-2.04.92-4.13,1.8-6.09,2.89-.19.11-.06.43.15.36H.24Z"/><path class="cls-1" d="M20.6,26.86c1.28-.58,2.75-1.21,3.86-2.08.17-.14-.01-.44-.22-.37-1.33.46-2.66,1.37-3.83,2.13-.21.13-.03.42.19.32h0Z"/><path class="cls-1" d="M50.06,24.05c-.1.04,2.34,2.72,2.6,2.98.95.98,1.86,2.05,2.91,2.92.26.22.57-.11.37-.37-1.07-1.36-2.43-2.56-3.65-3.79-.52-.52-1.48-2-2.31-1.89-.06,0-.11.07-.13.13-.05.16-.02.21.08.34.05.06.15.06.22.03.02,0,.04-.02.06-.03.18-.09.05-.4-.14-.32h0Z"/><path class="cls-1" d="M53.24,31.57c-.11,1.3.12,2.92.64,4.11.15.35.63.08.58-.24-.11-.66-.33-1.3-.46-1.96-.13-.65-.19-1.32-.33-1.97-.05-.26-.41-.17-.43.06h0Z"/><path class="cls-1" d="M54.43,35.46c-2.27.06-4.56.52-6.79.92-2.42.44-4.87.89-7.24,1.57-.38.11-.22.65.16.58,2.32-.45,4.62-1.03,6.95-1.47,2.32-.43,4.69-.69,6.98-1.24.2-.05.16-.37-.05-.37h0Z"/><path class="cls-1" d="M29.84,44.02c2.32.17,4.66.17,6.98.16,2.3-.01,4.7.1,6.98-.21.33-.04.35-.51,0-.53-2.31-.13-4.67.1-6.98.13-2.33.03-4.66,0-6.98.07-.24,0-.23.35,0,.37h0Z"/><path class="cls-1" d="M46.01,37.18c-1.12,1.98-1.84,4.26-2.44,6.45.24.03.48.06.72.1-.02-.14-.03-.28-.05-.42-.04-.3-.45-.4-.55-.07-.04.13-.08.26-.12.4-.14.45.58.65.71.19.59-2.21,1.4-4.32,2.07-6.5.06-.2-.23-.32-.34-.14h0Z"/><path class="cls-1" d="M14.7,40.92c3.09-1.44,6.24-2.91,9.21-4.6.25-.14.03-.49-.22-.38-3.12,1.38-6.17,3.03-9.17,4.66-.21.11-.03.41.18.32h0Z"/><path class="cls-1" d="M16.1,41.93c1.08-.96,2.45-1.21,3.76-1.71,1.14-.43,2.25-.97,3.26-1.65.27-.18.03-.61-.26-.44-1.42.82-2.82,1.52-4.38,2.06-1,.34-1.92.7-2.65,1.49-.16.18.08.42.26.26h0Z"/><path class="cls-1" d="M16.67,42.34c-.31.02-.31.02-.54.23-.16.15.04.38.23.29.84-.39,1.65-.85,2.49-1.25.84-.39,1.73-.69,2.54-1.12.25-.13.07-.51-.19-.44-1.73.44-3.6,1.45-5.04,2.49.08.1.15.2.23.29.09-.05.18-.09.28-.14.22-.02.23-.37,0-.35h0Z"/><path class="cls-1" d="M31.43,33.98c.45-.04.6-.17.91-.5.48-.52.27-.59,1.19-.76.51-.09.43.06.97-.09.83-.23,1.5-.89,2.2-1.34.9-.58,1.87-.97,2.83-1.42.31-.15.08-.59-.22-.53-.83.17-1.57.47-2.31.88-.88.49-1.73,1.4-2.7,1.68-.55.16-1.2-.03-1.71.29-.52.33-.63,1.18-1.22,1.39-.19.07-.18.4.05.39h0Z"/><path class="cls-1" d="M32.84,34.48c.51-.31.95-.7,1.47-.99.56-.31,1.16-.54,1.77-.75.28-.1.17-.5-.12-.44-1.22.22-2.64.91-3.37,1.94-.11.15.1.34.25.25h0Z"/><path class="cls-1" d="M33.45,35.41c1.14-.74,2.28-1.43,3.5-2.04.23-.11.07-.5-.17-.41-1.29.47-2.55,1.2-3.56,2.14-.16.15.05.43.24.31h0Z"/><path class="cls-1" d="M45.14,28.52c.75-.42,1.47-.87,2.22-1.28.74-.41,1.57-.71,2.28-1.17.23-.15.09-.52-.19-.44-1.59.41-3.29,1.56-4.54,2.6-.17.14.05.4.23.3h0Z"/><path class="cls-1" d="M21.23,42.63c-.87-.58-1.73.4-1.7,1.26.03,1.05.94,1.82,1.96,1.77,1.03-.05,2.12-.92,2.16-2,.06-1.48-1.62-1.66-2.7-1.53-.29.04-.31.48,0,.47.65-.03,1.62-.05,1.99.61.39.71-.36,1.48-.97,1.72-.56.22-1.22.14-1.6-.37-.16-.22-.26-.48-.27-.75-.01-.44.33-1.16.96-.87.21.1.38-.18.18-.31h0Z"/><path class="cls-1" d="M37.81,35.53c-.01-.13-.02-.26-.03-.38,0-.11-.09-.21-.21-.21-.87.03-1.49.94-1.25,1.77.24.86,1.25,1.31,2.08,1.07.88-.26,1.51-1.21,1.4-2.12-.1-.85-.86-1.67-1.76-1.41-.24.07-.2.48.06.45,1.39-.17,1.34,1.87.38,2.41-.49.28-1.19.16-1.52-.33-.38-.59.04-1.28.66-1.43-.08-.05-.17-.1-.25-.14.03.13.05.25.07.38.04.2.37.16.36-.05h0Z"/><path class="cls-1" d="M48.98,29.07c-1.03-.41-1.7.78-1.33,1.65.39.91,1.46,1.26,2.36,1,.97-.27,1.67-1.25,1.38-2.27-.27-.96-1.49-1.36-2.16-.55-.19.23.11.54.33.33.66-.63,1.41.25,1.26.95-.11.49-.5.82-.97.96-.41.12-.88.09-1.24-.15-.6-.39-.79-1.81.26-1.56.24.06.32-.27.1-.36h0Z"/></g></svg>