<?xml version="1.0" standalone="no"?>
<!DOCTYPE svg PUBLIC "-//W3C//DTD SVG 20010904//EN"
 "http://www.w3.org/TR/2001/REC-SVG-20010904/DTD/svg10.dtd">
<svg version="1.0" xmlns="http://www.w3.org/2000/svg"
 width="512.000000pt" height="512.000000pt" viewBox="0 0 512.000000 512.000000"
 preserveAspectRatio="xMidYMid meet">

<g transform="translate(0.000000,512.000000) scale(0.100000,-0.100000)"
fill="#F7DF1E" stroke="none">
<path d="M2490 4683 c-32 -13 -1697 -977 -1728 -1000 -18 -13 -42 -43 -55 -66
l-22 -42 0 -1015 0 -1015 25 -45 c22 -40 57 -66 285 -218 143 -96 280 -183
305 -194 95 -44 378 -2 545 81 138 69 221 160 264 289 21 62 21 72 19 940 l-3
878 -25 37 c-14 21 -43 50 -64 65 -35 24 -49 27 -116 27 -67 0 -81 -3 -116
-27 -21 -15 -50 -44 -64 -65 l-25 -37 -5 -847 c-5 -833 -5 -848 -25 -863 -28
-22 -133 -55 -191 -62 -50 -6 -50 -6 -217 102 l-167 109 0 841 0 840 717 414
c394 228 724 414 733 414 8 1 338 -185 733 -413 l717 -414 0 -837 0 -837 -717
-414 c-394 -228 -721 -416 -725 -417 -5 -2 -86 40 -179 94 -146 83 -179 98
-225 102 -195 16 -309 -210 -176 -349 22 -22 134 -94 267 -171 l230 -133 75 0
75 0 165 96 c203 118 777 450 1205 696 176 102 335 196 353 209 18 14 42 44
55 67 l22 42 0 1015 0 1015 -22 42 c-13 23 -37 53 -55 67 -18 13 -413 244
-878 512 l-845 488 -65 3 c-36 1 -72 0 -80 -4z"/>
<path d="M2883 3396 c-237 -45 -402 -155 -485 -323 -40 -80 -43 -92 -46 -186
-3 -59 1 -123 8 -156 34 -152 138 -269 320 -361 85 -43 201 -82 395 -134 72
-19 157 -44 190 -57 96 -35 167 -122 138 -168 -50 -80 -341 -117 -507 -65 -71
22 -126 69 -126 108 0 15 -9 43 -19 64 -83 162 -299 162 -382 0 -39 -76 -16
-224 51 -328 43 -67 143 -158 216 -197 188 -100 520 -128 753 -63 286 80 470
300 448 536 -19 196 -142 373 -324 467 -107 54 -160 73 -384 132 -317 84 -419
161 -328 246 51 47 152 73 289 73 191 0 300 -41 321 -119 5 -22 17 -57 26 -77
58 -135 249 -160 350 -45 43 49 57 97 50 173 -20 215 -198 394 -462 465 -103
27 -381 36 -492 15z"/>
</g>
</svg>
