<?xml version="1.0" encoding="UTF-8"?><svg id="Layer_2" xmlns="http://www.w3.org/2000/svg" viewBox="0 0 186.01 185.87"><defs><style>.cls-1{fill:#98c0ef;stroke-width:0px;}</style></defs><g id="Layer_1-2"><path class="cls-1" d="M104.38,185.87h-38.43V62.02h36.85v16.49c2.66-3.1,4.91-6.23,7.67-8.83,6.78-6.4,15.08-9.73,24.29-10.57,7.96-.73,15.88-.15,23.57,2.25,12.8,4,20.35,13,24.12,25.56,2.5,8.33,3.39,16.91,3.45,25.54.16,23.98.1,47.96.12,71.95,0,.29-.05.59-.1,1.08h-38.48c0-.89,0-1.77,0-2.65-.01-20.5.04-41-.08-61.51-.03-4.29-.42-8.63-1.19-12.85-2.34-12.74-10.61-17.16-22.58-15.69-10.75,1.32-16.63,7.65-18.27,19.33-.6,4.25-.87,8.58-.89,12.88-.09,19.37-.04,38.73-.04,58.1,0,.89,0,1.77,0,2.77Z"/><path class="cls-1" d="M41.5,185.87H3.22V61.94h38.28v123.93Z"/><path class="cls-1" d="M44.62,22.25c.07,12.32-9.93,22.54-22.13,22.61C10.22,44.94,0,34.7,0,22.34,0,10.17,9.99.11,22.18,0c12.29-.11,22.37,9.88,22.44,22.25Z"/></g></svg>